<?xml version="1.0" encoding="utf-8"?>
<!-- Generator: Adobe Illustrator 16.0.0, SVG Export Plug-In . SVG Version: 6.00 Build 0)  -->
<!DOCTYPE svg PUBLIC "-//W3C//DTD SVG 1.1//EN" "http://www.w3.org/Graphics/SVG/1.1/DTD/svg11.dtd">
<svg version="1.1" id="Layer_1" xmlns="http://www.w3.org/2000/svg" xmlns:xlink="http://www.w3.org/1999/xlink" x="0px" y="0px"
	 width="99.21px" height="127.56px" viewBox="0 0 99.21 127.56" enable-background="new 0 0 99.21 127.56" xml:space="preserve">
<path fill-rule="evenodd" clip-rule="evenodd" fill="#FFFFFF" d="M0,127.43C0,84.871,0,42.753,0,0.272c23.865,0,47.568,0,71.695,0
	c0,8.344,0,16.608,0,25.462c8.781,0,17.172,0,25.824,0c0,14.187,0,27.78,0,41.969c-20.305,0-40.685,0-61.389,0
	c0,10.172,0,19.762,0,29.945c20.268,0,40.647,0,61.344,0c0,10.169,0,19.752,0,29.781C65.172,127.43,32.822,127.43,0,127.43z"/>
<path fill-rule="evenodd" clip-rule="evenodd" fill="#FFFFFF" d="M95.27,23.721c-6.074,0-13.379,0-21.059,0
	c0-7.652,0-15.162,0-21.128C80.954,9.358,88.414,16.843,95.27,23.721z"/>
<text transform="matrix(1 0 0 1 38.5835 88.958)" fill="#FFFFFF" font-family="'Futura-Medium'" font-size="18">GUIDE</text>
</svg>
