<?xml version="1.0" encoding="utf-8"?>
<!-- Generator: Adobe Illustrator 16.0.4, SVG Export Plug-In . SVG Version: 6.00 Build 0)  -->
<!DOCTYPE svg PUBLIC "-//W3C//DTD SVG 1.1//EN" "http://www.w3.org/Graphics/SVG/1.1/DTD/svg11.dtd">
<svg version="1.1" id="Layer_1" xmlns="http://www.w3.org/2000/svg" xmlns:xlink="http://www.w3.org/1999/xlink" x="0px" y="0px"
	 width="423px" height="370px" viewBox="0 0 423 370" enable-background="new 0 0 423 370" xml:space="preserve">
<g>
	<path d="M359.072,249.08H55.221l0.361-42.705l10.138-27.09h278.492l14.922,39.777L359.072,249.08z M57.748,246.57h298.819
		l0.059-27.283l-14.147-37.492H67.461l-9.45,25.249L57.748,246.57z"/>
	<g>
		<polygon points="221.787,70.268 183.177,70.268 183.177,35.473 185.686,35.473 185.686,67.758 219.279,67.758 219.279,35.473 
			221.787,35.473 		"/>
		<polygon points="202.482,88.574 186.007,69.633 187.901,67.986 202.482,84.751 217.066,67.986 218.957,69.633 		"/>
		<path fill-rule="evenodd" clip-rule="evenodd" d="M186.954,68.81c0,0,3.169,4.193,15.528,4.193
			c12.358,0,15.529-4.193,15.529-4.193"/>
	</g>
</g>
<rect x="201.08" y="85.989" width="2.509" height="31.996"/>
<g>
	<ellipse fill-rule="evenodd" clip-rule="evenodd" fill="none" cx="202.207" cy="126.101" rx="32.332" ry="7.698"/>
	<path d="M202.206,135.054c-16.69,0-33.585-3.076-33.585-8.953c0-5.876,16.895-8.952,33.585-8.952
		c16.69,0,33.587,3.076,33.587,8.952C235.793,131.978,218.896,135.054,202.206,135.054z M202.206,119.658
		c-18.969,0-31.076,3.816-31.076,6.443c0,2.627,12.106,6.443,31.076,6.443c18.972,0,31.078-3.815,31.078-6.443
		C233.283,123.474,221.178,119.658,202.206,119.658z"/>
</g>
<path fill-rule="evenodd" clip-rule="evenodd" fill="#1D1D1B" d="M39.427,18.5v330.356h341.884V18.5H39.427z M201.655,322.921
	H58.556L61.04,40.112h295.776v239.584H221.824L201.655,322.921z M315.401,326.452h-17.268v-18.82h17.268V326.452z M357.615,326.452
	h-34.534v-18.82h34.534V326.452z"/>
<path d="M168.898,126.971c0,7.455,0,85.599,0,85.599l0.648,0.357c11.184,6.179,22.604,9.312,33.942,9.312
	c19.354,0,31.57-9.023,32.08-9.408l0.5-0.375v-85.486C236.068,126.971,203.589,142.381,168.898,126.971z"/>
</svg>
