<?xml version="1.0" encoding="utf-8"?>
<!-- Generator: Adobe Illustrator 16.0.0, SVG Export Plug-In . SVG Version: 6.00 Build 0)  -->
<!DOCTYPE svg PUBLIC "-//W3C//DTD SVG 1.1//EN" "http://www.w3.org/Graphics/SVG/1.1/DTD/svg11.dtd">
<svg version="1.1" id="Layer_1" xmlns="http://www.w3.org/2000/svg" xmlns:xlink="http://www.w3.org/1999/xlink" x="0px" y="0px"
	 width="141.73px" height="138.9px" viewBox="0 0 141.73 138.9" enable-background="new 0 0 141.73 138.9" xml:space="preserve">
<g>
	<g>
		
			<circle fill-rule="evenodd" clip-rule="evenodd" fill="#FFFFFF" stroke="#000000" stroke-miterlimit="10" cx="51.248" cy="52.251" r="51.751"/>
		<path fill-rule="evenodd" clip-rule="evenodd" d="M54.315,49.567c0,1.482-1.201,2.684-2.683,2.684l0,0
			c-1.482,0-2.684-1.201-2.684-2.684V12.001c0-1.482,1.201-2.684,2.684-2.684l0,0c1.482,0,2.683,1.201,2.683,2.684V49.567z"/>
		<path fill-rule="evenodd" clip-rule="evenodd" d="M29.238,52.89c-1.482,0-2.684-1.201-2.683-2.684l0,0
			c0-1.482,1.201-2.683,2.683-2.683h22.233c1.482,0,2.684,1.2,2.684,2.683l0,0c0,1.482-1.202,2.684-2.684,2.684H29.238z"/>
		<circle fill-rule="evenodd" clip-rule="evenodd" cx="5.823" cy="50.143" r="2.492"/>
	</g>
	<path fill-rule="evenodd" clip-rule="evenodd" stroke="#FFFFFF" stroke-width="4" stroke-miterlimit="10" d="M23.885,139.072
		c-2.331-0.258-3.649-1.226-3.358-3.572c0.83-6.685,1.779-7.635,2.482-14.336c-0.008-0.698,0.192-1.183,0.689-1.68
		c16.332-16.304,32.645-32.627,48.977-48.932c-0.87-1.207-1.949-3.541-2.134-4.271c-3.472-13.716,1.647-28.262,12.938-36.668
		c7.093-5.279,15.096-7.668,23.911-6.931c11.577,0.97,20.7,6.359,27.173,15.972c4.783,7.107,6.71,15.063,5.736,23.596
		c-1.236,10.829-6.367,19.454-15.441,25.493c-8.639,5.749-18.147,7.164-28.225,4.741c-2.631-0.941-2.385-0.982-4.085-2.484
		c-2.991,3.021-6.013,6.014-9.002,9.037c-0.406,0.41-0.81,0.582-1.387,0.58c-4.755-0.022-9.511-0.015-14.266-0.014
		c-0.302,0.001-0.603,0.018-0.978,0.03c0,4.095,0.002,8.136,0.002,12.262c-3.946-0.011-7.827-0.021-11.727-0.032
		c0.002,4.07,0.005,8.062,0.008,12.247c-4.188-0.022-8.252-0.043-12.37-0.063c0.003,4.078,0.005,8.103,0.007,12.213
		C42.565,136.27,24.189,139.105,23.885,139.072z M122.505,40.465c-3.79-3.816-9.622-3.873-13.355-0.129
		c-3.654,3.662-3.613,9.678,0.088,13.337c3.658,3.618,9.719,3.646,13.313,0.062C126.19,50.104,126.169,44.155,122.505,40.465z"/>
</g>
</svg>
