<?xml version="1.0" encoding="utf-8"?>
<!-- Generator: Adobe Illustrator 16.0.4, SVG Export Plug-In . SVG Version: 6.00 Build 0)  -->
<!DOCTYPE svg PUBLIC "-//W3C//DTD SVG 1.1//EN" "http://www.w3.org/Graphics/SVG/1.1/DTD/svg11.dtd">
<svg version="1.1" xmlns="http://www.w3.org/2000/svg" xmlns:xlink="http://www.w3.org/1999/xlink" x="0px" y="0px" width="423px"
	 height="370px" viewBox="0 0 423 370" enable-background="new 0 0 423 370" xml:space="preserve">
<g id="Layer_1">
	<g>
	</g>
	<g>
		<path fill-rule="evenodd" clip-rule="evenodd" d="M174.643,137.86c0,3.465-2.808,6.272-6.271,6.272l0,0
			c-3.465,0-6.273-2.808-6.273-6.272V50.052c0-3.465,2.808-6.273,6.273-6.273l0,0c3.464,0,6.271,2.808,6.271,6.273V137.86z"/>
		<path fill-rule="evenodd" clip-rule="evenodd" d="M116.029,145.626c-3.465,0-6.273-2.808-6.272-6.272l0,0
			c0-3.465,2.808-6.271,6.272-6.271h51.969c3.465,0,6.273,2.805,6.273,6.271l0,0c0,3.465-2.809,6.272-6.273,6.272H116.029z"/>
		<circle fill-rule="evenodd" clip-rule="evenodd" cx="61.296" cy="139.205" r="5.824"/>
		<path fill="#644B77" d="M136.451,262.115C82.28,250.772,44.446,200.23,44.446,139.206c0-29.612,13.54-59.447,37.148-81.854
			c23.558-22.359,54.86-35.183,85.881-35.183c33.583,0,58.576,13.605,73.629,25.019c16.309,12.366,24.812,24.931,24.896,25.057
			l-1.662,1.113c-0.329-0.492-33.692-49.188-96.862-49.188c-30.514,0-61.314,12.624-84.504,34.634
			c-23.212,22.031-36.525,51.337-36.525,80.403c0,60.067,37.18,109.805,90.416,120.952L136.451,262.115z"/>
	</g>
	<g>
		<path fill-rule="evenodd" clip-rule="evenodd" d="M103.515,347.072c-5.449-0.603-8.53-2.865-7.85-8.351
			c1.94-15.624,4.159-17.846,5.803-33.509c-0.019-1.632,0.45-2.765,1.611-3.927c38.175-38.108,76.304-76.263,114.479-114.374
			c-2.033-2.821-4.556-8.277-4.987-9.984c-8.115-32.06,3.851-66.06,30.243-85.709c16.579-12.34,35.285-17.923,55.891-16.2
			c27.061,2.267,48.385,14.865,63.515,37.333c11.181,16.613,15.684,35.21,13.408,55.153c-2.89,25.312-14.883,45.473-36.094,59.589
			c-20.192,13.438-42.418,16.745-65.973,11.082c-6.149-2.2-5.574-2.296-9.549-5.807c-6.991,7.062-14.054,14.057-21.041,21.123
			c-0.949,0.959-1.893,1.36-3.241,1.356c-11.114-0.053-22.23-0.034-33.345-0.032c-0.705,0.002-1.408,0.041-2.285,0.07
			c0,9.571,0.004,19.018,0.004,28.661c-9.224-0.024-18.295-0.05-27.41-0.075c0.005,9.514,0.012,18.844,0.019,28.627
			c-9.788-0.053-19.289-0.101-28.915-0.148c0.007,9.532,0.012,18.939,0.016,28.547C147.179,340.521,104.227,347.149,103.515,347.072
			z M334.032,116.584c-8.858-8.921-22.491-9.053-31.218-0.302c-8.541,8.56-8.445,22.621,0.206,31.174
			c8.551,8.458,22.717,8.523,31.119,0.144C342.648,139.116,342.597,125.21,334.032,116.584z"/>
	</g>
</g>
<g id="Layer_2">
</g>
</svg>
