<?xml version="1.0" encoding="utf-8"?>
<!-- Generator: Adobe Illustrator 16.0.0, SVG Export Plug-In . SVG Version: 6.00 Build 0)  -->
<!DOCTYPE svg PUBLIC "-//W3C//DTD SVG 1.1//EN" "http://www.w3.org/Graphics/SVG/1.1/DTD/svg11.dtd">
<svg version="1.1" id="Layer_1" xmlns="http://www.w3.org/2000/svg" xmlns:xlink="http://www.w3.org/1999/xlink" x="0px" y="0px"
	 width="423px" height="370px" viewBox="0 0 423 370" enable-background="new 0 0 423 370" xml:space="preserve">
<g>
	<path fill="#363436" d="M35.994,2.035c-4.388,0-7.978,3.589-7.978,7.978v351.01c0,4.386,3.589,7.978,7.978,7.978h351.01
		c4.386,0,7.978-3.592,7.978-7.978V10.012c0-4.388-3.592-7.978-7.978-7.978H35.994z M63.916,353.045
		c-11.014,0-19.944-8.932-19.944-19.944c0-11.012,8.93-19.943,19.944-19.943c11.014,0,19.943,8.932,19.943,19.943
		C83.859,344.113,74.929,353.045,63.916,353.045z M63.916,301.191c-11.014,0-19.944-8.933-19.944-19.944s8.93-19.943,19.944-19.943
		c11.014,0,19.943,8.932,19.943,19.943S74.929,301.191,63.916,301.191z M63.916,249.337c-11.014,0-19.944-8.932-19.944-19.943
		s8.93-19.944,19.944-19.944c11.014,0,19.943,8.933,19.943,19.944S74.929,249.337,63.916,249.337z M63.916,197.483
		c-11.014,0-19.944-8.932-19.944-19.943c0-11.012,8.93-19.944,19.944-19.944c11.014,0,19.943,8.932,19.943,19.944
		C83.859,188.552,74.929,197.483,63.916,197.483z M114.441,353.045c-11.014,0-19.944-8.932-19.944-19.944
		c0-11.012,8.93-19.943,19.944-19.943c11.014,0,19.944,8.932,19.944,19.943C134.385,344.113,125.455,353.045,114.441,353.045z
		 M114.441,301.191c-11.014,0-19.944-8.933-19.944-19.944s8.93-19.943,19.944-19.943c11.014,0,19.944,8.932,19.944,19.943
		S125.455,301.191,114.441,301.191z M114.441,249.337c-11.014,0-19.944-8.932-19.944-19.943s8.93-19.944,19.944-19.944
		c11.014,0,19.944,8.933,19.944,19.944S125.455,249.337,114.441,249.337z M114.441,197.483c-11.014,0-19.944-8.932-19.944-19.943
		c0-11.012,8.93-19.944,19.944-19.944c11.014,0,19.944,8.932,19.944,19.944C134.385,188.552,125.455,197.483,114.441,197.483z
		 M163.634,353.045c-11.014,0-19.943-8.932-19.943-19.944c0-11.012,8.93-19.943,19.943-19.943c11.014,0,19.944,8.932,19.944,19.943
		C183.578,344.113,174.648,353.045,163.634,353.045z M163.634,301.191c-11.014,0-19.943-8.933-19.943-19.944
		s8.93-19.943,19.943-19.943c11.014,0,19.944,8.932,19.944,19.943S174.648,301.191,163.634,301.191z M163.634,249.337
		c-11.014,0-19.943-8.932-19.943-19.943s8.93-19.944,19.943-19.944c11.014,0,19.944,8.933,19.944,19.944
		S174.648,249.337,163.634,249.337z M163.634,197.483c-11.014,0-19.943-8.932-19.943-19.943c0-11.012,8.93-19.944,19.943-19.944
		c11.014,0,19.944,8.932,19.944,19.944C183.578,188.552,174.648,197.483,163.634,197.483z M213.493,353.045
		c-11.014,0-19.943-8.932-19.943-19.944c0-11.012,8.93-19.943,19.943-19.943c11.017,0,19.944,8.932,19.944,19.943
		C233.438,344.113,224.51,353.045,213.493,353.045z M213.493,301.191c-11.014,0-19.943-8.933-19.943-19.944
		s8.93-19.943,19.943-19.943c11.017,0,19.944,8.932,19.944,19.943S224.51,301.191,213.493,301.191z M213.493,249.337
		c-11.014,0-19.943-8.932-19.943-19.943s8.93-19.944,19.943-19.944c11.017,0,19.944,8.933,19.944,19.944
		S224.51,249.337,213.493,249.337z M213.493,197.483c-11.014,0-19.943-8.932-19.943-19.943c0-11.012,8.93-19.944,19.943-19.944
		c11.017,0,19.944,8.932,19.944,19.944C233.438,188.552,224.51,197.483,213.493,197.483z M213.493,145.63
		c-11.014,0-19.943-8.932-19.943-19.944c0-11.012,8.93-19.944,19.943-19.944c11.017,0,19.944,8.932,19.944,19.944
		C233.438,136.698,224.51,145.63,213.493,145.63z M262.025,353.045c-11.012,0-19.943-8.932-19.943-19.944
		c0-11.012,8.932-19.943,19.943-19.943s19.943,8.932,19.943,19.943C281.968,344.113,273.036,353.045,262.025,353.045z
		 M262.025,301.191c-11.012,0-19.943-8.933-19.943-19.944s8.932-19.943,19.943-19.943s19.943,8.932,19.943,19.943
		S273.036,301.191,262.025,301.191z M262.025,249.337c-11.012,0-19.943-8.932-19.943-19.943s8.932-19.944,19.943-19.944
		s19.943,8.933,19.943,19.944S273.036,249.337,262.025,249.337z M262.025,197.483c-11.012,0-19.943-8.932-19.943-19.943
		c0-11.012,8.932-19.944,19.943-19.944s19.943,8.932,19.943,19.944C281.968,188.552,273.036,197.483,262.025,197.483z
		 M262.025,145.63c-11.012,0-19.943-8.932-19.943-19.944c0-11.012,8.932-19.944,19.943-19.944s19.943,8.932,19.943,19.944
		C281.968,136.698,273.036,145.63,262.025,145.63z M312.546,301.191c-11.012,0-19.943-8.933-19.943-19.944
		s8.932-19.943,19.943-19.943s19.943,8.932,19.943,19.943S323.566,301.191,312.546,301.191z M312.546,249.337
		c-11.012,0-19.943-8.932-19.943-19.943s8.932-19.944,19.943-19.944s19.943,8.933,19.943,19.944S323.566,249.337,312.546,249.337z
		 M312.546,197.483c-11.012,0-19.943-8.932-19.943-19.943c0-11.012,8.932-19.944,19.943-19.944s19.943,8.932,19.943,19.944
		C332.49,188.552,323.566,197.483,312.546,197.483z M312.546,145.63c-11.012,0-19.943-8.932-19.943-19.944
		c0-11.012,8.932-19.944,19.943-19.944s19.943,8.932,19.943,19.944C332.49,136.698,323.566,145.63,312.546,145.63z M363.072,301.191
		c-11.016,0-19.943-8.933-19.943-19.944s8.928-19.943,19.943-19.943s19.944,8.932,19.944,19.943S374.087,301.191,363.072,301.191z
		 M363.072,249.337c-11.016,0-19.943-8.932-19.943-19.943s8.928-19.944,19.943-19.944s19.944,8.933,19.944,19.944
		S374.087,249.337,363.072,249.337z M363.072,197.483c-11.016,0-19.943-8.932-19.943-19.943c0-11.012,8.928-19.944,19.943-19.944
		s19.944,8.932,19.944,19.944C383.016,188.552,374.087,197.483,363.072,197.483z M363.072,145.63
		c-11.016,0-19.943-8.932-19.943-19.944c0-11.012,8.928-19.944,19.943-19.944s19.944,8.932,19.944,19.944
		C383.016,136.698,374.087,145.63,363.072,145.63z"/>
</g>
</svg>
