<?xml version="1.0" encoding="utf-8"?>
<!-- Generator: Adobe Illustrator 16.0.0, SVG Export Plug-In . SVG Version: 6.00 Build 0)  -->
<!DOCTYPE svg PUBLIC "-//W3C//DTD SVG 1.1//EN" "http://www.w3.org/Graphics/SVG/1.1/DTD/svg11.dtd">
<svg version="1.1" id="Layer_1" xmlns="http://www.w3.org/2000/svg" xmlns:xlink="http://www.w3.org/1999/xlink" x="0px" y="0px"
	 width="158.74px" height="119.06px" viewBox="0 0 158.74 119.06" enable-background="new 0 0 158.74 119.06" xml:space="preserve">
<g>
	<polygon fill-rule="evenodd" clip-rule="evenodd" fill="none" stroke="#000000" stroke-miterlimit="10" points="0,0 0,117 
		129.718,117 158.968,87.75 158.968,0 	"/>
	<path fill-rule="evenodd" clip-rule="evenodd" fill="none" stroke="#000000" stroke-miterlimit="10" d="M158.968,87.75
		c-7.207,4.098-24.077,2.814-23.881,3.815c2.826,14.413-5.369,25.435-5.369,25.435"/>
	<rect fill-rule="evenodd" clip-rule="evenodd" width="35.396" height="17.168"/>
	<rect x="123.782" fill-rule="evenodd" clip-rule="evenodd" width="35.397" height="17.168"/>
	<rect x="37.729" fill-rule="evenodd" clip-rule="evenodd" width="83.511" height="17.168"/>
	<g>
		<path d="M80.296,77.221c0,3.156-0.551,5.889-1.649,8.199c-1.1,2.313-2.565,4.228-4.396,5.749c-1.832,1.521-3.96,2.663-6.382,3.424
			c-2.424,0.761-4.96,1.142-7.608,1.142c-2.481,0-4.918-0.354-7.313-1.057c-2.396-0.704-4.538-1.803-6.425-3.297
			c-1.889-1.493-3.411-3.438-4.565-5.834c-1.156-2.395-1.733-5.283-1.733-8.665h13.864c0,2.143,0.592,3.733,1.776,4.776
			c1.183,1.043,2.648,1.564,4.396,1.564c1.803,0,3.283-0.535,4.438-1.606c1.154-1.07,1.733-2.677,1.733-4.818
			c0-1.804-0.606-3.311-1.818-4.522c-1.212-1.212-2.747-1.818-4.607-1.818h-1.945V58.453h1.945c2.084,0,3.563-0.605,4.438-1.818
			c0.873-1.211,1.311-2.494,1.311-3.846c0-1.916-0.55-3.352-1.649-4.312c-1.099-0.958-2.381-1.437-3.846-1.437
			c-1.466,0-2.748,0.494-3.847,1.479c-1.099,0.987-1.648,2.382-1.648,4.185H40.9c0-2.818,0.508-5.354,1.522-7.608
			c1.014-2.253,2.395-4.156,4.142-5.707c1.746-1.549,3.79-2.748,6.129-3.593c2.338-0.845,4.861-1.268,7.566-1.268
			c2.761,0,5.326,0.437,7.693,1.31c2.368,0.875,4.423,2.101,6.172,3.677c1.745,1.579,3.098,3.466,4.057,5.665
			s1.438,4.594,1.438,7.186c0,1.635-0.184,3.085-0.549,4.354c-0.368,1.268-0.846,2.367-1.438,3.297
			c-0.591,0.93-1.268,1.72-2.028,2.366c-0.761,0.649-1.509,1.227-2.24,1.734c0.845,0.563,1.676,1.225,2.494,1.986
			c0.816,0.761,1.549,1.662,2.198,2.705c0.646,1.043,1.183,2.255,1.606,3.635C80.084,73.826,80.296,75.417,80.296,77.221z"/>
		<path d="M104.135,95.227V49.83L91.286,60.989V46.195l12.849-11.16H118v60.191H104.135z"/>
	</g>
	<path d="M135.166,91.5c0,0,2.098,14.314-3.583,22.75c-2.75,4.083,26-25.167,26-25.167S145.999,91.5,135.166,91.5z"/>
</g>
</svg>
