<?xml version="1.0" encoding="utf-8"?>
<!-- Generator: Adobe Illustrator 16.0.0, SVG Export Plug-In . SVG Version: 6.00 Build 0)  -->
<!DOCTYPE svg PUBLIC "-//W3C//DTD SVG 1.1//EN" "http://www.w3.org/Graphics/SVG/1.1/DTD/svg11.dtd">
<svg version="1.1" id="Your_Icon" xmlns="http://www.w3.org/2000/svg" xmlns:xlink="http://www.w3.org/1999/xlink" x="0px" y="0px"
	 width="100px" height="100px" viewBox="0 0 100 100" enable-background="new 0 0 100 100" xml:space="preserve">
<g>
	<path fill="#363436" d="M6,4C4.9,4,4,4.9,4,6v88c0,1.1,0.9,2,2,2h88c1.1,0,2-0.9,2-2V6c0-1.1-0.9-2-2-2H6z M13,92
		c-2.761,0-5-2.239-5-5s2.239-5,5-5s5,2.239,5,5S15.761,92,13,92z M13,79c-2.761,0-5-2.239-5-5s2.239-5,5-5s5,2.239,5,5
		S15.761,79,13,79z M13,66c-2.761,0-5-2.239-5-5s2.239-5,5-5s5,2.239,5,5S15.761,66,13,66z M13,53c-2.761,0-5-2.239-5-5s2.239-5,5-5
		s5,2.239,5,5S15.761,53,13,53z M25.667,92c-2.761,0-5-2.239-5-5s2.239-5,5-5s5,2.239,5,5S28.428,92,25.667,92z M25.667,79
		c-2.761,0-5-2.239-5-5s2.239-5,5-5s5,2.239,5,5S28.428,79,25.667,79z M25.667,66c-2.761,0-5-2.239-5-5s2.239-5,5-5s5,2.239,5,5
		S28.428,66,25.667,66z M25.667,53c-2.761,0-5-2.239-5-5s2.239-5,5-5s5,2.239,5,5S28.428,53,25.667,53z M38,92c-2.761,0-5-2.239-5-5
		s2.239-5,5-5s5,2.239,5,5S40.761,92,38,92z M38,79c-2.761,0-5-2.239-5-5s2.239-5,5-5s5,2.239,5,5S40.761,79,38,79z M38,66
		c-2.761,0-5-2.239-5-5s2.239-5,5-5s5,2.239,5,5S40.761,66,38,66z M38,53c-2.761,0-5-2.239-5-5s2.239-5,5-5s5,2.239,5,5
		S40.761,53,38,53z M50.5,92c-2.761,0-5-2.239-5-5s2.239-5,5-5c2.762,0,5,2.239,5,5S53.262,92,50.5,92z M50.5,79
		c-2.761,0-5-2.239-5-5s2.239-5,5-5c2.762,0,5,2.239,5,5S53.262,79,50.5,79z M50.5,66c-2.761,0-5-2.239-5-5s2.239-5,5-5
		c2.762,0,5,2.239,5,5S53.262,66,50.5,66z M50.5,53c-2.761,0-5-2.239-5-5s2.239-5,5-5c2.762,0,5,2.239,5,5S53.262,53,50.5,53z
		 M50.5,40c-2.761,0-5-2.239-5-5s2.239-5,5-5c2.762,0,5,2.239,5,5S53.262,40,50.5,40z M62.667,92c-2.761,0-5-2.239-5-5s2.239-5,5-5
		s5,2.239,5,5S65.428,92,62.667,92z M62.667,79c-2.761,0-5-2.239-5-5s2.239-5,5-5s5,2.239,5,5S65.428,79,62.667,79z M62.667,66
		c-2.761,0-5-2.239-5-5s2.239-5,5-5s5,2.239,5,5S65.428,66,62.667,66z M62.667,53c-2.761,0-5-2.239-5-5s2.239-5,5-5s5,2.239,5,5
		S65.428,53,62.667,53z M62.667,40c-2.761,0-5-2.239-5-5s2.239-5,5-5s5,2.239,5,5S65.428,40,62.667,40z M75.333,79
		c-2.761,0-5-2.239-5-5s2.239-5,5-5s5,2.239,5,5S78.096,79,75.333,79z M75.333,66c-2.761,0-5-2.239-5-5s2.239-5,5-5s5,2.239,5,5
		S78.096,66,75.333,66z M75.333,53c-2.761,0-5-2.239-5-5s2.239-5,5-5s5,2.239,5,5S78.096,53,75.333,53z M75.333,40
		c-2.761,0-5-2.239-5-5s2.239-5,5-5s5,2.239,5,5S78.096,40,75.333,40z M88,79c-2.762,0-5-2.239-5-5s2.238-5,5-5s5,2.239,5,5
		S90.762,79,88,79z M88,66c-2.762,0-5-2.239-5-5s2.238-5,5-5s5,2.239,5,5S90.762,66,88,66z M88,53c-2.762,0-5-2.239-5-5s2.238-5,5-5
		s5,2.239,5,5S90.762,53,88,53z M88,40c-2.762,0-5-2.239-5-5s2.238-5,5-5s5,2.239,5,5S90.762,40,88,40z"/>
</g>
</svg>
