<?xml version="1.0" encoding="utf-8"?>
<!-- Generator: Adobe Illustrator 16.0.4, SVG Export Plug-In . SVG Version: 6.00 Build 0)  -->
<!DOCTYPE svg PUBLIC "-//W3C//DTD SVG 1.1//EN" "http://www.w3.org/Graphics/SVG/1.1/DTD/svg11.dtd">
<svg version="1.1" id="Layer_1" xmlns="http://www.w3.org/2000/svg" xmlns:xlink="http://www.w3.org/1999/xlink" x="0px" y="0px"
	 width="423px" height="370px" viewBox="0 0 423 370" enable-background="new 0 0 423 370" xml:space="preserve">
<g>
	<path d="M331.174,324.5H21.692v-280h379.585v209.898L331.174,324.5z M24.065,322.127h306.127l68.712-68.711V46.873H24.065V322.127z
		"/>
	<path d="M331.636,324.022l-1.905-1.418c0.192-0.255,19.051-26.157,12.529-59.415l-0.106-0.537l0.387-0.607
		c0.783-0.992,2.807-1.163,11.897-1.527c12.727-0.512,34.024-1.364,45.066-7.642l1.172,2.062
		c-11.542,6.562-33.201,7.432-46.144,7.951c-4.056,0.162-8.23,0.331-9.793,0.642C351.017,297.467,331.83,323.759,331.636,324.022z"
		/>
	<rect x="22.878" y="45.687" fill-rule="evenodd" clip-rule="evenodd" width="83.992" height="40.739"/>
	<rect x="316.599" y="45.687" fill-rule="evenodd" clip-rule="evenodd" width="83.994" height="40.739"/>
	<rect x="112.404" y="45.687" fill-rule="evenodd" clip-rule="evenodd" width="198.161" height="40.739"/>
	<g>
		<path fill="#1D1D1B" d="M213.411,228.922c0,7.489-1.308,13.974-3.913,19.456c-2.609,5.487-6.086,10.031-10.433,13.642
			c-4.347,3.61-9.397,6.319-15.145,8.124c-5.752,1.806-11.769,2.709-18.054,2.709c-5.887,0-11.669-0.839-17.352-2.507
			c-5.686-1.671-10.767-4.278-15.245-7.823c-4.483-3.543-8.093-8.157-10.833-13.844c-2.742-5.682-4.112-12.536-4.112-20.561h32.898
			c0,5.084,1.404,8.858,4.214,11.333c2.807,2.476,6.283,3.713,10.43,3.713c4.278,0,7.79-1.27,10.532-3.812
			c2.738-2.539,4.112-6.352,4.112-11.433c0-4.28-1.439-7.855-4.313-10.731c-2.877-2.876-6.519-4.314-10.932-4.314h-4.615v-28.485
			h4.615c4.946,0,8.456-1.436,10.531-4.313c2.072-2.874,3.11-5.917,3.11-9.127c0-4.545-1.305-7.954-3.913-10.23
			c-2.607-2.273-5.651-3.41-9.127-3.41c-3.479,0-6.52,1.172-9.127,3.51c-2.607,2.342-3.911,5.652-3.911,9.93H119.93
			c0-6.687,1.205-12.703,3.611-18.054c2.407-5.347,5.682-9.861,9.829-13.541c4.143-3.676,8.993-6.52,14.544-8.525
			c5.548-2.005,11.534-3.008,17.953-3.008c6.551,0,12.637,1.036,18.254,3.107c5.618,2.075,10.496,4.986,14.645,8.726
			c4.141,3.747,7.352,8.225,9.626,13.441s3.412,10.9,3.412,17.052c0,3.879-0.436,7.321-1.303,10.33
			c-0.874,3.009-2.008,5.617-3.412,7.823c-1.403,2.208-3.009,4.081-4.813,5.615c-1.807,1.541-3.58,2.91-5.316,4.115
			c2.004,1.337,3.978,2.905,5.917,4.713c1.938,1.806,3.676,3.944,5.216,6.419c1.534,2.475,2.808,5.351,3.812,8.625
			C212.908,220.867,213.411,224.642,213.411,228.922z"/>
		<path fill="#1D1D1B" d="M269.978,271.647V163.926l-30.488,26.478v-35.103l30.488-26.48h32.9v142.827H269.978z"/>
	</g>
	<path fill="#1D1D1B" d="M343.612,262.805c0,0,4.978,33.967-8.502,53.983c-6.525,9.688,61.694-59.718,61.694-59.718
		S369.317,262.805,343.612,262.805z"/>
</g>
</svg>
