<?xml version="1.0" encoding="utf-8"?>
<!-- Generator: Adobe Illustrator 16.0.0, SVG Export Plug-In . SVG Version: 6.00 Build 0)  -->
<!DOCTYPE svg PUBLIC "-//W3C//DTD SVG 1.1//EN" "http://www.w3.org/Graphics/SVG/1.1/DTD/svg11.dtd">
<svg version="1.1" id="Layer_1" xmlns="http://www.w3.org/2000/svg" xmlns:xlink="http://www.w3.org/1999/xlink" x="0px" y="0px"
	 width="423px" height="370px" viewBox="0 0 423 370" enable-background="new 0 0 423 370" xml:space="preserve">
<path fill="#111111" d="M2.035,266.828c0-35.959,0-71.917,0-107.875c1.08-1.022,2.015-2.287,3.262-3.029
	c24.93-14.862,49.861-29.723,74.9-44.4c3.062-1.794,4.793-3.598,4.126-7.26c-0.406-2.227,0.837-3.699,2.709-4.811
	c54.123-32.115,108.241-64.238,162.331-96.408c2.275-1.353,4.142-1.419,6.447-0.044c26.523,15.822,53.084,31.585,79.666,47.309
	c2.303,1.362,3.287,3.038,3.279,5.771c-0.072,33.162-0.033,66.324-0.087,99.486c-0.003,1.67,0.494,2.568,1.938,3.421
	c25.734,15.213,51.441,30.476,77.121,45.788c1.244,0.742,2.166,2.022,3.236,3.054c0,35.958,0,71.917,0,107.875
	c-1.076,0.928-2.046,2.038-3.249,2.755c-26.729,15.923-53.489,31.793-80.226,47.706c-1.805,1.074-3.399,1.1-5.208,0.023
	c-25.988-15.464-51.999-30.889-77.981-46.359c-1.18-0.702-2.023-0.804-3.273-0.058c-25.926,15.451-51.893,30.836-77.823,46.281
	c-1.994,1.188-3.671,1.171-5.664-0.013c-53.988-32.093-108.002-64.143-161.99-96.237C4.25,269.029,3.202,267.829,2.035,266.828z
	 M174.219,250.827c0.755-0.409,1.169-0.615,1.565-0.851c51.267-30.436,102.53-60.873,153.812-91.284
	c1.033-0.613,1.424-1.268,1.422-2.469c-0.031-31.011-0.024-62.021-0.031-93.031c0-0.533-0.072-1.067-0.125-1.788
	c-0.752,0.409-1.264,0.666-1.756,0.958c-51.019,30.285-102.03,60.579-153.068,90.829c-1.381,0.818-1.856,1.701-1.854,3.291
	c0.048,30.662,0.036,61.322,0.036,91.983C174.219,249.146,174.219,249.825,174.219,250.827z M95.771,103.26
	c0.66,0.428,1.037,0.692,1.431,0.927c23.952,14.222,47.909,28.436,71.844,42.686c0.989,0.589,1.678,0.586,2.668-0.002
	c51.291-30.485,102.599-60.941,153.903-91.402c0.486-0.289,0.949-0.619,1.554-1.016c-0.69-0.438-1.213-0.791-1.754-1.112
	c-23.749-14.109-47.504-28.207-71.231-42.349c-1.158-0.69-1.965-0.689-3.129,0.003c-46.633,27.736-93.288,55.434-139.939,83.137
	C106.072,97.126,101.032,100.129,95.771,103.26z M92.009,110.077c0,0.88,0,1.339,0,1.797c0,31.064,0.007,62.129-0.026,93.192
	c-0.001,1.209,0.402,1.853,1.43,2.461c23.825,14.099,47.627,28.232,71.435,42.359c0.47,0.278,0.958,0.524,1.659,0.906
	c0-0.788,0-1.248,0-1.708c0-31.063-0.007-62.129,0.029-93.193c0.001-1.22-0.417-1.854-1.431-2.456
	c-23.02-13.632-46.019-27.297-69.022-40.955C94.844,111.748,93.604,111.019,92.009,110.077z"/>
</svg>
