<?xml version="1.0" encoding="utf-8"?>
<!-- Generator: Adobe Illustrator 16.0.4, SVG Export Plug-In . SVG Version: 6.00 Build 0)  -->
<!DOCTYPE svg PUBLIC "-//W3C//DTD SVG 1.1//EN" "http://www.w3.org/Graphics/SVG/1.1/DTD/svg11.dtd">
<svg version="1.1" id="Layer_1" xmlns="http://www.w3.org/2000/svg" xmlns:xlink="http://www.w3.org/1999/xlink" x="0px" y="0px"
	 width="501px" height="370px" viewBox="0 0 501 370" enable-background="new 0 0 501 370" xml:space="preserve">
<g>
	<path fill="#1D1D1B" d="M239.289,304.973l-1.045-0.599c-40.964-23.502-46.098-47.337-52.597-77.513
		c-4.956-23.006-10.572-49.084-31.961-83.113c-15.66-24.913-33.065-37.545-51.733-37.545c-28.191,0-49.896,29.247-50.112,29.542
		l-5.215,7.135l3.21-8.233c21.525-55.201,52.194-83.188,91.154-83.188c49.145,0,100.065,44.574,127.42,68.521
		c9.083,7.95,16.257,14.229,19.165,15.14c2.038,0.636,4.374,0.959,6.941,0.959c18.008,0,42.572-15.657,42.817-15.814l1.616-1.041
		l0.156,1.917c0.052,0.63,5.769,62.985,62.252,62.981c3.29,0,6.735-0.211,10.245-0.626c6.677-0.793,13.108-1.195,19.104-1.195
		c51.311,0,60.176,28.473,60.528,29.684l0.041,0.236c0.049,0.655,1.061,16.197-10.52,28.669c-9.168,9.875-23.497,14.88-42.594,14.88
		c-12.608,0-27.416-2.223-44.014-6.611c-19.644-5.193-37.895-7.829-54.241-7.829c-60.743,0-86.201,35.714-100.066,62.579
		L239.289,304.973z M101.954,103.897c19.514,0,37.576,12.995,53.685,38.624c21.605,34.373,27.514,61.81,32.262,83.854
		c6.569,30.505,11.333,52.618,50.449,75.396c14.265-27.266,40.361-62.751,101.559-62.751c16.545,0,34.993,2.661,54.832,7.905
		c16.405,4.337,31.017,6.537,43.423,6.537c18.428,0,32.189-4.76,40.905-14.145c10.367-11.166,9.987-25.311,9.916-26.803
		c-0.651-1.932-10.406-27.913-58.276-27.913c-5.906,0-12.242,0.396-18.835,1.178c-3.594,0.427-7.133,0.645-10.515,0.645
		c-52.989,0.004-62.88-52.654-64.333-63.258c-5.79,3.515-26.288,15.217-42.509,15.217c-2.801,0-5.369-0.358-7.624-1.065
		c-3.378-1.055-9.99-6.843-20-15.605c-27.129-23.747-77.625-67.95-125.903-67.95c-36.288,0-65.279,25.188-86.238,74.89
		C62.805,119.803,80.292,103.897,101.954,103.897z"/>
	<path fill="#1D1D1B" d="M357.137,190.318c-32.134-12.623-75.472-55.733-75.903-56.167l1.631-1.63
		c0.431,0.43,43.433,43.208,75.114,55.654L357.137,190.318z"/>
	<path fill="#1D1D1B" d="M47.858,143.06l-0.812-2.156c3.194-1.202,78.398-29.292,94.09-17.52l-1.382,1.844
		c-4.178-3.132-16.458-4.859-51.25,4.7C67.471,135.707,48.052,142.988,47.858,143.06z"/>
	<path fill="#1D1D1B" d="M251.876,278.866c-0.255-0.232-25.804-24.018-41.842-87.03c-14.534-57.094-37.728-94.069-68.937-109.898
		c-29.637-15.03-56.058-4.703-56.324-4.596l-0.864-2.139c0.272-0.11,27.596-10.833,58.182,4.653
		c31.853,16.128,55.465,53.613,70.176,111.413c15.87,62.345,40.909,85.663,41.161,85.891L251.876,278.866z"/>
	<path fill="#1D1D1B" d="M273.907,258.219c-0.865-0.592-21.362-15.252-35.069-88.357C221.882,79.435,135.628,54.567,134.758,54.326
		l0.616-2.222c0.882,0.244,88.506,25.462,105.731,117.332c13.478,71.88,33.898,86.733,34.104,86.876L273.907,258.219z"/>
	<path fill="#1D1D1B" d="M295.148,246.894c-2.592,0-20.102-2.794-32.104-75.905c-8.644-52.646-55.64-94.588-56.114-95.005
		l1.525-1.729c0.479,0.422,48.087,42.913,56.862,96.36c12.214,74.396,29.649,73.962,29.874,73.97l0.258,2.293
		C295.405,246.882,295.301,246.894,295.148,246.894z"/>
	<path fill="#1D1D1B" d="M314.895,242.744c-0.264-0.244-26.496-24.511-28.807-56.875c-2.743-38.387-26.062-70.552-26.296-70.874
		l1.858-1.365c0.239,0.325,23.946,33.029,26.734,72.075c2.247,31.454,27.807,55.097,28.064,55.333L314.895,242.744z"/>
	<path fill="#1D1D1B" d="M336.126,239.261c-0.075-0.183-7.831-18.515-25.161-38.105c-11.863-13.413-16.24-53.509-16.42-55.21
		l2.292-0.243c0.042,0.409,4.479,41.063,15.856,53.923c17.6,19.896,25.482,38.562,25.562,38.748L336.126,239.261z"/>
	<path fill="#1D1D1B" d="M484.434,229.212c-9.272-25.963-38.32-28.055-69.071-30.265c-18.464-1.332-37.555-2.706-51.788-9.821
		c-37.098-18.55-37.524-59.035-37.524-59.441l2.304-0.001c0,0.393,0.456,39.48,36.25,57.38c13.825,6.911,32.684,8.27,50.923,9.581
		c30.138,2.17,61.298,4.412,71.078,31.794L484.434,229.212z"/>
	<path fill="#1D1D1B" d="M341.161,182.906l-11.528-7.686c-11.794-7.863-17.913-39.37-18.167-40.708l2.264-0.432
		c0.062,0.318,6.189,31.893,17.182,39.221l11.529,7.687L341.161,182.906z"/>
	<path fill="#1D1D1B" d="M300.183,151.173c-4.131-4.96-2.62-14.364-2.557-14.761l2.275,0.378c-0.017,0.087-1.401,8.761,2.056,12.907
		L300.183,151.173z"/>
	<path fill="#1D1D1B" d="M471.307,245.848c-2.171-21.697-38.065-26.854-64.275-30.617c-9.927-1.428-18.498-2.657-24.096-4.524
		c-20.845-6.948-33.087-22.779-33.598-23.449l1.833-1.398c0.121,0.158,12.346,15.942,32.493,22.662
		c5.399,1.798,13.879,3.016,23.692,4.427c26.965,3.872,63.89,9.177,66.241,32.672L471.307,245.848z"/>
	<path fill="#1D1D1B" d="M444.574,254.025c-0.122-0.195-12.584-19.658-51.496-27.142c-40.128-7.714-55.275-45.675-55.425-46.059
		l2.151-0.835c0.144,0.372,14.859,37.16,53.705,44.628c40.004,7.695,52.514,27.364,53.024,28.196L444.574,254.025z"/>
	<path fill="#1D1D1B" d="M377.65,243.924c-5.095-10.698-14.947-16.106-24.474-21.335c-4.429-2.433-8.611-4.727-12.087-7.457
		c-10.933-8.59-21.476-46.636-21.916-48.252l2.221-0.609c0.108,0.388,10.783,38.928,21.121,47.05
		c3.326,2.613,7.429,4.865,11.769,7.248c9.389,5.151,20.033,10.993,25.448,22.367L377.65,243.924z"/>
	<path fill="#1D1D1B" d="M211.296,282.558l-1.829-1.406c0.667-0.865,67.619-86.39,155.004-55.718
		c85.46,29.983,107.532-29.784,108.431-32.341l2.177,0.761c-0.328,0.935-8.274,23.003-33.044,34.924
		c-20.985,10.099-47.337,9.705-78.327-1.168C277.878,197.487,211.952,281.703,211.296,282.558z"/>
	<path fill="#1D1D1B" d="M189.385,241.382l-1.044-2.056c0.263-0.134,26.635-13.425,61.595-23.332
		c32.33-9.159,78.847-17.223,116.848-3.625c25.226,9.028,45.09,9.182,59.032,0.462c16.305-10.197,18.57-29.282,18.593-29.476
		l2.293,0.252c-0.093,0.827-2.42,20.393-19.662,31.179c-14.576,9.11-35.11,9.029-61.031-0.246
		C294.297,188.879,190.427,240.853,189.385,241.382z"/>
	<path fill="#1D1D1B" d="M387.868,207.773c-5.09,0-10.818-0.946-17.248-3.224c-38.867-13.768-89.253-16.588-124.776-16.5
		c-38.463,0.079-68.083,3.462-68.376,3.492l-0.266-2.286c0.295-0.037,30.043-3.431,68.637-3.511
		c35.654-0.053,86.374,2.755,125.552,16.633c35.398,12.541,47.989-16.558,48.506-17.801l2.129,0.883
		C421.916,185.73,412.433,207.77,387.868,207.773z"/>
	<path fill="#1D1D1B" d="M371.749,197.551c-4.978,0-10.511-1.262-16.557-3.783c-66.757-36.404-198.919-48.217-200.244-48.332
		l0.198-2.296c1.334,0.115,133.975,11.971,201.042,48.552c9.519,3.958,17.684,4.624,24.154,1.928
		c7.034-2.936,9.552-8.97,9.576-9.031l2.142,0.857c-0.114,0.285-2.857,6.951-10.78,10.281
		C378.385,196.943,375.2,197.551,371.749,197.551z"/>
	<path fill="#1D1D1B" d="M302.587,154.353c-67.938-63.414-180.029-44.482-181.155-44.284l-0.401-2.27
		c1.131-0.203,114.335-19.339,183.133,44.867L302.587,154.353z"/>
	<path fill="#1D1D1B" d="M83.615,108.985l-1.622-1.639c0.65-0.644,66.026-63.926,141.224-24.024l-1.08,2.038
		C148.42,46.244,84.255,108.354,83.615,108.985z"/>
	<path fill="#1D1D1B" d="M299.759,150.797l-0.452-2.261c18.853-3.771,40.26-13.65,40.472-13.75l0.974,2.092
		C340.535,136.98,318.886,146.972,299.759,150.797z"/>
	<path fill="#1D1D1B" d="M314.651,162.995l-1.03-2.063c13.694-6.847,30.611-14.543,30.778-14.619l0.956,2.099
		C345.185,148.487,328.305,156.167,314.651,162.995z"/>
	
		<rect x="338.732" y="154.043" transform="matrix(-0.5059 -0.8626 0.8626 -0.5059 367.8008 544.6088)" fill="#1D1D1B" width="2.305" height="25.836"/>
	<path fill="#1D1D1B" d="M347.313,184.973l-1.803-1.44c6.314-7.89,17.799-11.025,18.284-11.155l0.595,2.228
		C364.275,174.635,353.145,177.683,347.313,184.973z"/>
	<path fill="#1D1D1B" d="M47.833,140.829c0,0,39.58-63.406,88.383-20.367C88.567,127.764,59.747,137.37,47.833,140.829z"/>
</g>
</svg>
