<?xml version="1.0" encoding="utf-8"?>
<!-- Generator: Adobe Illustrator 16.0.0, SVG Export Plug-In . SVG Version: 6.00 Build 0)  -->
<!DOCTYPE svg PUBLIC "-//W3C//DTD SVG 1.1//EN" "http://www.w3.org/Graphics/SVG/1.1/DTD/svg11.dtd">
<svg version="1.1" id="Layer_1" xmlns="http://www.w3.org/2000/svg" xmlns:xlink="http://www.w3.org/1999/xlink" x="0px" y="0px"
	 width="192.76px" height="113.39px" viewBox="0 0 192.76 113.39" enable-background="new 0 0 192.76 113.39" xml:space="preserve">
<g>
	<path fill="none" stroke="#000000" stroke-miterlimit="10" d="M1.873,38.048c0,0,23-31.5,45,3.5s6,52,36.5,69.5
		c8-15.5,24-35.5,67.5-24s41.5-15.5,41.5-15.5s-4.5-15.5-34-12s-32-27.5-32-27.5s-14,9-22,6.5
		C96.373,36.048,32.873-41.452,1.873,38.048z"/>
	<path fill="none" stroke="#000000" stroke-miterlimit="10" d="M102.123,37.298c0,0,18.75,18.75,32.75,24.25"/>
	<path fill="none" stroke="#000000" stroke-miterlimit="10" d="M0.373,41.048c0,0,33.667-12.667,40.333-7.667"/>
	<path fill="none" stroke="#000000" stroke-miterlimit="10" d="M16.373,12.548c0,0,38.329-15.493,55,50c7,27.5,18,37.5,18,37.5"/>
	<path fill="none" stroke="#000000" stroke-miterlimit="10" d="M38.373,2.548c0,0,38,10.5,45.5,50.5c5.975,31.867,15,38,15,38"/>
	<path fill="none" stroke="#000000" stroke-miterlimit="10" d="M69.873,12.048c0,0,20.679,18.227,24.5,41.5
		c5.5,33.5,13.5,32.5,13.5,32.5"/>
	<path fill="none" stroke="#000000" stroke-miterlimit="10" d="M92.873,29.048c0,0,10.288,14.014,11.5,31
		c1,14,12.334,24.334,12.334,24.334"/>
	<path fill="none" stroke="#000000" stroke-miterlimit="10" d="M108.039,42.714c0,0,1.9,17.904,7,23.668
		c7.668,8.666,11,16.666,11,16.666"/>
	<path fill="none" stroke="#000000" stroke-miterlimit="10" d="M121.707,35.714c0,0,0,17.333,16,25.333s45.998-1,52.666,17.666"/>
	<path fill="none" stroke="#000000" stroke-miterlimit="10" d="M115.373,37.714c0,0,2.666,14,7.666,17.334s5,3.334,5,3.334"/>
	<path fill="none" stroke="#000000" stroke-miterlimit="10" d="M109.373,38.714c0,0-0.666,4,1,6"/>
	<path fill="none" stroke="#000000" stroke-miterlimit="10" d="M131.707,60.382c0,0,5.332,7,14.332,10s37.332,2.332,38.666,15.666"
		/>
	<path fill="none" stroke="#000000" stroke-miterlimit="10" d="M126.707,57.714c0,0,6.332,16.334,23.666,19.668
		c17.334,3.332,22.666,12,22.666,12"/>
	<path fill="none" stroke="#000000" stroke-miterlimit="10" d="M118.707,51.714c0,0,4.666,17.001,9.332,20.668
		c4.668,3.666,12.666,5.666,16,12.666"/>
	<path fill="none" stroke="#000000" stroke-miterlimit="10" d="M71.039,101.714c0,0,28.668-37.333,66.668-24
		c37.998,13.334,47.666-14.332,47.666-14.332"/>
	<path fill="none" stroke="#000000" stroke-miterlimit="10" d="M61.706,83.714c0,0,45.333-23,77.001-11.666
		c31.666,11.334,34.332-13,34.332-13"/>
	<path fill="none" stroke="#000000" stroke-miterlimit="10" d="M56.706,62.048c0,0,51.235-5.938,84.001,5.666
		c16,5.668,21.666-8,21.666-8"/>
	<path fill="none" stroke="#000000" stroke-miterlimit="10" d="M47.039,42.048c0,0,57.668,5,87,21c12,5,15.334-3.334,15.334-3.334"
		/>
	<path fill="none" stroke="#000000" stroke-miterlimit="10" d="M111.373,46.048c-30-28-79-19.333-79-19.333"/>
	<path fill="none" stroke="#000000" stroke-miterlimit="10" d="M15.706,26.381c0,0,28-27.667,60.667-10.333"/>
	<path fill="none" stroke="#000000" stroke-miterlimit="10" d="M127.373,38.382c0,0-9.334,4.333-17.666,6"/>
	<path fill="none" stroke="#000000" stroke-miterlimit="10" d="M129.373,43.382c0,0-7.334,3.332-13.334,6.332"/>
	<line fill="none" stroke="#000000" stroke-miterlimit="10" x1="132.039" y1="49.048" x2="122.373" y2="54.714"/>
	<path fill="none" stroke="#000000" stroke-miterlimit="10" d="M137.707,54.714c0,0-5.002,1.334-7.668,4.668"/>
	<path d="M0.538,40.548c0,0,17.167-27.5,38.333-8.833C18.205,34.881,5.705,39.048,0.538,40.548z"/>
</g>
</svg>
