<?xml version="1.0" encoding="utf-8"?>
<!-- Generator: Adobe Illustrator 16.0.0, SVG Export Plug-In . SVG Version: 6.00 Build 0)  -->
<!DOCTYPE svg PUBLIC "-//W3C//DTD SVG 1.1//EN" "http://www.w3.org/Graphics/SVG/1.1/DTD/svg11.dtd">
<svg version="1.1" id="Layer_1" xmlns="http://www.w3.org/2000/svg" xmlns:xlink="http://www.w3.org/1999/xlink" x="0px" y="0px"
	 width="423px" height="370px" viewBox="0 0 423 370" enable-background="new 0 0 423 370" xml:space="preserve">
<path id="_x3C_Path_x3E_" fill="#353335" d="M342.439,278.089h-89.937v-20.762h89.937l0,0c32.482-0.008,58.812-23.296,58.812-55.118
	c0-31.835-26.329-59.054-58.819-59.054c-16.353,0-31.13,6.911-41.783,17.807c0.173-2.439,0.284-4.904,0.284-7.401
	c0-57.314-42.71-107.232-100.309-107.232c-48.481,0-91.315,35.383-103.657,80.755c-3.971-0.771-8.034-1.22-12.18-1.22
	c-36.29,0-64.02,31.04-64.02,67.338c0,36.306,31.105,64.122,67.389,64.122c0.612,0,1.189-0.087,1.789-0.095v0.095h79.554v20.762
	H89.935C42.094,278.089,0,242.768,0,195.067c0-46.514,36.928-87.983,83.014-89.941c19.449-46.402,64.498-79.543,117.601-79.543
	c60.93,0,108.873,43.975,120.824,101.092c6.577-1.776,13.871-4.241,21-4.241c44.152,0,79.564,36.566,79.564,79.552
	C421.99,244.977,386.591,278.089,342.439,278.089z"/>
<polygon fill="#353335" points="193.702,208.897 228.295,208.897 228.295,312.681 252.502,312.681 210.995,357.637 169.485,312.681 
	193.702,312.681 "/>
</svg>
