<?xml version="1.0" encoding="utf-8"?>
<!-- Generator: Adobe Illustrator 16.0.0, SVG Export Plug-In . SVG Version: 6.00 Build 0)  -->
<!DOCTYPE svg PUBLIC "-//W3C//DTD SVG 1.1//EN" "http://www.w3.org/Graphics/SVG/1.1/DTD/svg11.dtd">
<svg version="1.1" id="Layer_1" xmlns="http://www.w3.org/2000/svg" xmlns:xlink="http://www.w3.org/1999/xlink" x="0px" y="0px"
	 width="130.39px" height="138.9px" viewBox="0 0 130.39 138.9" enable-background="new 0 0 130.39 138.9" xml:space="preserve">
<polygon points="52.107,101.045 71.798,101.045 71.798,118.816 81.942,118.816 61.654,136.719 41.665,118.519 52.107,118.519 "/>
<g>
	<polygon fill="#FFFFFF" stroke="#000000" stroke-miterlimit="10" points="-0.006,33.421 25.808,95.355 64.282,79.32 70.941,63.145 
		49.888,12.627 	"/>
	<path d="M61.439,68.563c0,0,3.597,5.994,2.631,10.813c-0.467,2.331,6.917-16.057,6.917-16.057S66.271,66.549,61.439,68.563z"/>
	<line fill="none" stroke="#000000" stroke-width="2" stroke-miterlimit="10" x1="15.063" y1="44.03" x2="47.596" y2="30.472"/>
	<line fill="none" stroke="#000000" stroke-width="2" stroke-miterlimit="10" x1="18.389" y1="52.006" x2="50.919" y2="38.448"/>
	<line fill="none" stroke="#000000" stroke-width="2" stroke-miterlimit="10" x1="21.712" y1="59.982" x2="54.243" y2="46.424"/>
	<line fill="none" stroke="#000000" stroke-width="2" stroke-miterlimit="10" x1="25.037" y1="67.958" x2="57.568" y2="54.4"/>
</g>
<g>
	<polygon fill="#FFFFFF" stroke="#000000" stroke-miterlimit="10" points="58.384,2.286 32.842,64.333 71.386,80.199 87.533,73.471 
		108.365,22.862 	"/>
	<path d="M76.982,70.582c0,0-1.695,6.781-5.785,9.504c-1.979,1.319,16.244-6.461,16.244-6.461S81.822,72.574,76.982,70.582z"/>
	<line fill="none" stroke="#000000" stroke-width="2" stroke-miterlimit="10" x1="61.537" y1="20.442" x2="94.128" y2="33.858"/>
	<line fill="none" stroke="#000000" stroke-width="2" stroke-miterlimit="10" x1="58.248" y1="28.433" x2="90.839" y2="41.849"/>
	<line fill="none" stroke="#000000" stroke-width="2" stroke-miterlimit="10" x1="54.958" y1="36.423" x2="87.548" y2="49.84"/>
	<line fill="none" stroke="#000000" stroke-width="2" stroke-miterlimit="10" x1="51.669" y1="44.415" x2="84.259" y2="57.831"/>
</g>
<g>
	<polygon fill="#FFFFFF" stroke="#000000" stroke-miterlimit="10" points="108.652,23.615 46.719,49.427 62.752,87.901 
		78.928,94.561 129.446,73.507 	"/>
	<path d="M73.51,85.059c0,0-5.993,3.597-10.811,2.631c-2.332-0.467,16.055,6.918,16.055,6.918S75.523,89.889,73.51,85.059z"/>
	<line fill="none" stroke="#000000" stroke-width="2" stroke-miterlimit="10" x1="98.044" y1="38.683" x2="111.603" y2="71.215"/>
	<line fill="none" stroke="#000000" stroke-width="2" stroke-miterlimit="10" x1="90.068" y1="42.007" x2="103.626" y2="74.539"/>
	<line fill="none" stroke="#000000" stroke-width="2" stroke-miterlimit="10" x1="82.091" y1="45.332" x2="95.649" y2="77.863"/>
	<line fill="none" stroke="#000000" stroke-width="2" stroke-miterlimit="10" x1="74.114" y1="48.655" x2="87.674" y2="81.188"/>
</g>
</svg>
