<?xml version="1.0" encoding="utf-8"?>
<!-- Generator: Adobe Illustrator 16.0.0, SVG Export Plug-In . SVG Version: 6.00 Build 0)  -->
<!DOCTYPE svg PUBLIC "-//W3C//DTD SVG 1.1//EN" "http://www.w3.org/Graphics/SVG/1.1/DTD/svg11.dtd">
<svg version="1.1" id="Layer_1" xmlns="http://www.w3.org/2000/svg" xmlns:xlink="http://www.w3.org/1999/xlink" x="0px" y="0px"
	 width="130.39px" height="136.06px" viewBox="0 0 130.39 136.06" enable-background="new 0 0 130.39 136.06" xml:space="preserve">
<polygon points="52.107,100.045 71.798,100.045 71.798,117.816 81.942,117.816 61.654,135.719 41.665,117.519 52.107,117.519 "/>
<g>
	<polygon fill="#FFFFFF" stroke="#000000" stroke-miterlimit="10" points="-0.006,32.421 25.808,94.355 64.282,78.32 70.941,62.145 
		49.888,11.627 	"/>
	<path d="M61.439,67.563c0,0,3.597,5.994,2.631,10.813c-0.467,2.331,6.917-16.057,6.917-16.057S66.271,65.549,61.439,67.563z"/>
	<line fill="none" stroke="#000000" stroke-width="2" stroke-miterlimit="10" x1="15.063" y1="43.03" x2="47.596" y2="29.472"/>
	<line fill="none" stroke="#000000" stroke-width="2" stroke-miterlimit="10" x1="18.389" y1="51.006" x2="50.919" y2="37.448"/>
	<line fill="none" stroke="#000000" stroke-width="2" stroke-miterlimit="10" x1="21.712" y1="58.982" x2="54.243" y2="45.424"/>
	<line fill="none" stroke="#000000" stroke-width="2" stroke-miterlimit="10" x1="25.037" y1="66.958" x2="57.568" y2="53.4"/>
</g>
<g>
	<polygon fill="#FFFFFF" stroke="#000000" stroke-miterlimit="10" points="58.384,1.286 32.842,63.333 71.386,79.199 87.533,72.471 
		108.365,21.862 	"/>
	<path d="M76.982,69.582c0,0-1.695,6.781-5.785,9.504c-1.979,1.319,16.244-6.461,16.244-6.461S81.822,71.574,76.982,69.582z"/>
	<line fill="none" stroke="#000000" stroke-width="2" stroke-miterlimit="10" x1="61.537" y1="19.442" x2="94.128" y2="32.858"/>
	<line fill="none" stroke="#000000" stroke-width="2" stroke-miterlimit="10" x1="58.248" y1="27.433" x2="90.839" y2="40.849"/>
	<line fill="none" stroke="#000000" stroke-width="2" stroke-miterlimit="10" x1="54.958" y1="35.423" x2="87.548" y2="48.84"/>
	<line fill="none" stroke="#000000" stroke-width="2" stroke-miterlimit="10" x1="51.669" y1="43.415" x2="84.259" y2="56.831"/>
</g>
<g>
	<polygon fill="#FFFFFF" stroke="#000000" stroke-miterlimit="10" points="108.652,22.615 46.719,48.427 62.752,86.901 
		78.928,93.561 129.446,72.507 	"/>
	<path d="M73.51,84.059c0,0-5.993,3.597-10.811,2.631c-2.332-0.467,16.055,6.918,16.055,6.918S75.523,88.889,73.51,84.059z"/>
	<line fill="none" stroke="#000000" stroke-width="2" stroke-miterlimit="10" x1="98.044" y1="37.683" x2="111.603" y2="70.215"/>
	<line fill="none" stroke="#000000" stroke-width="2" stroke-miterlimit="10" x1="90.068" y1="41.007" x2="103.626" y2="73.539"/>
	<line fill="none" stroke="#000000" stroke-width="2" stroke-miterlimit="10" x1="82.091" y1="44.332" x2="95.649" y2="76.863"/>
	<line fill="none" stroke="#000000" stroke-width="2" stroke-miterlimit="10" x1="74.114" y1="47.655" x2="87.674" y2="80.188"/>
</g>
</svg>
