<?xml version="1.0" encoding="utf-8"?>
<!-- Generator: Adobe Illustrator 16.0.0, SVG Export Plug-In . SVG Version: 6.00 Build 0)  -->
<!DOCTYPE svg PUBLIC "-//W3C//DTD SVG 1.1//EN" "http://www.w3.org/Graphics/SVG/1.1/DTD/svg11.dtd">
<svg version="1.1" id="Layer_1" xmlns="http://www.w3.org/2000/svg" xmlns:xlink="http://www.w3.org/1999/xlink" x="0px" y="0px"
	 width="170.08px" height="121.89px" viewBox="0 0 170.08 121.89" enable-background="new 0 0 170.08 121.89" xml:space="preserve">
<g>
	<g>
		<polyline fill-rule="evenodd" clip-rule="evenodd" fill="none" stroke="#000000" stroke-miterlimit="10" points="69.133,1.324 
			69.133,31.481 101.595,31.481 101.595,1.324 		"/>
		<polyline fill-rule="evenodd" clip-rule="evenodd" fill="none" stroke="#000000" stroke-miterlimit="10" points="71.401,31.3 
			85.363,47.353 99.327,31.3 		"/>
		<path fill-rule="evenodd" clip-rule="evenodd" d="M71.401,31.3c0,0,2.85,3.769,13.962,3.769c11.113,0,13.964-3.769,13.964-3.769"
			/>
	</g>
	<line fill="none" stroke="#000000" stroke-miterlimit="10" x1="85.23" y1="49.641" x2="85.23" y2="102.285"/>
	<line fill="none" stroke="#000000" stroke-miterlimit="10" x1="88.306" y1="100.748" x2="92.147" y2="88.836"/>
	<line fill="none" stroke="#000000" stroke-miterlimit="10" x1="91.763" y1="100.364" x2="95.222" y2="96.906"/>
	<line fill="none" stroke="#000000" stroke-miterlimit="10" x1="81.388" y1="100.748" x2="77.545" y2="88.836"/>
	<line fill="none" stroke="#000000" stroke-miterlimit="10" x1="77.929" y1="100.364" x2="74.472" y2="96.906"/>
	<polygon fill="none" stroke="#000000" stroke-miterlimit="10" points="84.366,103.631 7.418,103.631 0.5,121.498 80.907,121.498 	
		"/>
	<polygon fill="none" stroke="#000000" stroke-miterlimit="10" points="86.383,103.631 163.332,103.631 170.249,121.498 
		89.842,121.498 	"/>
</g>
</svg>
