<?xml version="1.0" encoding="utf-8"?>
<!-- Generator: Adobe Illustrator 16.0.4, SVG Export Plug-In . SVG Version: 6.00 Build 0)  -->
<!DOCTYPE svg PUBLIC "-//W3C//DTD SVG 1.1//EN" "http://www.w3.org/Graphics/SVG/1.1/DTD/svg11.dtd">
<svg version="1.1" id="Layer_1" xmlns="http://www.w3.org/2000/svg" xmlns:xlink="http://www.w3.org/1999/xlink" x="0px" y="0px"
	 width="423px" height="370px" viewBox="0 0 423 370" enable-background="new 0 0 423 370" xml:space="preserve">
<g>
	<g>
		<polygon points="249.557,114.11 171.142,114.11 171.142,42.268 173.486,42.268 173.486,111.766 247.213,111.766 247.213,42.268 
			249.557,42.268 		"/>
		<polygon points="210.348,151.915 176.747,113.282 178.513,111.745 210.348,148.345 242.188,111.745 243.954,113.282 		"/>
		<path fill-rule="evenodd" clip-rule="evenodd" d="M177.63,112.514c0,0,6.678,8.832,32.718,8.832
			c26.043,0,32.722-8.832,32.722-8.832"/>
	</g>
	<rect x="208.865" y="155.493" width="2.344" height="123.366"/>
	<rect x="220.574" y="246.637" transform="matrix(0.9517 0.307 -0.307 0.9517 90.9122 -55.451)" width="2.342" height="29.328"/>
	
		<rect x="228.226" y="264.575" transform="matrix(0.7075 0.7067 -0.7067 0.7075 258.1159 -83.0553)" width="2.344" height="11.462"/>
	<rect x="181.865" y="260.13" transform="matrix(0.307 0.9517 -0.9517 0.307 384.8668 -5.9654)" width="29.33" height="2.342"/>
	<rect x="183.147" y="269.134" transform="matrix(0.707 0.7072 -0.7072 0.707 246.4847 -54.3794)" width="11.458" height="2.343"/>
	<path d="M200.872,325.054H9.771l17.118-44.214h182.545L200.872,325.054z M13.19,322.711h185.75l7.651-39.527H28.495L13.19,322.711z
		"/>
	<path d="M410.979,325.054H219.878l-8.562-44.214h182.546L410.979,325.054z M221.81,322.711h185.75l-15.303-39.527H214.158
		L221.81,322.711z"/>
</g>
</svg>
