<?xml version="1.0" encoding="utf-8"?>
<!-- Generator: Adobe Illustrator 16.0.0, SVG Export Plug-In . SVG Version: 6.00 Build 0)  -->
<!DOCTYPE svg PUBLIC "-//W3C//DTD SVG 1.1//EN" "http://www.w3.org/Graphics/SVG/1.1/DTD/svg11.dtd">
<svg version="1.1" id="Layer_1" xmlns="http://www.w3.org/2000/svg" xmlns:xlink="http://www.w3.org/1999/xlink" x="0px" y="0px"
	 width="423px" height="370px" viewBox="0 0 423 370" enable-background="new 0 0 423 370" xml:space="preserve">
<path fill="#363436" d="M183.736,189.829l-0.749-0.364l-76.248-36.864c-5.061,8.903-12.196,25.247-17.327,52.482
	c4.697,47.391,203.467,47.391,212.856,16.685c-1.131-17.64-4.426-35.427-7.559-49.152l-110.155,17.09L183.736,189.829z"/>
<path fill="#363436" d="M198.165,124.331c5.159,0,9.348,1.343,9.348,3.001s-4.189,3.001-9.348,3.001
	c-5.162,0-9.346-1.343-9.346-3.001S193.003,124.331,198.165,124.331z"/>
<g>
	<path fill="#363436" d="M410.655,149.569L211.763,76.441l-0.578-0.213l-0.626,0.068L5.009,97.941l-9.324,0.977l8.434,4.084
		l65.264,31.544l-0.017-1.489c-0.031-2.154,1.656-3.948,3.814-4.055l111.44-5.335c1.812-0.094,3.334,1.006,3.926,2.583
		c2.765-3.696,19.629-3.346,19.629,1.086c0,2.41-5.039,3.669-10.01,3.669c-4.007,0-8.053-0.826-9.471-2.403
		c-0.41,1.687-1.871,2.979-3.689,3.071l-107.582,5.148l0.024,1.628l29.279,14.146c0.467-0.83,0.929-1.597,1.358-2.305l76.055,36.763
		l109.971-17.059c0.2,0.858,0.402,1.733,0.6,2.612l115.424-17.901l10.195-1.58L410.655,149.569z"/>
	<path fill="#363436" d="M69.689,155.729c-0.736-0.834-1.801-1.369-2.993-1.369c-0.011,0-0.024,0-0.037,0
		c-2.206,0.017-3.994,1.831-3.965,4.037l1.336,166.166c0.013,2.195,1.803,3.983,4.002,3.983c0.009,0,0.018,0,0.031,0
		c2.213-0.031,3.994-1.832,3.972-4.035l-0.094-11.94l0.094,6.687c0.031,2.19,1.821,3.947,4.007,3.947c0.013,0,0.035,0,0.052,0
		c0.206-0.013,0.403-0.039,0.596-0.074l0.011,3.418c0.009,2.199,1.803,3.996,4,3.996c0.004,0,0.008,0,0.016,0
		c2.214-0.009,4-1.806,3.991-4.023l-0.664-168.84c-0.008-2.208-1.798-3.998-4.002-3.998c-0.004,0-0.009,0-0.021,0
		c-0.879,0.009-1.683,0.3-2.342,0.789l-0.228-16.026l-8.068-3.9L69.689,155.729z"/>
	<path fill="#363436" d="M188.69,128.599c0.09-0.364,0.143-0.736,0.121-1.127c-0.018-0.435-0.121-0.845-0.274-1.231
		c-0.248,0.333-0.394,0.692-0.394,1.087C188.151,127.799,188.344,128.218,188.69,128.599z"/>
</g>
</svg>
