<?xml version="1.0" encoding="utf-8"?>
<!-- Generator: Adobe Illustrator 16.0.4, SVG Export Plug-In . SVG Version: 6.00 Build 0)  -->
<!DOCTYPE svg PUBLIC "-//W3C//DTD SVG 1.1//EN" "http://www.w3.org/Graphics/SVG/1.1/DTD/svg11.dtd">
<svg version="1.1" id="Layer_1" xmlns="http://www.w3.org/2000/svg" xmlns:xlink="http://www.w3.org/1999/xlink" x="0px" y="0px"
	 width="423px" height="370px" viewBox="0 0 423 370" enable-background="new 0 0 423 370" xml:space="preserve">
<g>
	<g>
		<g>
			<path d="M226.102,352.327C180.79,352.329,89.905,334.501,84.366,322c-0.598-1.35-0.357-2.722,0.679-3.866
				c3.71-4.09,7.746-8.3,12.018-12.76c16.337-17.047,34.854-36.369,41.621-56.207c5.719-16.766,3.496-32.587-6.609-47.024
				c-8.883-12.69-15.192-24.645-19.286-36.549c-13.227-38.458-9.259-76.704,10.884-104.932
				c19.338-27.101,52.076-42.643,89.822-42.643c5.345,0,10.851,0.307,16.362,0.911c18.143,1.987,33.298,6.08,46.335,12.512
				c6.093,3.006,10.873,6.51,14.616,10.711c2.362,2.65,3.035,5.642,2.056,9.143c-0.08,0.293-0.152,0.591-0.224,0.888
				c-0.154,0.637-0.312,1.273-0.545,1.879c-0.543,1.407-0.306,2.515,0.877,4.086c6.926,9.194,10.134,20.052,12.153,28.483
				c0.682,2.852,1.181,5.779,1.661,8.61c0.396,2.331,0.811,4.741,1.315,7.075c0.572,2.628,1.617,5.204,2.465,7.154
				c0.635,1.462,1.405,2.916,2.151,4.321c0.576,1.083,1.15,2.166,1.68,3.271c1.059,2.22,0.919,4.481-0.405,6.539
				c-3.816,5.934-3.457,11.766,1.132,18.354c6.765,9.717,13.369,19.778,19.757,29.508l0.85,1.297
				c1.218,1.853,1.625,3.481,1.245,4.975c-0.649,2.545-3.437,4.036-6.388,5.613c-5.748,3.074-11.692,6.252-6.355,17.182
				c1.117,2.296,0.616,4.222-1.487,5.724c-1.18,0.842-2.329,1.721-3.615,2.704l-0.385,0.293c2.085,1.411,3.981,3.153,3.618,6.128
				c-0.146,1.209-0.79,2.795-1.896,3.607c-5.163,3.795-6.821,8.281-5.372,14.536c0.173,0.742,0.367,1.481,0.563,2.221
				c0.439,1.654,0.891,3.362,1.086,5.113c0.493,4.419-0.923,8.923-3.889,12.35c-2.97,3.432-7.051,5.399-11.5,5.546
				c-3.463,0.119-7.118,0.079-10.859,0.037c-1.928-0.021-3.878-0.042-5.842-0.042c-10.955,0-23.457,0.526-33.184,6.795
				c-5.874,3.786-9.533,9.154-11.513,16.899c-1.509,5.944-2.674,14.231-1.882,19.341c0.507,3.271,2.178,5.121,3.945,7.08
				c1.754,1.947,3.567,3.956,4.026,7.285c0.721,5.197,1.98,10.431,3.198,15.498c0.398,1.654,0.796,3.309,1.176,4.963
				c0.221,0.961,0.697,1.999,1.343,2.924c1.702,2.439,2.065,4.637,1.075,6.533C250.643,350.278,241.898,352.327,226.102,352.327z
				 M213.494,20.158c-37.045,0-69.151,15.216-88.081,41.747c-19.737,27.659-23.601,65.198-10.603,102.993
				c4.029,11.712,10.249,23.494,19.016,36.019c10.517,15.027,12.833,31.492,6.881,48.941c-6.918,20.284-25.609,39.788-42.1,56.997
				c-4.262,4.446-8.288,8.646-11.978,12.716c-0.479,0.526-0.567,0.979-0.309,1.562c4.694,10.594,93.526,29.058,139.781,29.056
				c19.297-0.002,23.848-3.202,24.842-5.108c0.6-1.151,0.295-2.563-0.934-4.322c-0.795-1.145-1.391-2.447-1.673-3.667
				c-0.378-1.65-0.774-3.296-1.169-4.944c-1.232-5.115-2.503-10.403-3.238-15.704c-0.369-2.678-1.818-4.282-3.496-6.146
				c-1.812-2.009-3.868-4.285-4.472-8.188c-0.896-5.776,0.475-14.488,1.922-20.197c2.124-8.298,6.071-14.068,12.425-18.167
				c10.218-6.583,23.086-7.135,34.346-7.135c1.97,0,3.929,0.021,5.865,0.042c3.714,0.04,7.333,0.079,10.765-0.033
				c3.846-0.13,7.38-1.836,9.953-4.811c2.577-2.979,3.812-6.882,3.381-10.713c-0.178-1.593-0.589-3.153-1.027-4.804
				c-0.2-0.76-0.401-1.521-0.579-2.284c-1.647-7.108,0.32-12.428,6.188-16.743c0.474-0.349,0.941-1.308,1.042-2.143
				c0.246-2.018-1.073-3.087-3.925-4.894l-1.303-0.825l2.817-2.144c1.308-0.998,2.475-1.892,3.672-2.744
				c1.253-0.898,1.466-1.694,0.806-3.045c-6.236-12.781,1.571-16.957,7.272-20.006c2.521-1.35,4.904-2.624,5.32-4.255
				c0.224-0.88-0.09-1.951-0.959-3.274l-0.85-1.297c-6.381-9.717-12.978-19.767-19.724-29.46c-5.075-7.289-5.459-14.07-1.174-20.733
				c0.928-1.441,1.016-2.9,0.271-4.46c-0.516-1.077-1.077-2.132-1.637-3.188c-0.765-1.442-1.559-2.935-2.227-4.473
				c-0.886-2.04-1.98-4.74-2.59-7.55c-0.519-2.382-0.935-4.816-1.335-7.171c-0.477-2.797-0.97-5.689-1.634-8.472
				c-1.974-8.229-5.094-18.815-11.782-27.695c-1.088-1.446-2.201-3.45-1.163-6.143c0.2-0.519,0.328-1.064,0.462-1.609
				c0.075-0.322,0.154-0.644,0.242-0.961c0.777-2.782,0.271-5.053-1.592-7.146c-3.559-3.991-8.125-7.333-13.965-10.216
				c-12.812-6.319-27.732-10.344-45.624-12.304C224.189,20.461,218.762,20.158,213.494,20.158z"/>
		</g>
	</g>
</g>
<path fill-rule="evenodd" clip-rule="evenodd" d="M196.655,114.079c-5.739-6.19-12.975-9.188-21.349-8.422
	c-11.548,1.054-23.146,10.221-23.43,25.483c-0.266,14.382,11.454,25.587,25.04,25.964c14.122,0.39,26.433-11.049,26.433-25.633
	C203.338,124.818,201.171,118.949,196.655,114.079z M177.763,143.394c-6.796-0.053-12.243-5.367-12.152-12.072
	c0.091-6.685,5.22-11.955,12.007-11.975c6.843-0.02,12.135,5.591,11.965,12.087C189.788,137.947,183.958,143.441,177.763,143.394z"
	/>
<path d="M222.123,128.219c-0.5-0.006-1.041-0.172-1.485-0.411c-1.742-0.932-2.778-2.361-2.782-4.398
	c-0.004-2.047,1.065-3.48,2.79-4.392c0.845-0.447,1.036-0.852,0.627-1.713c-0.501-1.055-1.073-2.14-1.245-3.268
	c-0.196-1.324-0.776-1.207-1.7-0.901c-1.838,0.604-3.408-0.135-4.607-1.382c-1.791-1.866-1.658-4.611,0.009-6.669
	c0.279-0.348,0.521-1.089,0.345-1.388c-0.62-1.032-1.429-1.949-2.167-2.905c-0.663-0.857-1.311-0.969-2.308-0.333
	c-2.509,1.603-5.749,0.456-7.003-2.241c-0.829-1.783-0.307-3.375,0.488-5.057c-1.533-0.866-2.945-1.722-4.419-2.454
	c-0.299-0.148-0.906,0.048-1.228,0.282c-0.587,0.426-0.988,1.131-1.602,1.494c-3.375,1.998-7.462-0.354-7.377-4.278
	c0.024-1.116-0.229-1.562-1.346-1.644c-1.039-0.075-2.088-0.249-3.086-0.539c-1.042-0.306-1.466,0.003-1.778,1.021
	c-1.082,3.538-5.553,4.596-8.072,1.881c-0.768-0.824-1.209-1.953-1.896-3.101c-1.661,0.295-3.527,0.626-5.501,0.978
	c0.5,2.824-0.486,4.974-2.967,6.006c-2.785,1.161-4.966-0.15-6.598-2.576c-1.761,1.048-3.412,2.028-5.05,3.002
	c1.159,2.163,0.929,4.83-0.207,6.233c-1.436,1.772-4.246,1.823-5.756,1.185c-1.96-0.828-1.956-0.856-3.403,0.774
	c-0.436,0.488-0.835,1.01-1.232,1.529c-0.567,0.74-0.797,1.369-0.013,2.247c3.012,3.367,0.401,7.424-2.621,8.066
	c-1.012,0.214-2.11,0.033-3.427,0.033c-0.396,1.004-0.939,2.323-1.436,3.662c-0.178,0.479-0.243,1-0.367,1.539
	c0.268,0.148,0.493,0.275,0.718,0.398c2.147,1.187,3.311,3.184,2.956,5.079c-0.488,2.595-1.885,3.904-4.69,4.271
	c-0.696,0.092-0.878,0.388-0.868,1.014c0.02,1.267,0.058,2.538-0.016,3.804c-0.054,0.969,0.167,1.345,1.267,1.409
	c2.863,0.168,4.882,3.296,4.141,6.077c-0.494,1.856-1.801,2.886-3.581,3.716c0.485,1.438,0.968,2.823,1.415,4.22
	c0.337,1.055,0.92,1.337,2.039,1.051c1.872-0.48,3.455,0.244,4.638,1.699c1.148,1.414,1.546,3.066,0.766,4.778
	c-0.417,0.918-1.114,1.71-1.756,2.669c0.966,1.156,1.98,2.35,2.973,3.562c0.517,0.625,0.925,0.811,1.719,0.215
	c1.421-1.075,3.1-1.183,4.71-0.433c2.843,1.322,3.623,4.083,2.05,7.526c1.671,0.978,3.363,1.969,4.996,2.928
	c0.24-0.218,0.32-0.264,0.366-0.335c1.786-2.722,4.021-2.881,5.707-2.44c2.413,0.627,3.558,2.541,3.609,5.528
	c0.003,0.26,0.26,0.697,0.47,0.745c1.724,0.387,3.466,0.704,5.173,1.036c0.967-3.091,2.568-4.704,4.826-4.718
	c2.691-0.016,4.387,1.393,5.147,3.985c0.077,0.268,0.578,0.633,0.826,0.594c1.738-0.268,3.461-0.631,5.086-0.94
	c0.06-0.377,0.089-0.462,0.085-0.548c-0.114-2.918,0.845-4.604,3.159-5.554c2.048-0.843,3.885-0.182,5.835,2.01
	c0.221,0.25,0.851,0.449,1.099,0.314c1.554-0.829,3.053-1.761,4.263-2.478c-0.262-1.463-0.748-2.625-0.618-3.715
	c0.447-3.757,4.551-5.53,7.747-3.483c0.3,0.189,0.943,0.345,1.082,0.194c1.23-1.33,2.383-2.732,3.538-4.084
	c-2.123-2.311-2.641-4.521-1.639-6.449c1.142-2.205,2.785-2.884,5.837-2.542c0.368,0.041,0.988-0.312,1.141-0.644
	c0.57-1.216,1.007-2.495,1.462-3.76c0.226-0.63,0.188-1.036-0.614-1.398c-2.155-0.973-3.271-3.225-2.865-5.355
	c0.413-2.159,2.17-3.738,4.578-3.995c0.756-0.082,0.967-0.419,0.965-1.085c-0.004-1.266,0.007-2.535,0.029-3.801
	C223.483,128.635,223.065,128.234,222.123,128.219z M206.068,132.885c-0.939,16.232-14.849,27.685-29.509,26.918
	c-16.51-0.524-28.671-14.865-27.352-30.615c1.37-16.329,14.838-26.786,29.288-26.287
	C195.601,103.491,206.922,118.141,206.068,132.885z"/>
<path fill-rule="evenodd" clip-rule="evenodd" d="M276.773,115.038c-2.081-0.508-3.697-2.67-3.659-4.733
	c0.035-2.18,1.574-4.234,3.682-4.688c0.807-0.171,0.938-0.56,0.779-1.17c-0.493-1.873-1.032-3.733-1.585-5.706
	c-2.567,1.116-4.598,0.47-6.102-1.5c-2.001-2.61-1.017-4.97,1.354-7.436c-1.396-1.215-2.746-2.33-4.019-3.521
	c-0.697-0.654-1.155-0.718-1.938-0.024c-2.537,2.248-6.315,1.473-7.615-1.647c-0.497-1.196-0.371-2.656-0.576-4.385
	c-1.726-0.458-3.83-1.015-5.919-1.572c-0.955,3.016-2.381,4.336-4.637,4.507c-2.582,0.194-3.708-0.625-5.23-3.732
	c-0.121-0.246-0.53-0.529-0.776-0.505c-2.07,0.203-4.053,0.731-5.895,1.672c0.785,2.779,0.222,4.69-1.696,6.065
	c-1.992,1.431-3.914,1.135-7.08-1.135c-0.464,0.402-0.976,0.799-1.431,1.252c-0.926,0.926-1.863,1.849-2.696,2.851
	c-0.188,0.227-0.13,0.979,0.09,1.169c1.746,1.514,1.818,4.584,0.651,6.263c-1.333,1.913-3.553,2.611-6.135,1.767
	c-0.89,1.925-1.506,3.936-1.646,6.068c-0.015,0.214,0.514,0.584,0.848,0.683c2.07,0.628,3.463,2.736,3.378,4.869
	c-0.095,2.289-1.185,3.749-3.29,4.452c-0.743,0.247-1.007,0.633-0.848,1.337c0.38,1.687,0.747,3.378,1.224,5.039
	c0.062,0.227,0.772,0.479,1.086,0.388c2.1-0.612,4.829,0.49,5.704,2.492c0.854,1.961,0.604,3.812-0.781,5.506
	c-0.259,0.321-0.503,1.073-0.345,1.253c1.324,1.475,2.749,2.862,4.187,4.319c2.025-2.06,4.147-2.795,6.57-1.514
	c2.235,1.181,2.837,3.006,2.237,6.572c1.886,0.5,3.793,1.051,5.727,1.467c0.266,0.058,0.863-0.477,0.984-0.844
	c0.641-1.976,2.181-3.289,4.273-3.49c1.988-0.192,3.847,0.805,4.758,2.588c0.292,0.568,0.503,1.178,0.835,1.977
	c2.127-0.588,4.234-1.171,6.354-1.756c-0.864-2.607-0.184-4.993,1.615-6.2c2.128-1.431,4.325-1.276,6.326,0.535
	c0.506,0.458,0.818,0.518,1.304,0.048c1.378-1.327,2.781-2.625,4.241-3.998c-2.137-2.07-3.06-4.335-1.572-6.758
	c1.324-2.16,3.183-3.08,6.533-2.084c0.451-1.664,0.898-3.323,1.345-4.985c0.071-0.251,0.159-0.5,0.211-0.756
	C277.738,115.371,277.411,115.192,276.773,115.038z M246.704,118.855c-5.621,0.311-9.099-2.955-9.27-8.812
	c-0.117-3.906,2.895-7.983,8.267-8.339c4.537-0.302,8.76,3.447,9.015,7.981C254.716,115.298,251.569,118.584,246.704,118.855z"/>
<path fill-rule="evenodd" clip-rule="evenodd" d="M259.092,54.715c-2.404,0.588-4.495,0.095-5.871-2.026
	c-1.533-2.365-0.785-4.562,1.198-6.821c-2.397-1.389-4.611-2.665-6.769-3.915c-0.297,0.354-0.378,0.414-0.403,0.488
	c-0.772,2.261-2.212,3.812-4.708,3.857c-2.439,0.042-4.106-1.174-4.875-3.564c-0.071-0.214-0.658-0.475-0.89-0.393
	c-2.306,0.833-4.407,2.024-6.249,3.748c0.169,0.221,0.294,0.393,0.426,0.559c1.496,1.878,1.742,3.967,0.689,5.826
	c-1.073,1.886-2.786,2.693-5.205,2.332c-0.894-0.133-1.124,0.333-1.141,1.002c-0.046,1.832-0.041,3.666-0.041,5.499
	c0,0.976,0.395,1.373,1.468,1.24c2.191-0.271,3.945,0.519,4.981,2.546c1.168,2.285,0.552,4.291-1.449,6.439
	c2.146,1.197,4.098,2.292,6.061,3.376c0.777,0.428,1.183,0.302,1.496-0.667c0.772-2.371,3.584-3.659,5.932-2.922
	c1.562,0.493,2.623,1.448,3.25,2.965c0.142,0.346,0.702,0.861,0.89,0.794c2.329-0.849,4.524-1.952,6.326-3.882
	c-1.798-1.893-2.48-3.998-1.079-6.315c1.365-2.263,3.529-2.785,6.02-2.241C259.754,59.917,259.925,57.355,259.092,54.715z
	 M242.334,63.669c-2.922,0.149-5.022-2.642-5.022-4.961c0-2.664,2.368-5.04,5.015-5.037c2.828,0.001,5.046,2.25,5.004,5.079
	C247.289,61.569,245.142,63.688,242.334,63.669z"/>
<path fill-rule="evenodd" clip-rule="evenodd" d="M229.93,78.9c-3.481-1.188-4.555-5.442-1.978-8.032
	c0.765-0.768,1.858-1.208,2.911-1.864c-0.284-0.784-0.558-1.607-0.881-2.411c-0.339-0.845-0.731-1.669-1.091-2.506
	c-0.354-0.839-0.735-1.234-1.767-0.7c-1.771,0.917-4.178,0.385-5.556-1.019c-1.438-1.463-1.83-3.814-0.803-5.686
	c0.405-0.744,0.148-1.068-0.43-1.329c-1.771-0.788-3.563-1.54-5.468-2.358c-0.856,2.64-2.238,4.426-5.112,4.457
	c-2.954,0.035-4.19-2.014-5.146-4.294c-2.278,0.779-4.477,1.308-6.192,2.843c1.296,2.255,1.306,4.062,0.044,5.722
	c-1.964,2.585-4.446,2.517-7.336,1.129c-0.875,2.151-1.713,4.205-2.564,6.299c0.454,0.177,0.612,0.24,0.77,0.303
	c2.404,0.973,3.829,2.696,3.693,4.869c-0.141,2.264-1.265,3.918-3.554,4.66c-0.271,0.089-0.608,0.784-0.512,1.059
	c0.663,1.903,1.434,3.771,2.224,5.785c2.411-1.623,4.581-1.619,6.489,0.114c2.137,1.941,2.263,4.287,0.587,6.903
	c1.92,0.794,3.669,1.533,5.432,2.235c0.744,0.295,1.246,0.032,1.486-0.767c0.415-1.385,1.373-2.335,2.66-2.877
	c2.671-1.125,5.293-0.007,6.453,2.678c0.278,0.642,0.47,1.389,1.456,0.989c1.788-0.727,3.575-1.452,5.336-2.165
	c-1.161-3.871-1.029-5.418,0.65-6.909c2.003-1.779,4.193-1.856,6.644-0.208c0.774-1.987,1.449-3.815,2.203-5.606
	C230.904,79.437,230.684,79.157,229.93,78.9z M217.914,74.354c0.176,4.313-3.707,8.129-8.159,8.141
	c-4.494,0.009-8.209-3.8-8.182-8.293c0.025-4.505,3.697-8.065,8.208-8.109C214.34,66.045,218.19,70.057,217.914,74.354z"/>
</svg>
