<?xml version="1.0" encoding="utf-8"?>
<!-- Generator: Adobe Illustrator 16.0.0, SVG Export Plug-In . SVG Version: 6.00 Build 0)  -->
<!DOCTYPE svg PUBLIC "-//W3C//DTD SVG 1.1//EN" "http://www.w3.org/Graphics/SVG/1.1/DTD/svg11.dtd">
<svg version="1.1" id="Layer_1" xmlns="http://www.w3.org/2000/svg" xmlns:xlink="http://www.w3.org/1999/xlink" x="0px" y="0px"
	 width="119.06px" height="155.91px" viewBox="0 0 119.06 155.91" enable-background="new 0 0 119.06 155.91" xml:space="preserve">
<g>
	<g>
		<g>
			<path fill-rule="evenodd" clip-rule="evenodd" fill="none" stroke="#000000" stroke-miterlimit="10" d="M110.283,88.465
				c1.252,0.793,2.225,1.457,2.064,2.771c-0.058,0.477-0.318,1.074-0.688,1.344c-2.544,1.871-3.43,4.173-2.701,7.313
				c0.261,1.124,0.633,2.234,0.762,3.371c0.444,3.983-2.644,7.68-6.716,7.813c-7.507,0.247-16.901-1.05-23.579,3.253
				c-3.047,1.965-4.707,4.723-5.596,8.197c-0.658,2.598-1.294,6.637-0.89,9.244c0.507,3.269,3.328,3.826,3.728,6.709
				c0.447,3.236,1.318,6.418,2.053,9.611c0.124,0.54,0.386,1.082,0.704,1.539c9.39,13.454-83.819-2.623-77.17-9.955
				c8.466-9.334,21.161-20.631,25.182-32.42c2.732-8.01,1.684-15.523-3.154-22.436c-3.703-5.289-6.848-10.84-8.954-16.964
				C1.794,28.504,27.835-4.627,69.537-0.058c7.439,0.815,14.717,2.456,21.498,5.801c2.507,1.237,4.797,2.777,6.682,4.893
				c1.021,1.146,1.25,2.385,0.854,3.808c-0.117,0.416-0.19,0.847-0.346,1.248c-0.351,0.91-0.1,1.624,0.477,2.391
				c2.945,3.91,4.475,8.45,5.597,13.134c0.576,2.413,0.862,4.896,1.39,7.324c0.256,1.177,0.699,2.328,1.182,3.438
				c0.529,1.219,1.225,2.364,1.799,3.566c0.412,0.864,0.383,1.729-0.158,2.571c-2.041,3.172-1.555,6.132,0.539,9.138
				c3.297,4.736,6.459,9.566,9.627,14.392c3.434,5.229-10.165,3.184-5.407,12.93c0.429,0.879,0.226,1.504-0.536,2.049
				C111.959,87.174,111.213,87.762,110.283,88.465z"/>
		</g>
	</g>
	<g>
		<g>
			<path fill="#FFFFFF" d="M62.447,69.42c-0.992-1.081-1.234-2.114-0.766-3.015c0.533-1.031,1.302-1.349,2.729-1.188
				c0.172,0.019,0.462-0.146,0.533-0.301c0.267-0.568,0.471-1.167,0.684-1.758c0.105-0.294,0.088-0.484-0.287-0.654
				C64.332,62.049,63.811,60.996,64,60c0.193-1.009,1.015-1.748,2.141-1.868c0.354-0.038,0.452-0.196,0.451-0.507
				c-0.002-0.592,0.003-1.185,0.014-1.777c0.006-0.434-0.189-0.621-0.63-0.628c-0.233-0.003-0.486-0.081-0.694-0.192
				c-0.814-0.436-1.299-1.104-1.301-2.057c-0.002-0.957,0.498-1.627,1.305-2.053c0.395-0.209,0.484-0.398,0.293-0.801
				c-0.234-0.493-0.502-1-0.582-1.528c-0.092-0.619-0.363-0.564-0.795-0.421c-0.859,0.283-1.594-0.063-2.154-0.646
				c-0.838-0.873-0.775-2.156,0.004-3.118c0.131-0.163,0.244-0.509,0.161-0.649c-0.29-0.482-0.668-0.911-1.013-1.358
				c-0.311-0.401-0.613-0.453-1.08-0.156c-1.172,0.75-2.688,0.213-3.274-1.048c-0.388-0.833-0.144-1.578,0.228-2.364
				c-0.717-0.405-1.377-0.805-2.066-1.147c-0.14-0.069-0.423,0.022-0.574,0.132c-0.274,0.199-0.462,0.529-0.749,0.699
				c-1.578,0.934-3.489-0.166-3.449-2c0.011-0.521-0.107-0.73-0.629-0.769c-0.486-0.035-0.977-0.116-1.443-0.252
				c-0.487-0.143-0.686,0.001-0.832,0.477c-0.506,1.654-2.596,2.149-3.774,0.879c-0.359-0.385-0.565-0.913-0.887-1.45
				c-0.777,0.138-1.649,0.293-2.572,0.457c0.233,1.32-0.228,2.326-1.387,2.808c-1.302,0.543-2.322-0.07-3.085-1.205
				c-0.823,0.49-1.595,0.948-2.361,1.404c0.542,1.011,0.434,2.258-0.097,2.915c-0.671,0.829-1.985,0.853-2.691,0.554
				c-0.917-0.387-0.915-0.4-1.591,0.362c-0.204,0.228-0.39,0.472-0.576,0.715c-0.265,0.346-0.373,0.64-0.006,1.05
				c1.408,1.574,0.188,3.471-1.226,3.771c-0.473,0.1-0.986,0.016-1.602,0.016c-0.186,0.469-0.439,1.086-0.671,1.712
				c-0.083,0.224-0.113,0.467-0.171,0.72c0.125,0.069,0.23,0.128,0.336,0.186c1.004,0.555,1.548,1.489,1.382,2.375
				c-0.228,1.213-0.881,1.825-2.193,1.997c-0.325,0.043-0.411,0.182-0.406,0.474c0.009,0.592,0.027,1.187-0.007,1.778
				c-0.025,0.453,0.078,0.629,0.592,0.659c1.339,0.079,2.283,1.541,1.936,2.841c-0.231,0.868-0.842,1.35-1.674,1.738
				c0.227,0.672,0.453,1.32,0.662,1.973c0.158,0.493,0.43,0.625,0.953,0.491c0.875-0.225,1.615,0.114,2.168,0.794
				c0.537,0.661,0.723,1.434,0.358,2.234c-0.195,0.429-0.521,0.8-0.821,1.248c0.452,0.541,0.926,1.099,1.39,1.665
				c0.242,0.292,0.433,0.379,0.804,0.101c0.665-0.502,1.449-0.553,2.202-0.203c1.329,0.618,1.694,1.909,0.958,3.519
				c0.781,0.457,1.572,0.921,2.336,1.369c0.112-0.102,0.149-0.124,0.171-0.157c0.835-1.273,1.88-1.347,2.668-1.141
				c1.128,0.293,1.664,1.188,1.688,2.584c0.001,0.122,0.122,0.326,0.22,0.349c0.806,0.181,1.621,0.329,2.419,0.484
				c0.452-1.445,1.201-2.199,2.256-2.206c1.258-0.007,2.051,0.651,2.407,1.863c0.036,0.125,0.27,0.296,0.386,0.278
				c0.813-0.125,1.618-0.295,2.378-0.44c0.028-0.176,0.042-0.216,0.04-0.256c-0.053-1.364,0.395-2.152,1.477-2.597
				c0.958-0.394,1.816-0.085,2.729,0.94c0.103,0.117,0.397,0.21,0.514,0.147c0.727-0.388,1.427-0.823,1.993-1.159
				c-0.123-0.684-0.35-1.227-0.289-1.737c0.209-1.757,2.128-2.585,3.622-1.628c0.141,0.088,0.441,0.161,0.506,0.091
				C61.368,70.708,61.907,70.053,62.447,69.42z M63.271,36.803c-0.416,0.9-0.704,1.84-0.77,2.837c-0.007,0.1,0.24,0.273,0.396,0.319
				c0.968,0.294,1.619,1.279,1.579,2.276c-0.044,1.07-0.554,1.753-1.538,2.082c-0.348,0.116-0.471,0.296-0.396,0.625
				c0.178,0.789,0.35,1.58,0.572,2.356c0.029,0.106,0.361,0.224,0.508,0.182c0.981-0.286,2.258,0.229,2.667,1.165
				c0.399,0.917,0.282,1.783-0.365,2.575c-0.121,0.15-0.235,0.501-0.161,0.586c0.619,0.689,1.285,1.338,1.957,2.02
				c0.947-0.963,1.939-1.307,3.072-0.708c1.045,0.552,1.326,1.406,1.046,3.073c0.882,0.234,1.773,0.491,2.678,0.686
				c0.124,0.027,0.403-0.223,0.46-0.395c0.3-0.924,1.02-1.538,1.998-1.632c0.93-0.09,1.799,0.376,2.225,1.21
				c0.137,0.266,0.235,0.551,0.391,0.924c0.994-0.275,1.979-0.547,2.971-0.821c-0.404-1.219-0.086-2.334,0.755-2.899
				c0.995-0.669,2.022-0.597,2.958,0.25c0.236,0.214,0.383,0.242,0.609,0.022c0.645-0.621,1.301-1.227,1.983-1.869
				c-0.999-0.968-1.431-2.027-0.735-3.16c0.619-1.01,1.488-1.44,3.055-0.975c0.211-0.778,0.42-1.554,0.629-2.331
				c0.033-0.118,0.074-0.234,0.099-0.354c0.065-0.313-0.087-0.396-0.386-0.469c-0.973-0.237-1.729-1.249-1.711-2.213
				c0.017-1.019,0.736-1.979,1.722-2.192c0.377-0.08,0.438-0.262,0.364-0.547c-0.23-0.875-0.482-1.746-0.741-2.668
				c-1.2,0.522-2.149,0.22-2.853-0.701c-0.936-1.22-0.476-2.324,0.633-3.477c-0.652-0.568-1.284-1.089-1.879-1.646
				c-0.326-0.306-0.54-0.335-0.906-0.011c-1.187,1.051-2.953,0.688-3.561-0.77c-0.232-0.56-0.174-1.242-0.27-2.05
				c-0.807-0.214-1.791-0.475-2.768-0.735c-0.446,1.41-1.113,2.027-2.168,2.107c-1.207,0.091-1.733-0.292-2.445-1.745
				c-0.057-0.115-0.248-0.248-0.363-0.236c-0.968,0.095-1.895,0.342-2.756,0.782c0.367,1.299,0.104,2.193-0.793,2.836
				c-0.932,0.669-1.83,0.531-3.311-0.531c-0.217,0.188-0.456,0.374-0.669,0.585c-0.433,0.433-0.871,0.864-1.261,1.333
				c-0.088,0.106-0.061,0.458,0.042,0.546c0.816,0.708,0.851,2.144,0.305,2.928C65.517,36.871,64.479,37.197,63.271,36.803z
				 M70.063,22.857c-0.133-0.367-0.261-0.751-0.412-1.127c-0.158-0.395-0.342-0.78-0.51-1.172c-0.166-0.392-0.344-0.577-0.826-0.327
				c-0.828,0.429-1.953,0.18-2.598-0.476c-0.672-0.684-0.855-1.784-0.375-2.659c0.189-0.348,0.069-0.5-0.201-0.621
				c-0.828-0.369-1.666-0.72-2.557-1.103c-0.4,1.234-1.047,2.069-2.391,2.084c-1.38,0.016-1.958-0.942-2.406-2.008
				c-1.065,0.364-2.093,0.611-2.895,1.329c0.606,1.054,0.61,1.899,0.021,2.675c-0.918,1.209-2.079,1.177-3.43,0.528
				c-0.409,1.006-0.801,1.966-1.199,2.945c0.212,0.083,0.286,0.112,0.36,0.142c1.124,0.455,1.791,1.261,1.727,2.276
				c-0.066,1.059-0.591,1.832-1.662,2.179c-0.127,0.042-0.284,0.367-0.239,0.495c0.31,0.89,0.67,1.763,1.04,2.705
				c1.127-0.759,2.142-0.757,3.034,0.053c0.999,0.908,1.058,2.004,0.274,3.228c0.898,0.371,1.715,0.717,2.54,1.045
				c0.348,0.138,0.583,0.015,0.695-0.358c0.194-0.647,0.642-1.092,1.244-1.345c1.249-0.526,2.475-0.003,3.017,1.252
				c0.13,0.3,0.22,0.649,0.681,0.462c0.836-0.34,1.672-0.679,2.495-1.012c-0.543-1.81-0.481-2.533,0.304-3.23
				c0.937-0.832,1.961-0.868,3.106-0.097c0.362-0.929,0.678-1.784,1.03-2.621c0.151-0.363,0.049-0.494-0.304-0.614
				c-1.628-0.556-2.13-2.544-0.925-3.755C69.059,23.37,69.57,23.164,70.063,22.857z M69.777,24.039
				c1.004,0.56,1.916,1.072,2.834,1.579c0.363,0.2,0.553,0.141,0.699-0.312c0.361-1.108,1.676-1.711,2.773-1.366
				c0.73,0.23,1.227,0.677,1.52,1.386c0.066,0.162,0.328,0.403,0.416,0.372c1.089-0.397,2.115-0.913,2.958-1.815
				c-0.841-0.885-1.16-1.869-0.505-2.953c0.639-1.058,1.65-1.302,2.814-1.048c0.283-1.273,0.363-2.47-0.026-3.705
				c-1.124,0.275-2.102,0.044-2.745-0.947c-0.717-1.106-0.367-2.133,0.561-3.189c-1.121-0.649-2.156-1.246-3.165-1.831
				c-0.139,0.166-0.177,0.194-0.188,0.229c-0.361,1.057-1.034,1.782-2.201,1.803c-1.141,0.02-1.92-0.549-2.279-1.667
				c-0.033-0.1-0.308-0.222-0.416-0.184c-1.078,0.389-2.061,0.946-2.922,1.752c0.079,0.104,0.138,0.184,0.199,0.261
				c0.699,0.878,0.814,1.855,0.322,2.724c-0.502,0.882-1.303,1.259-2.434,1.09c-0.418-0.063-0.525,0.155-0.533,0.469
				c-0.021,0.856-0.02,1.714-0.02,2.571c0,0.456,0.185,0.642,0.687,0.58c1.024-0.127,1.845,0.243,2.329,1.19
				C71.001,22.096,70.713,23.034,69.777,24.039z"/>
			<path fill-rule="evenodd" clip-rule="evenodd" d="M62.447,69.42c-0.54,0.632-1.079,1.288-1.654,1.91
				c-0.064,0.07-0.365-0.002-0.506-0.091c-1.494-0.957-3.413-0.128-3.622,1.628c-0.061,0.51,0.167,1.053,0.289,1.737
				c-0.566,0.335-1.267,0.771-1.993,1.159c-0.116,0.063-0.411-0.03-0.514-0.147c-0.912-1.025-1.771-1.334-2.729-0.94
				c-1.082,0.444-1.53,1.232-1.477,2.597c0.001,0.04-0.012,0.08-0.04,0.256c-0.76,0.146-1.565,0.315-2.378,0.44
				c-0.116,0.018-0.35-0.153-0.386-0.278c-0.355-1.212-1.148-1.871-2.407-1.863c-1.056,0.007-1.804,0.761-2.256,2.206
				c-0.798-0.156-1.613-0.303-2.419-0.484c-0.098-0.023-0.218-0.227-0.22-0.349c-0.024-1.396-0.56-2.291-1.688-2.584
				c-0.789-0.206-1.833-0.132-2.668,1.141c-0.021,0.033-0.059,0.055-0.171,0.157c-0.764-0.448-1.555-0.912-2.336-1.369
				c0.735-1.61,0.371-2.901-0.958-3.519c-0.753-0.351-1.538-0.3-2.202,0.203c-0.371,0.279-0.562,0.192-0.804-0.101
				c-0.464-0.566-0.938-1.125-1.39-1.665c0.3-0.448,0.626-0.819,0.821-1.248c0.365-0.8,0.179-1.573-0.358-2.234
				c-0.553-0.68-1.293-1.019-2.168-0.794c-0.523,0.134-0.795,0.002-0.953-0.491c-0.209-0.653-0.435-1.301-0.662-1.973
				c0.832-0.388,1.443-0.87,1.674-1.738c0.347-1.3-0.597-2.763-1.936-2.841c-0.514-0.03-0.618-0.206-0.592-0.659
				c0.034-0.592,0.017-1.186,0.007-1.778c-0.005-0.292,0.081-0.431,0.406-0.474c1.312-0.171,1.965-0.783,2.193-1.997
				c0.166-0.886-0.378-1.82-1.382-2.375c-0.105-0.058-0.21-0.117-0.336-0.186c0.058-0.252,0.088-0.496,0.171-0.72
				c0.232-0.626,0.486-1.243,0.671-1.712c0.616,0,1.129,0.084,1.602-0.016c1.413-0.3,2.634-2.197,1.226-3.771
				c-0.367-0.41-0.259-0.705,0.006-1.05c0.186-0.243,0.373-0.487,0.576-0.715c0.677-0.762,0.675-0.749,1.591-0.362
				c0.707,0.298,2.02,0.274,2.691-0.554c0.531-0.656,0.639-1.903,0.097-2.915c0.766-0.456,1.538-0.914,2.361-1.404
				c0.763,1.134,1.783,1.748,3.085,1.205c1.16-0.482,1.621-1.488,1.387-2.808c0.923-0.164,1.795-0.319,2.572-0.457
				c0.321,0.537,0.528,1.064,0.887,1.45c1.178,1.27,3.268,0.775,3.774-0.879c0.146-0.476,0.344-0.62,0.832-0.477
				c0.466,0.136,0.957,0.217,1.443,0.252c0.522,0.038,0.641,0.247,0.629,0.769c-0.04,1.835,1.871,2.935,3.449,2
				c0.287-0.17,0.475-0.5,0.749-0.699c0.15-0.109,0.434-0.201,0.574-0.132c0.689,0.342,1.35,0.743,2.066,1.147
				c-0.372,0.786-0.616,1.531-0.228,2.364c0.586,1.261,2.102,1.797,3.274,1.048c0.467-0.297,0.77-0.245,1.08,0.156
				c0.345,0.447,0.723,0.876,1.013,1.358c0.083,0.14-0.03,0.486-0.161,0.649c-0.779,0.962-0.842,2.246-0.004,3.118
				c0.561,0.583,1.295,0.929,2.154,0.646c0.432-0.143,0.703-0.198,0.795,0.421c0.08,0.527,0.348,1.035,0.582,1.528
				c0.191,0.403,0.102,0.592-0.293,0.801c-0.807,0.426-1.307,1.096-1.305,2.053c0.002,0.953,0.486,1.621,1.301,2.057
				c0.208,0.111,0.461,0.189,0.694,0.192c0.44,0.007,0.636,0.195,0.63,0.628c-0.011,0.592-0.016,1.186-0.014,1.777
				c0.001,0.312-0.098,0.469-0.451,0.507C65.015,58.252,64.193,58.991,64,60c-0.189,0.996,0.332,2.049,1.34,2.504
				c0.375,0.169,0.393,0.359,0.287,0.654c-0.213,0.591-0.417,1.189-0.684,1.758c-0.071,0.155-0.361,0.32-0.533,0.301
				c-1.427-0.16-2.195,0.158-2.729,1.188C61.213,67.307,61.455,68.34,62.447,69.42z M44.672,69.987
				c6.854,0.358,13.358-4.997,13.797-12.586c0.399-6.894-4.894-13.743-12.892-14.019c-6.756-0.233-13.053,4.656-13.694,12.291
				C31.267,63.037,36.953,69.742,44.672,69.987z"/>
			<path fill-rule="evenodd" clip-rule="evenodd" d="M63.271,36.803c1.207,0.395,2.245,0.068,2.868-0.826
				c0.546-0.785,0.512-2.22-0.305-2.928c-0.103-0.089-0.13-0.44-0.042-0.546c0.39-0.469,0.828-0.9,1.261-1.333
				c0.213-0.212,0.452-0.397,0.669-0.585c1.48,1.062,2.379,1.2,3.311,0.531c0.896-0.643,1.16-1.537,0.793-2.836
				c0.861-0.44,1.788-0.687,2.756-0.782c0.115-0.011,0.307,0.122,0.363,0.236c0.712,1.453,1.238,1.836,2.445,1.745
				c1.055-0.08,1.722-0.697,2.168-2.107c0.977,0.26,1.961,0.521,2.768,0.735c0.096,0.808,0.037,1.491,0.27,2.05
				c0.607,1.458,2.374,1.821,3.561,0.77c0.366-0.324,0.58-0.294,0.906,0.011c0.595,0.557,1.227,1.078,1.879,1.646
				c-1.108,1.153-1.568,2.256-0.633,3.477c0.703,0.921,1.652,1.223,2.853,0.701c0.259,0.922,0.511,1.792,0.741,2.668
				c0.074,0.285,0.013,0.467-0.364,0.547c-0.985,0.212-1.705,1.173-1.722,2.192c-0.018,0.964,0.738,1.976,1.711,2.213
				c0.299,0.072,0.451,0.156,0.386,0.469c-0.024,0.12-0.065,0.236-0.099,0.354c-0.209,0.777-0.418,1.553-0.629,2.331
				c-1.566-0.465-2.436-0.035-3.055,0.975c-0.695,1.133-0.264,2.192,0.735,3.16c-0.683,0.642-1.339,1.249-1.983,1.869
				c-0.227,0.22-0.373,0.192-0.609-0.022c-0.936-0.847-1.963-0.919-2.958-0.25c-0.841,0.564-1.159,1.68-0.755,2.899
				c-0.991,0.273-1.977,0.546-2.971,0.821c-0.155-0.374-0.254-0.659-0.391-0.924c-0.426-0.833-1.295-1.3-2.225-1.21
				c-0.979,0.094-1.698,0.708-1.998,1.632c-0.057,0.171-0.336,0.421-0.46,0.395c-0.904-0.195-1.796-0.452-2.678-0.686
				c0.28-1.667-0.001-2.521-1.046-3.073c-1.133-0.599-2.125-0.255-3.072,0.708c-0.672-0.681-1.338-1.33-1.957-2.02
				c-0.074-0.084,0.04-0.436,0.161-0.586c0.647-0.792,0.765-1.658,0.365-2.575c-0.409-0.936-1.686-1.451-2.667-1.165
				c-0.146,0.042-0.479-0.076-0.508-0.182c-0.223-0.776-0.395-1.567-0.572-2.356c-0.074-0.33,0.049-0.51,0.396-0.625
				c0.984-0.329,1.494-1.011,1.538-2.082c0.04-0.997-0.611-1.982-1.579-2.276c-0.156-0.046-0.403-0.219-0.396-0.319
				C62.567,38.643,62.855,37.703,63.271,36.803z M81.215,41.878c-0.119-2.12-2.094-3.873-4.215-3.732
				c-2.512,0.167-3.92,2.073-3.865,3.899c0.08,2.739,1.706,4.266,4.334,4.12C79.743,46.039,81.215,44.502,81.215,41.878z"/>
			<path fill-rule="evenodd" clip-rule="evenodd" d="M70.063,22.857c-0.492,0.307-1.004,0.513-1.361,0.872
				c-1.205,1.211-0.703,3.2,0.925,3.755c0.353,0.12,0.455,0.251,0.304,0.614c-0.353,0.837-0.668,1.692-1.03,2.621
				c-1.146-0.771-2.17-0.735-3.106,0.097c-0.785,0.697-0.847,1.42-0.304,3.23c-0.823,0.333-1.659,0.672-2.495,1.012
				c-0.461,0.187-0.551-0.162-0.681-0.462c-0.542-1.255-1.769-1.778-3.017-1.252c-0.602,0.253-1.05,0.698-1.244,1.345
				c-0.112,0.374-0.347,0.497-0.695,0.358c-0.824-0.328-1.642-0.674-2.54-1.045c0.784-1.223,0.725-2.32-0.274-3.228
				c-0.892-0.81-1.907-0.812-3.034-0.053c-0.369-0.941-0.729-1.815-1.04-2.705c-0.045-0.128,0.112-0.454,0.239-0.495
				c1.07-0.347,1.596-1.12,1.662-2.179c0.063-1.016-0.603-1.821-1.727-2.276c-0.074-0.029-0.148-0.059-0.36-0.142
				c0.398-0.979,0.79-1.939,1.199-2.945c1.352,0.649,2.512,0.681,3.43-0.528c0.59-0.776,0.585-1.621-0.021-2.675
				c0.802-0.718,1.83-0.965,2.895-1.329c0.447,1.066,1.025,2.024,2.406,2.008c1.344-0.015,1.99-0.85,2.391-2.084
				c0.891,0.382,1.729,0.734,2.557,1.103c0.271,0.122,0.391,0.273,0.201,0.621c-0.48,0.875-0.297,1.975,0.375,2.659
				c0.645,0.656,1.77,0.905,2.598,0.476c0.482-0.25,0.66-0.065,0.826,0.327c0.168,0.392,0.352,0.777,0.51,1.172
				C69.802,22.106,69.93,22.491,70.063,22.857z M64.008,25.359c0.129-2.009-1.671-3.885-3.803-3.863
				c-2.109,0.021-3.826,1.685-3.837,3.792c-0.013,2.101,1.724,3.882,3.826,3.877C62.274,29.16,64.09,27.375,64.008,25.359z"/>
			<path fill-rule="evenodd" clip-rule="evenodd" d="M69.777,24.039c0.936-1.004,1.224-1.942,0.678-3.011
				c-0.484-0.948-1.305-1.317-2.329-1.19c-0.502,0.062-0.687-0.124-0.687-0.58c0-0.857-0.002-1.714,0.02-2.571
				c0.008-0.313,0.115-0.531,0.533-0.469c1.131,0.169,1.932-0.208,2.434-1.09c0.492-0.869,0.377-1.846-0.322-2.724
				c-0.062-0.078-0.12-0.158-0.199-0.261c0.861-0.806,1.844-1.363,2.922-1.752c0.108-0.039,0.383,0.083,0.416,0.184
				c0.359,1.118,1.139,1.687,2.279,1.667c1.167-0.021,1.84-0.746,2.201-1.803c0.012-0.035,0.05-0.063,0.188-0.229
				c1.009,0.584,2.044,1.181,3.165,1.831c-0.928,1.057-1.277,2.083-0.561,3.189c0.644,0.992,1.621,1.222,2.745,0.947
				c0.39,1.235,0.31,2.432,0.026,3.705c-1.164-0.254-2.176-0.01-2.814,1.048c-0.655,1.083-0.336,2.067,0.505,2.953
				c-0.843,0.902-1.869,1.418-2.958,1.815c-0.088,0.031-0.35-0.21-0.416-0.372c-0.293-0.709-0.789-1.156-1.52-1.386
				c-1.098-0.345-2.412,0.258-2.773,1.366c-0.146,0.453-0.336,0.512-0.699,0.312C71.693,25.11,70.781,24.598,69.777,24.039z
				 M75.426,20.363c1.313,0.009,2.316-0.982,2.336-2.3c0.02-1.323-1.018-2.374-2.34-2.375c-1.237-0.001-2.345,1.109-2.345,2.355
				C73.077,19.128,74.06,20.433,75.426,20.363z"/>
			<path fill-rule="evenodd" clip-rule="evenodd" fill="#FFFFFF" d="M44.672,69.987c-7.719-0.245-13.405-6.95-12.789-14.314
				c0.641-7.635,6.938-12.524,13.694-12.291c7.998,0.276,13.291,7.125,12.892,14.019C58.03,64.99,51.526,70.345,44.672,69.987z
				 M57.198,56.74c-0.005-3.11-1.019-5.854-3.13-8.132c-2.683-2.894-6.066-4.296-9.982-3.938
				c-5.399,0.493-10.822,4.779-10.955,11.915c-0.125,6.725,5.355,11.963,11.708,12.14C51.442,68.907,57.198,63.559,57.198,56.74z"/>
			<path fill-rule="evenodd" clip-rule="evenodd" fill="#FFFFFF" d="M81.215,41.878c0,2.624-1.472,4.161-3.746,4.287
				c-2.628,0.146-4.254-1.381-4.334-4.12c-0.055-1.826,1.354-3.732,3.865-3.899C79.121,38.005,81.096,39.758,81.215,41.878z"/>
			<path fill-rule="evenodd" clip-rule="evenodd" fill="#FFFFFF" d="M64.008,25.359c0.082,2.017-1.733,3.801-3.814,3.806
				c-2.102,0.004-3.839-1.777-3.826-3.877c0.012-2.106,1.729-3.771,3.837-3.792C62.337,21.474,64.137,23.35,64.008,25.359z"/>
			<path fill-rule="evenodd" clip-rule="evenodd" fill="#FFFFFF" d="M75.426,20.363c-1.366,0.07-2.349-1.235-2.349-2.32
				c0-1.246,1.107-2.356,2.345-2.355c1.322,0,2.359,1.052,2.34,2.375C77.742,19.381,76.738,20.372,75.426,20.363z"/>
			<path fill-rule="evenodd" clip-rule="evenodd" d="M57.198,56.74c0,6.819-5.756,12.167-12.359,11.985
				c-6.352-0.176-11.832-5.415-11.708-12.14c0.132-7.136,5.555-11.422,10.955-11.915c3.916-0.358,7.299,1.044,9.982,3.938
				C56.179,50.885,57.192,53.629,57.198,56.74z M50.761,56.722c0.08-3.037-2.395-5.661-5.594-5.651
				c-3.173,0.009-5.571,2.474-5.614,5.599c-0.042,3.135,2.504,5.62,5.682,5.645C48.131,62.336,50.857,59.768,50.761,56.722z"/>
			<path fill-rule="evenodd" clip-rule="evenodd" fill="#FFFFFF" d="M50.761,56.722c0.096,3.045-2.63,5.614-5.526,5.592
				c-3.178-0.025-5.724-2.509-5.682-5.645c0.042-3.125,2.44-5.59,5.614-5.599C48.367,51.062,50.841,53.685,50.761,56.722z"/>
		</g>
	</g>
</g>
</svg>
