<?xml version="1.0" encoding="utf-8"?>
<!-- Generator: Adobe Illustrator 16.0.0, SVG Export Plug-In . SVG Version: 6.00 Build 0)  -->
<!DOCTYPE svg PUBLIC "-//W3C//DTD SVG 1.1//EN" "http://www.w3.org/Graphics/SVG/1.1/DTD/svg11.dtd">
<svg version="1.1" id="Layer_1" xmlns="http://www.w3.org/2000/svg" xmlns:xlink="http://www.w3.org/1999/xlink" x="0px" y="0px"
	 width="97px" height="60px" viewBox="0 0 97 60" enable-background="new 0 0 97 60" xml:space="preserve">
<path fill="#363436" d="M45.597,27.637l-0.167-0.081L28.436,19.34c-1.128,1.984-2.718,5.627-3.862,11.697
	c1.047,10.562,45.349,10.562,47.441,3.719c-0.252-3.932-0.986-7.896-1.684-10.955L45.78,27.61L45.597,27.637z"/>
<ellipse fill="#363436" cx="48.813" cy="13.708" rx="2.083" ry="0.669"/>
<g>
	<path fill="#363436" d="M96.173,18.664L51.844,2.365l-0.129-0.047l-0.14,0.015L5.762,7.157L3.684,7.375l1.88,0.91l14.546,7.031
		l-0.004-0.332c-0.007-0.48,0.369-0.88,0.85-0.904l24.838-1.189c0.404-0.021,0.743,0.224,0.875,0.576
		c0.616-0.824,4.375-0.746,4.375,0.242c0,0.537-1.123,0.818-2.231,0.818c-0.893,0-1.795-0.184-2.111-0.536
		c-0.091,0.376-0.417,0.664-0.822,0.685l-23.978,1.147l0.005,0.363l6.526,3.153c0.104-0.185,0.207-0.356,0.303-0.514l16.951,8.194
		l24.511-3.802c0.044,0.191,0.089,0.386,0.133,0.582l25.726-3.99l2.272-0.352L96.173,18.664z"/>
	<path fill="#363436" d="M20.178,20.037c-0.164-0.186-0.401-0.305-0.667-0.305c-0.002,0-0.005,0-0.008,0
		c-0.492,0.004-0.89,0.408-0.884,0.9l0.298,37.035c0.003,0.489,0.402,0.888,0.892,0.888c0.002,0,0.004,0,0.007,0
		c0.493-0.007,0.89-0.408,0.885-0.9l-0.021-2.661l0.021,1.49c0.007,0.488,0.406,0.88,0.893,0.88c0.003,0,0.008,0,0.012,0
		c0.046-0.002,0.09-0.008,0.133-0.016l0.002,0.762c0.002,0.49,0.402,0.89,0.892,0.89c0.001,0,0.002,0,0.003,0
		c0.494-0.002,0.892-0.402,0.89-0.896l-0.148-37.632c-0.002-0.492-0.401-0.891-0.892-0.891c-0.001,0-0.002,0-0.005,0
		c-0.196,0.002-0.375,0.067-0.522,0.176l-0.051-3.572l-1.798-0.869L20.178,20.037z"/>
	<path fill="#363436" d="M46.701,13.99c0.02-0.081,0.032-0.164,0.027-0.251c-0.004-0.097-0.027-0.188-0.061-0.274
		c-0.055,0.074-0.088,0.154-0.088,0.242C46.581,13.812,46.624,13.905,46.701,13.99z"/>
</g>
</svg>
