<?xml version="1.0" encoding="utf-8"?>
<!-- Generator: Adobe Illustrator 16.0.0, SVG Export Plug-In . SVG Version: 6.00 Build 0)  -->
<!DOCTYPE svg PUBLIC "-//W3C//DTD SVG 1.1//EN" "http://www.w3.org/Graphics/SVG/1.1/DTD/svg11.dtd">
<svg version="1.1" id="Layer_1" xmlns="http://www.w3.org/2000/svg" xmlns:xlink="http://www.w3.org/1999/xlink" x="0px" y="0px"
	 width="423px" height="370px" viewBox="0 0 423 370" enable-background="new 0 0 423 370" xml:space="preserve">
<path fill-rule="evenodd" clip-rule="evenodd" fill="#101010" d="M100.631,358.482C89.923,294.839,79.215,231.195,68.48,167.391
	c3.874-0.932,7.593-1.823,11.311-2.724c5.121-1.24,10.254-2.438,15.352-3.768c1.258-0.329,1.926-0.04,2.735,0.931
	c13.258,15.91,25.082,32.89,37.176,49.67c9.817,13.62,19.629,27.243,29.447,40.862c0.433,0.602,0.899,1.18,1.475,1.933
	c-21.614,34.718-43.276,69.513-64.939,104.308C100.901,358.563,100.766,358.522,100.631,358.482z"/>
<path fill-rule="evenodd" clip-rule="evenodd" fill="#101010" d="M413.571,337.921c-66.683-21.51-133.364-43.018-200.411-64.646
	c26.218-21.88,52.189-43.557,78.374-65.412c40.792,43.271,81.546,86.503,122.3,129.734
	C413.747,337.705,413.658,337.813,413.571,337.921z"/>
<path fill-rule="evenodd" clip-rule="evenodd" fill="#101010" d="M184.369,211.5c-15.218-66.035-30.351-131.696-45.483-197.358
	c0.104-0.059,0.208-0.118,0.312-0.177c0.503,0.581,1.045,1.133,1.504,1.747c35.107,46.93,70.207,93.864,105.307,140.799
	c3.499,4.679,6.975,9.377,10.525,14.018c0.694,0.907,0.74,1.6,0.27,2.62c-5.434,11.749-10.832,23.512-16.186,35.296
	c-0.525,1.156-1.094,1.43-2.336,1.222c-13.95-2.346-27.907-4.653-41.879-6.86c-0.964-0.153-2.283,0.305-3.068,0.938
	C190.361,206.142,187.538,208.729,184.369,211.5z"/>
<path fill-rule="evenodd" clip-rule="evenodd" fill="#101010" d="M173.456,342.244c0.42-0.834,0.676-1.389,0.973-1.92
	c11.616-20.873,23.248-41.735,34.825-62.63c0.688-1.241,1.249-1.511,2.64-1.061c65.433,21.186,130.882,42.324,196.33,63.471
	c0.59,0.19,1.175,0.402,1.731,0.94C331.215,341.443,252.479,341.844,173.456,342.244z"/>
<path fill-rule="evenodd" clip-rule="evenodd" fill="#101010" d="M312.649,224.946c-4.286-4.535-8.216-8.692-12.142-12.852
	c-2.28-2.417-4.549-4.847-6.84-7.255c-1.529-1.608-2.178-1.642-3.915-0.191c-9.771,8.147-19.559,16.272-29.268,24.49
	c-1.398,1.185-2.447,1.461-4.197,0.68c-5.384-2.407-10.878-4.568-16.328-6.827c-0.522-0.218-1.04-0.45-1.612-0.699
	c30.272-68.686,64.611-135.337,97.11-202.952C327.874,87.706,320.292,156.072,312.649,224.946z"/>
<path fill-rule="evenodd" clip-rule="evenodd" fill="#101010" d="M156.854,235.514c-4.959-6.896-9.81-13.634-14.656-20.377
	c-9.363-13.026-18.713-26.062-28.104-39.069c-0.688-0.953-0.915-1.823-0.75-2.999c4.485-32.051,8.931-64.108,13.385-96.164
	c2.782-20.027,5.567-40.055,8.351-60.083c0.031-0.225,0.076-0.447,0.426-0.763c0.2,0.693,0.435,1.379,0.596,2.081
	c4.544,19.699,9.081,39.4,13.619,59.102c10.399,45.15,20.796,90.301,31.218,135.447c0.227,0.982,0.228,1.663-0.621,2.4
	c-7.57,6.575-15.099,13.199-22.642,19.806C157.464,235.082,157.225,235.236,156.854,235.514z"/>
<path fill-rule="evenodd" clip-rule="evenodd" fill="#101010" d="M196.575,212.741c1.046,5.377,2.097,10.753,3.137,16.13
	c2.72,14.057,5.426,28.117,8.171,42.167c0.222,1.133,0.057,1.887-0.888,2.672c-33.25,27.668-66.476,55.366-99.706,83.058
	c-0.296,0.247-0.611,0.472-1.171,0.512c30.014-48.199,60.028-96.397,90.042-144.598
	C196.298,212.701,196.437,212.722,196.575,212.741z"/>
<path fill-rule="evenodd" clip-rule="evenodd" fill="#101010" d="M60.903,194.301c-16.667,7.056-33.097,14.01-49.526,20.965
	c-0.08-0.118-0.159-0.237-0.237-0.355c17.913-15.073,35.825-30.146,53.998-45.438c0.649,3.787,1.252,7.25,1.836,10.718
	c7.195,42.752,14.387,85.507,21.58,128.26c2.195,13.045,4.403,26.09,6.557,39.143c0.102,0.613-0.067,1.711-0.434,1.879
	c-1.049,0.485-2.259,0.65-3.424,0.805c-0.128,0.018-0.445-0.835-0.554-1.311c-2.167-9.492-4.317-18.987-6.471-28.481
	c-0.075-0.335-0.146-0.672-0.228-1.005c-0.533-2.16-1.283-2.563-3.307-1.731c-2.277,0.937-4.539,1.913-6.812,2.859
	c-0.504,0.21-1.028,0.376-1.542,0.562c-0.098-0.124-0.196-0.249-0.294-0.373c2.046-2.131,3.902-4.499,6.19-6.327
	c2.618-2.091,3.045-4.273,2.466-7.521c-6.397-35.858-12.615-71.747-18.884-107.627C61.543,197.749,61.246,196.182,60.903,194.301z"
	/>
<path fill-rule="evenodd" clip-rule="evenodd" fill="#101010" d="M202.18,282.984c-2.695,4.849-5.388,9.698-8.085,14.545
	c-8.103,14.56-16.22,29.11-24.289,43.689c-0.708,1.28-1.567,2.05-2.988,2.512c-20.197,6.566-40.375,13.191-60.558,19.799
	c-0.464,0.152-0.944,0.253-1.552,0.118c32.395-26.991,64.789-53.982,97.184-80.974C201.988,282.777,202.084,282.881,202.18,282.984z
	"/>
<path fill-rule="evenodd" clip-rule="evenodd" fill="#101010" d="M255.442,233.285c-14.778,12.329-29.276,24.427-44.091,36.787
	c-3.859-19.966-7.661-39.639-11.547-59.744C218.458,218.025,236.77,225.581,255.442,233.285z"/>
<path fill-rule="evenodd" clip-rule="evenodd" fill="#101010" d="M93.81,157.527c-7.562,1.833-15.095,3.8-22.698,5.44
	c-3.817,0.824-6.94,2.482-9.913,5.013c-17.099,14.554-34.324,28.962-51.506,43.418c-0.431,0.362-0.866,0.722-1.3,1.081
	c-0.13-0.08-0.261-0.16-0.392-0.242c0.433-0.698,0.81-1.438,1.309-2.087c11.531-14.978,23.076-29.946,34.617-44.916
	c3.777-4.899,7.588-9.773,11.312-14.713c1.107-1.467,2.306-1.974,4.133-1.545c10.815,2.53,21.649,4.981,32.474,7.473
	c0.696,0.161,1.365,0.436,2.047,0.658C93.864,157.247,93.837,157.388,93.81,157.527z"/>
<path fill-rule="evenodd" clip-rule="evenodd" fill="#101010" d="M168.021,251.037c-3.105-4.317-6.008-8.352-9.003-12.515
	c11.94-10.418,23.794-20.762,35.649-31.106c0.12,0.085,0.24,0.17,0.359,0.257C186.083,222.033,177.14,236.395,168.021,251.037z"/>
<path fill-rule="evenodd" clip-rule="evenodd" fill="#101010" d="M203.938,207.63c11.396,1.879,22.791,3.76,34.403,5.674
	c-1.195,2.609-2.304,5.03-3.472,7.578c-10.445-4.313-20.74-8.563-31.035-12.813C203.87,207.923,203.904,207.776,203.938,207.63z"/>
<path fill-rule="evenodd" clip-rule="evenodd" fill="#101010" d="M70.507,325.967c3.531-1.493,6.78-2.865,10.267-4.338
	c1.846,8.132,3.651,16.088,5.458,24.045c-0.107,0.068-0.215,0.138-0.323,0.206C80.842,339.329,75.777,332.779,70.507,325.967z"/>
</svg>
