<?xml version="1.0" encoding="utf-8"?>
<!-- Generator: Adobe Illustrator 16.0.4, SVG Export Plug-In . SVG Version: 6.00 Build 0)  -->
<!DOCTYPE svg PUBLIC "-//W3C//DTD SVG 1.1//EN" "http://www.w3.org/Graphics/SVG/1.1/DTD/svg11.dtd">
<svg version="1.1" id="Layer_1" xmlns="http://www.w3.org/2000/svg" xmlns:xlink="http://www.w3.org/1999/xlink" x="0px" y="0px"
	 width="423px" height="370px" viewBox="0 0 423 370" enable-background="new 0 0 423 370" xml:space="preserve">
<g>
	<g>
		<g>
			<path fill-rule="evenodd" clip-rule="evenodd" d="M51.992,39.118c9.537-0.785,18.958,0.369,28.328,1.905
				c12.138,1.987,23.847,5.359,34.585,11.541c18.543,10.671,27.618,26.758,27.428,48.119c-0.006,0.447,0,0.894,0.019,1.341
				c0,0.062,0.116,0.117,0.47,0.445c4.467-4.472,7.792-1.141,10.862,2.078c5.174,5.426,10.161,11.041,15.16,16.632
				c2.197,2.455,3.206,5.131,0.321,8.079c2.61,2.205,5.108,4.25,7.539,6.378c23.639,20.75,45.582,43.235,67.285,65.958
				c21.749,22.785,42.883,46.123,62.723,70.604c13.321,16.438,26.494,33.004,37.424,51.194c1.716,2.857,3.188,5.888,4.462,8.97
				c0.49,1.18,0.103,2.726,0.111,4.104c-1.295-0.148-2.841,0.109-3.843-0.514c-5.006-3.082-10.135-6.061-14.735-9.687
				c-26.54-20.896-50.428-44.66-73.694-69.056c-25.179-26.399-49.375-53.687-72.509-81.895c-9.166-11.177-17.9-22.708-26.907-34.181
				c-5.421,1.816-5.572,1.968-10.099-2.555c-4.797-4.791-9.421-9.775-13.836-14.919c-4.836-5.632-4.694-5.754-0.81-11.982
				c-3.956-0.046-7.877,0.17-11.753-0.185c-15.395-1.414-26.523-9.336-33.761-22.828c-4.356-8.12-8.46-16.376-12.758-24.525
				C66.442,45.583,52.395,40.886,51.992,39.118z M88.038,77.638c2.975,6.261,5.723,12.208,10.056,17.243
				c9.77,11.35,24.816,11.94,35.88,9.18c0.695-0.174,1.484-1.456,1.596-2.307c0.835-6.726,0.241-13.379-1.874-19.809
				c-2.44-7.391-6.869-13.421-13.144-18.121C112.531,74.95,101.691,79.21,88.038,77.638z M315.782,290.28
				c0.104-0.146,0.211-0.284,0.322-0.427c-2.198-2.735-4.37-5.487-6.593-8.207c-28.7-35.123-59.371-68.461-91.447-100.507
				c-14.66-14.646-29.731-28.875-44.657-43.256c-3.268-3.148-6.918-2.843-9.47,0.597c-1.041,1.398-1.122,2.59,0.567,3.602
				c1.482,0.879,3,1.748,4.294,2.86c8.86,7.599,17.937,14.971,26.438,22.956c33.931,31.84,66.094,65.44,98.315,98.981
				C301.002,274.636,308.374,282.476,315.782,290.28z M137.103,119.397c0.967,4.361,5.041,9.232,9.763,12.486
				c6.376,4.394,11.61,3.022,15.69-3.404c1.369-2.153,1.559-4.302,0.301-6.367c-3.183-5.214-7.147-9.771-12.375-13.02
				c-0.975-0.6-2.975-0.877-3.704-0.299c-3.146,2.486-6.073,5.265-8.894,8.125C137.198,117.61,137.217,119,137.103,119.397z"/>
			<path fill-rule="evenodd" clip-rule="evenodd" fill="#FFFFFF" d="M88.038,77.638c13.653,1.572,24.492-2.688,32.514-13.814
				c6.275,4.7,10.703,10.73,13.144,18.121c2.115,6.43,2.709,13.083,1.874,19.809c-0.111,0.851-0.901,2.132-1.596,2.307
				c-11.064,2.76-26.11,2.17-35.88-9.18C93.761,89.846,91.013,83.899,88.038,77.638z"/>
			<path fill-rule="evenodd" clip-rule="evenodd" fill="#FFFFFF" d="M325.431,301.482c-7.409-7.803-16.455,3.047-23.909-4.713
				c-61.057-55.672-138.211-153.339-139.687-154.221c-1.694-1.01,1.062-2.67,2.103-4.068c2.552-3.439,6.203-3.745,9.47-0.597
				c14.925,14.381,29.997,28.61,44.657,43.256c32.076,32.046,62.747,65.384,91.447,100.507c2.223,2.72,4.395,5.472,6.593,8.207
				C315.993,289.996,325.542,301.343,325.431,301.482z"/>
			<path fill-rule="evenodd" clip-rule="evenodd" fill="#FFFFFF" d="M135.491,119.126c0.13-0.446,0.107-2.005,0.876-2.784
				c3.165-3.206,6.45-6.325,9.976-9.111c0.822-0.649,3.067-0.34,4.156,0.337c5.861,3.642,10.312,8.751,13.876,14.601
				c1.41,2.316,1.198,4.725-0.332,7.14c-4.581,7.21-11.394,13.75-17.603,3.815C141.144,129.476,136.58,124.013,135.491,119.126z"/>
		</g>
	</g>
	<g>
		<g>
			<path d="M88.02,333.594c-3.511,0-6.797-1.44-10.653-4.671c-3.326-2.787-4.79-6.387-4.35-10.697
				c0.522-5.129,2.999-9.351,5.596-13.146c4.876-7.133,11.017-13.282,16.955-19.231l0.549-0.549
				c7.486-7.502,15.227-14.991,22.712-22.235l6.064-5.871c8.883-8.619,17.795-17.205,26.723-25.78
				c9.546-9.165,19.099-18.32,28.654-27.478l31.048-29.782c6.146-5.902,12.288-11.804,18.444-17.696
				c10.113-9.683,18.891-18.223,28.182-27.266c5.728-5.572,11.557-11.244,17.847-17.327c2.651-3.19,4.886-4.587,7.393-4.587
				c0.647,0,1.273,0.087,1.917,0.18c0.783,0.111,1.592,0.239,2.54,0.131c0.783-0.236,2.886-3.686,2.659-5.145
				c-0.12-0.788,0.301-1.636,1.323-2.672c2.698-2.731,4.989-5.011,7.384-7.267c3.225-3.036,6.44-6.077,9.66-9.12
				c9.215-8.711,18.743-17.718,28.261-26.425c9.615-8.799,18.104-15.479,26.715-21.026c1.139-0.731,2.315-1.399,3.494-2.066
				c0.536-0.304,1.074-0.608,1.606-0.918l0.772-0.451l1.269,1.515l-0.52,0.909c-0.128,0.229-0.256,0.457-0.4,0.672
				c-6.556,14.217-19.326,39.887-27.302,51.741c-0.85,1.258-18.706,10.813-20.331,10.876c-0.618,0.024-2.156,1.356-4.563,3.958
				l-0.507,0.546c-4.123,4.353-4.826,5.02-6.23,6.347c-0.948,0.895-2.21,2.087-5.112,4.98c-0.598,0.596-1.15,1.251-1.711,1.911
				c-1.643,1.934-3.479,4.096-6.498,4.909c0.903,3.91-1.645,6.516-3.55,8.466c-1.093,1.121-2.146,2.283-3.199,3.446
				c-0.806,0.892-1.614,1.783-2.44,2.656l-5.001,5.292c-10.155,10.735-20.306,21.47-30.485,32.18
				c-15.715,16.538-31.454,33.053-47.2,49.565c-5.951,6.237-11.914,12.468-17.876,18.693l-61.016,63.811
				c-5.37,5.604-10.74,11.206-16.079,16.838c-3.905,4.119-10.15,7.739-14.691,9.751C92.943,332.949,90.384,333.594,88.02,333.594z
				 M283.183,109.389c-1.345,0-2.985,0.474-5.847,3.911c-6.365,6.163-12.195,11.833-17.918,17.405
				c-9.298,9.046-18.077,17.589-28.197,27.279c-6.153,5.891-12.299,11.792-18.441,17.692l-31.049,29.783
				c-9.554,9.157-19.107,18.314-28.652,27.479c-8.923,8.567-17.834,17.153-26.715,25.769l-6.065,5.875
				c-7.48,7.236-15.213,14.719-22.687,22.206l-0.55,0.553c-5.87,5.879-11.939,11.961-16.706,18.931
				c-2.44,3.566-4.763,7.51-5.237,12.169c-0.365,3.57,0.848,6.556,3.605,8.864c3.495,2.93,6.275,4.179,9.296,4.179
				c2.06,0,4.347-0.588,7.195-1.85c4.355-1.93,10.324-5.38,14.015-9.274c5.341-5.634,10.714-11.241,16.088-16.847l61.014-63.809
				c5.962-6.226,11.924-12.451,17.873-18.691c15.744-16.511,31.483-33.024,47.197-49.561c10.178-10.709,20.328-21.443,30.481-32.177
				l5.001-5.291c0.816-0.862,1.612-1.743,2.41-2.623c1.069-1.183,2.142-2.365,3.255-3.504c2.346-2.402,3.917-4.339,2.724-7.414
				l-0.484-1.25l1.329-0.177c2.954-0.394,4.618-2.352,6.378-4.426c0.601-0.704,1.194-1.403,1.833-2.039
				c2.925-2.916,4.197-4.118,5.149-5.02c1.377-1.301,2.065-1.954,6.147-6.264l0.49-0.529c2.227-2.405,4.362-4.568,6.032-4.633
				c1.571-0.348,17.566-8.883,18.725-10.027c7.547-11.231,19.599-35.309,26.385-49.852c-0.835,0.477-1.666,0.964-2.474,1.483
				c-8.506,5.479-16.906,12.091-26.433,20.808c-9.503,8.696-19.027,17.698-28.236,26.403c-3.218,3.042-6.438,6.085-9.662,9.123
				c-2.374,2.233-4.646,4.498-7.33,7.212c-0.549,0.555-0.718,0.894-0.738,0.977c0.254,1.522-0.907,4.108-2.129,5.712
				c-0.814,1.067-1.612,1.652-2.375,1.74c-1.161,0.137-2.156-0.005-3.082-0.138C284.257,109.468,283.729,109.389,283.183,109.389z"
				/>
			<path d="M266.86,154.476c0.486,0.486,0.486,1.275,0,1.762l0,0c-0.486,0.486-1.273,0.486-1.763,0l-15.151-15.153
				c-0.488-0.486-0.488-1.275,0-1.761l0,0c0.484-0.487,1.276-0.487,1.763,0L266.86,154.476z"/>
			<path d="M261.784,159.549c0.486,0.486,0.486,1.276,0,1.763l0,0c-0.486,0.486-1.273,0.486-1.761,0l-15.151-15.153
				c-0.488-0.487-0.488-1.275,0-1.763l0,0c0.486-0.485,1.273-0.485,1.761,0.001L261.784,159.549z"/>
			<path d="M256.711,164.623c0.486,0.487,0.486,1.275,0,1.763l0,0c-0.486,0.485-1.276,0.485-1.763,0l-15.151-15.153
				c-0.486-0.487-0.486-1.276,0-1.763l0,0c0.486-0.486,1.273-0.486,1.76,0.001L256.711,164.623z"/>
			<path fill-rule="evenodd" clip-rule="evenodd" d="M81.895,301.816c0,0-10.872,14.859-7.611,20.295
				c3.262,5.437,11.185,14.437,21.359,8.487c10.173-5.949,18.509-13.197,20.684-16.821c2.175-3.626,106.92-111.633,106.92-111.633
				l30.444-32.256l-18.485-17.76L117.777,265.209C117.777,265.209,88.781,294.929,81.895,301.816z"/>
		</g>
		<path fill-rule="evenodd" clip-rule="evenodd" d="M338.927,67.141c0.48-0.451,0.503-1.205,0.052-1.685l0,0
			c-0.449-0.479-1.204-0.503-1.685-0.053l-22.587,21.215c-0.48,0.451-0.504,1.206-0.054,1.686l0,0
			c0.449,0.478,1.203,0.503,1.686,0.053L338.927,67.141z"/>
	</g>
</g>
</svg>
