<?xml version="1.0" encoding="utf-8"?>
<!-- Generator: Adobe Illustrator 16.0.0, SVG Export Plug-In . SVG Version: 6.00 Build 0)  -->
<!DOCTYPE svg PUBLIC "-//W3C//DTD SVG 1.1//EN" "http://www.w3.org/Graphics/SVG/1.1/DTD/svg11.dtd">
<svg version="1.1" id="Layer_1" xmlns="http://www.w3.org/2000/svg" xmlns:xlink="http://www.w3.org/1999/xlink" x="0px" y="0px"
	 width="153.07px" height="144.57px" viewBox="0 0 153.07 144.57" enable-background="new 0 0 153.07 144.57" xml:space="preserve">
<g>
	<g>
		<g>
			<path fill-rule="evenodd" clip-rule="evenodd" d="M0.879,3.621C5.397,3.249,9.86,3.796,14.298,4.523
				c5.75,0.941,11.297,2.539,16.384,5.467c8.784,5.055,13.083,12.676,12.993,22.795c-0.003,0.211,0,0.423,0.009,0.635
				c0,0.029,0.055,0.056,0.223,0.211c2.116-2.118,3.691-0.541,5.146,0.984c2.451,2.57,4.813,5.23,7.182,7.879
				c1.041,1.163,1.519,2.431,0.152,3.827c1.236,1.044,2.42,2.013,3.571,3.021c11.198,9.83,21.593,20.481,31.875,31.246
				c10.303,10.794,20.314,21.85,29.713,33.446c6.311,7.787,12.551,15.635,17.729,24.252c0.813,1.354,1.51,2.789,2.113,4.249
				c0.232,0.559,0.049,1.291,0.053,1.944c-0.613-0.07-1.346,0.052-1.82-0.243c-2.371-1.46-4.801-2.871-6.98-4.589
				c-12.572-9.898-23.889-21.156-34.91-32.713C85.801,94.43,74.338,81.503,63.379,68.14c-4.342-5.295-8.479-10.757-12.746-16.192
				c-2.568,0.86-2.64,0.932-4.784-1.21c-2.272-2.27-4.463-4.63-6.555-7.067c-2.291-2.668-2.224-2.726-0.384-5.676
				c-1.874-0.022-3.731,0.081-5.567-0.087c-7.293-0.67-12.564-4.423-15.993-10.814c-2.063-3.847-4.008-7.758-6.044-11.618
				C7.724,6.684,1.07,4.458,0.879,3.621z M17.955,21.869c1.409,2.966,2.711,5.783,4.764,8.168
				c4.628,5.376,11.756,5.656,16.997,4.349c0.329-0.083,0.703-0.689,0.756-1.093c0.396-3.186,0.114-6.338-0.888-9.384
				c-1.156-3.501-3.254-6.358-6.227-8.584C29.557,20.595,24.422,22.613,17.955,21.869z M125.842,122.602
				c0.049-0.069,0.1-0.135,0.152-0.202c-1.041-1.296-2.07-2.6-3.123-3.888c-13.596-16.639-28.125-32.432-43.32-47.612
				c-6.945-6.938-14.084-13.679-21.155-20.491c-1.548-1.491-3.277-1.347-4.486,0.283c-0.493,0.662-0.531,1.227,0.269,1.706
				c0.702,0.417,1.421,0.828,2.034,1.355c4.197,3.6,8.497,7.092,12.524,10.875c16.074,15.083,31.31,31,46.574,46.889
				C118.84,115.19,122.332,118.904,125.842,122.602z M41.198,41.651c0.458,2.066,2.388,4.374,4.625,5.915
				c3.021,2.082,5.5,1.432,7.433-1.613c0.648-1.02,0.738-2.038,0.143-3.016c-1.508-2.47-3.386-4.629-5.862-6.168
				c-0.462-0.284-1.409-0.416-1.755-0.142c-1.49,1.178-2.877,2.494-4.213,3.849C41.243,40.804,41.251,41.463,41.198,41.651z"/>
			<path fill-rule="evenodd" clip-rule="evenodd" fill="#FFFFFF" d="M17.955,21.869c6.468,0.745,11.603-1.273,15.402-6.544
				c2.973,2.227,5.07,5.083,6.227,8.584c1.002,3.046,1.283,6.198,0.888,9.384c-0.053,0.403-0.427,1.01-0.756,1.093
				c-5.241,1.308-12.369,1.028-16.997-4.349C20.666,27.652,19.364,24.834,17.955,21.869z"/>
			<path fill-rule="evenodd" clip-rule="evenodd" fill="#FFFFFF" d="M130.412,127.908c-3.51-3.696-7.795,1.443-11.326-2.232
				c-28.924-26.373-65.473-72.64-66.172-73.058c-0.803-0.479,0.503-1.265,0.996-1.927c1.209-1.629,2.938-1.774,4.486-0.283
				c7.07,6.813,14.21,13.553,21.155,20.491c15.195,15.181,29.725,30.974,43.32,47.612c1.053,1.288,2.082,2.592,3.123,3.888
				C125.941,122.467,130.465,127.842,130.412,127.908z"/>
			<path fill-rule="evenodd" clip-rule="evenodd" fill="#FFFFFF" d="M40.434,41.522c0.062-0.211,0.051-0.95,0.415-1.319
				c1.499-1.519,3.056-2.996,4.726-4.316c0.39-0.308,1.453-0.161,1.969,0.16c2.776,1.725,4.885,4.146,6.573,6.917
				c0.668,1.097,0.567,2.238-0.157,3.382c-2.17,3.416-5.397,6.514-8.339,1.807C43.112,46.425,40.95,43.837,40.434,41.522z"/>
		</g>
	</g>
	<g>
		<g>
			<path fill-rule="evenodd" clip-rule="evenodd" fill="none" stroke="#000000" stroke-miterlimit="10" d="M151.287,1.259
				c-0.08,0.139-0.152,0.283-0.24,0.415c-2.711,5.863-8.963,18.608-12.936,24.51c-0.338,0.502-8.629,4.909-9.234,4.932
				c-0.736,0.029-2.17,1.68-2.746,2.29c-3.283,3.468-1.98,1.985-5.362,5.355c-1.216,1.211-2.082,2.925-4.177,3.204
				c0.691,1.78-0.301,2.918-1.398,4.042c-0.918,0.94-1.773,1.941-2.678,2.897c-5.6,5.92-11.195,11.843-16.809,17.75
				c-7.445,7.834-14.901,15.658-22.36,23.479c-4.4,4.615-8.815,9.216-13.222,13.824c-6.816,7.131-13.631,14.264-20.448,21.394
				c-3.774,3.948-7.564,7.88-11.321,11.845c-1.702,1.795-4.5,3.486-6.799,4.506c-3.358,1.487-5.474,1.221-8.336-1.178
				c-1.435-1.201-2.076-2.754-1.884-4.633c0.23-2.266,1.317-4.172,2.566-5.996c2.354-3.443,5.308-6.369,8.233-9.3
				c4.485-4.493,9.069-8.888,13.626-13.309c4.208-4.082,8.429-8.149,12.657-12.21c7.445-7.148,14.901-14.287,22.351-21.432
				c4.891-4.691,9.773-9.39,14.667-14.076c7.786-7.455,14.058-13.634,21.807-21.126c2.575-3.09,3.496-1.678,5.322-1.889
				c0.684-0.079,1.836-2.12,1.697-3.01c-0.039-0.251,0.262-0.609,0.488-0.838c1.146-1.159,2.299-2.313,3.484-3.429
				c5.975-5.625,11.906-11.295,17.959-16.834c3.943-3.608,8.08-7.005,12.59-9.909c0.777-0.5,1.596-0.936,2.396-1.402
				C151.217,1.174,151.252,1.216,151.287,1.259z"/>
			<path d="M102.666,58.268c0.23,0.23,0.23,0.604,0,0.834l0,0c-0.23,0.23-0.604,0.23-0.835,0l-7.178-7.178
				c-0.231-0.23-0.231-0.604,0-0.834l0,0c0.229-0.23,0.604-0.23,0.835,0L102.666,58.268z"/>
			<path d="M100.262,60.671c0.23,0.23,0.23,0.604,0,0.835l0,0c-0.23,0.23-0.604,0.23-0.834,0l-7.178-7.178
				c-0.231-0.23-0.231-0.604,0-0.835l0,0c0.23-0.23,0.604-0.23,0.834,0L100.262,60.671z"/>
			<path d="M97.858,63.075c0.23,0.23,0.23,0.604,0,0.835l0,0c-0.23,0.23-0.604,0.23-0.835,0l-7.178-7.178
				c-0.23-0.23-0.23-0.604,0-0.835l0,0c0.23-0.23,0.604-0.23,0.834,0L97.858,63.075z"/>
			<path fill-rule="evenodd" clip-rule="evenodd" d="M15.044,128.066c0,0-5.15,7.039-3.605,9.614
				c1.545,2.575,5.298,6.839,10.118,4.021c4.819-2.818,8.768-6.252,9.798-7.969c1.03-1.718,50.65-52.883,50.65-52.883l14.422-15.28
				l-8.757-8.413l-55.628,53.568C32.042,110.725,18.307,124.804,15.044,128.066z"/>
		</g>
		<path fill-rule="evenodd" clip-rule="evenodd" d="M136.806,16.896c0.228-0.213,0.238-0.571,0.024-0.798l0,0
			c-0.213-0.227-0.57-0.238-0.798-0.025l-10.7,10.05c-0.228,0.214-0.238,0.571-0.025,0.799l0,0c0.213,0.227,0.57,0.238,0.799,0.025
			L136.806,16.896z"/>
	</g>
</g>
</svg>
