<?xml version="1.0" encoding="utf-8"?>
<!-- Generator: Adobe Illustrator 16.0.0, SVG Export Plug-In . SVG Version: 6.00 Build 0)  -->
<!DOCTYPE svg PUBLIC "-//W3C//DTD SVG 1.1//EN" "http://www.w3.org/Graphics/SVG/1.1/DTD/svg11.dtd">
<svg version="1.1" id="Layer_1" xmlns="http://www.w3.org/2000/svg" xmlns:xlink="http://www.w3.org/1999/xlink" x="0px" y="0px"
	 width="172.91px" height="136.06px" viewBox="0 0 172.91 136.06" enable-background="new 0 0 172.91 136.06" xml:space="preserve">
<g>
	<path fill="none" stroke="#000000" stroke-width="1.25" stroke-miterlimit="10" d="M47.468,1.839c0,0-25.358-2.186-25.358,27.544
		c0,29.73,0,52.901,0,52.901h150.139l-22.735-52.339l-21.162,0.312c0,0,2.623-30.167-33.228-29.293"/>
	<path fill="none" stroke="#000000" stroke-width="1.25" stroke-miterlimit="10" d="M47.468,1.146v16.652
		c0,0-9.619,3.279-10.274,10.93c-0.656,7.651,0,34.758,0,34.758h77.167v-31.26c0,0-0.142-14.319-18.645-16.042
		c-0.195-0.019-0.304-15.35-0.304-15.35"/>
	<polygon stroke="#000000" stroke-width="1.25" stroke-miterlimit="10" points="50.627,2.058 50.627,17.142 54.397,17.142 
		54.083,2.058 	"/>
	<polygon stroke="#000000" stroke-width="1.25" stroke-miterlimit="10" points="88.85,1.184 88.85,16.268 92.621,16.268 
		92.307,1.184 	"/>
	<path fill="none" stroke="#000000" stroke-width="1.25" stroke-miterlimit="10" d="M114.415,43.921
		c-1.147-1.421-2.731,0.983-2.731,0.983s-0.875,0.984-1.75,0c-2.67-3.003-4.152,0-4.152,0s-0.602,1.148-1.586-0.055
		c-2.643-3.23-3.934,0-3.934,0s-0.875,0.984-1.75,0c-2.67-3.003-4.153,0-4.153,0v0.055c0,0-0.655,1.202-1.64,0
		c-2.643-3.23-3.935,0-3.935,0s-0.874,0.984-1.749,0c-2.67-3.003-4.208-0.055-4.208-0.055s-0.656,1.203-1.64,0
		c-2.643-3.23-3.935,0-3.935,0s-0.875,0.984-1.749,0c-2.67-3.003-4.154,0-4.154,0v0.055c0,0-0.655,1.202-1.639,0
		c-2.643-3.23-3.935,0-3.935,0s-0.875,0.984-1.749,0c-2.67-3.003-4.154,0-4.154,0s-0.601,1.148-1.584-0.055
		c-2.643-3.23-3.935,0-3.935,0s-0.875,0.984-1.749,0c-2.67-3.003-4.153,0-4.153,0v0.055c0,0-0.656,1.202-1.639,0
		c-2.643-3.23-3.935,0-3.935,0s-0.875,0.984-1.749,0c-2.67-3.003-4.153,0-4.153,0"/>
	<path fill="none" stroke="#000000" stroke-width="1.25" stroke-miterlimit="10" d="M114.415,54.113
		c-1.147,1.421-2.731-0.983-2.731-0.983s-0.875-0.983-1.75,0c-2.67,3.003-4.099,0.055-4.099,0.055s-0.655-1.203-1.64,0
		c-2.643,3.23-3.934,0-3.934,0s-0.875-0.984-1.75,0c-2.67,3.004-4.153,0-4.153,0V53.13c0,0-0.655-1.202-1.64,0
		c-2.643,3.23-3.935,0-3.935,0s-0.874-0.983-1.749,0c-2.67,3.003-4.208,0.055-4.208,0.055s-0.656-1.203-1.64,0
		c-2.643,3.23-3.935,0-3.935,0s-0.875-0.984-1.749,0c-2.67,3.004-4.154,0-4.154,0V53.13c0,0-0.655-1.202-1.639,0
		c-2.643,3.23-3.935,0-3.935,0s-0.875-0.983-1.749,0c-2.67,3.003-4.099,0.055-4.099,0.055s-0.656-1.203-1.639,0
		c-2.643,3.23-3.935,0-3.935,0s-0.875-0.984-1.749,0c-2.67,3.004-4.153,0-4.153,0V53.13c0,0-0.656-1.202-1.639,0
		c-2.643,3.23-3.935,0-3.935,0s-0.875-0.983-1.749,0c-2.67,3.003-4.153,0-4.153,0"/>
	<polyline fill="none" stroke="#000000" stroke-width="1.25" stroke-miterlimit="10" points="21.818,42.354 16.572,42.354 
		16.572,56.053 22.11,56.053 	"/>
	<polyline fill="none" stroke="#000000" stroke-width="1.25" stroke-miterlimit="10" points="16.572,44.103 -0.333,44.103 
		-0.333,53.43 16.572,53.43 	"/>
	
		<rect x="1.124" y="38.419" fill="none" stroke="#000000" stroke-width="1.25" stroke-miterlimit="10" width="13.116" height="5.538"/>
	
		<rect x="1.124" y="129.796" fill="none" stroke="#000000" stroke-width="1.25" stroke-miterlimit="10" width="13.116" height="5.538"/>
	<polygon fill="none" stroke="#000000" stroke-width="1.25" stroke-miterlimit="10" points="3.747,53.43 11.034,53.43 
		11.034,129.796 3.601,129.65 	"/>
</g>
</svg>
