<?xml version="1.0" encoding="utf-8"?>
<!-- Generator: Adobe Illustrator 16.0.4, SVG Export Plug-In . SVG Version: 6.00 Build 0)  -->
<!DOCTYPE svg PUBLIC "-//W3C//DTD SVG 1.1//EN" "http://www.w3.org/Graphics/SVG/1.1/DTD/svg11.dtd">
<svg version="1.1" id="Layer_1" xmlns="http://www.w3.org/2000/svg" xmlns:xlink="http://www.w3.org/1999/xlink" x="0px" y="0px"
	 width="423px" height="370px" viewBox="0 0 423 370" enable-background="new 0 0 423 370" xml:space="preserve">
<g>
	<path fill="#1D1D1B" d="M421,217.489H80.877V97.492c0-21.862,6.036-38.484,17.939-49.407c16.967-15.567,39.481-13.82,40.432-13.739
		l-0.24,2.791c-0.219-0.018-22.28-1.705-38.32,13.034c-11.286,10.37-17.009,26.291-17.009,47.32v117.194h333.05l-49.746-114.52
		l-48.058,0.708l0.132-1.544c0.024-0.262,2.036-26.323-15.514-44.981c-12.553-13.342-31.925-19.82-57.545-19.167l-0.069-2.803
		c26.535-0.633,46.56,6.11,59.678,20.074c16.103,17.137,16.538,39.498,16.326,45.575l46.877-0.689L421,217.489z"/>
	<path fill="#1D1D1B" d="M290.49,175.344H114.725l-0.033-1.367c-0.061-2.485-1.457-61.042,0.004-78.076
		c1.367-15.952,18.693-23.669,23.028-25.358V34.187h2.802v38.332l-0.947,0.325c-0.207,0.071-20.717,7.27-22.091,23.296
		c-1.326,15.456-0.232,67.294-0.027,76.401h170.228v-68.678c-0.017-1.243-0.856-30.875-40.526-34.57
		c-1.7-0.161-1.7-0.161-1.952-35.797l2.803-0.02c0.079,11.185,0.287,28.784,0.533,33.14c41.145,4.41,41.94,36.903,41.944,37.234
		V175.344z"/>
	<g>
		<polygon fill="#1D1D1B" points="146.208,36.232 146.208,70.048 154.66,70.048 153.955,36.232 		"/>
		<path fill="#1D1D1B" d="M156.091,71.449h-11.284V34.831h10.522L156.091,71.449z M147.609,68.646h5.621l-0.648-31.014h-4.972
			V68.646z"/>
	</g>
	<g>
		<polygon fill="#1D1D1B" points="231.897,34.273 231.897,68.087 240.352,68.087 239.648,34.273 		"/>
		<path fill="#1D1D1B" d="M241.781,69.488h-11.286V32.872h10.523L241.781,69.488z M233.298,66.687h5.624l-0.648-31.013h-4.976
			V66.687z"/>
	</g>
	<path fill="#1D1D1B" d="M190.912,134.886c-1.065,0-2.074-0.575-3.006-1.712c-1.551-1.898-2.995-2.846-4.096-2.685
		c-1.439,0.22-2.33,2.296-2.337,2.317l-0.255,0.411c-0.131,0.149-1.339,1.452-3.079,1.452c-0.751,0-1.87-0.252-2.936-1.452
		c-1.118-1.256-2.773-2.706-4.341-2.501c-1.625,0.219-2.658,2.172-2.667,2.192c-0.105,0.2-0.939,1.708-2.575,1.875
		c-1.189,0.127-2.283-0.464-3.319-1.73c-1.552-1.899-3.005-2.84-4.097-2.684c-1.44,0.22-2.331,2.296-2.339,2.317l-0.253,0.411
		c-0.133,0.149-1.34,1.452-3.081,1.452c-0.75,0-1.87-0.252-2.936-1.452c-1.119-1.258-2.792-2.708-4.341-2.501
		c-1.296,0.175-2.218,1.455-2.539,1.974l-0.154,0.39c-0.098,0.179-1.005,1.757-2.705,1.916c-1.165,0.11-2.274-0.461-3.284-1.7
		c-1.552-1.896-3.009-2.845-4.097-2.684c-1.44,0.22-2.331,2.296-2.339,2.317l-0.253,0.411c-0.133,0.149-1.34,1.452-3.081,1.452
		c-0.751,0-1.87-0.251-2.936-1.452c-1.118-1.257-2.794-2.698-4.341-2.501c-1.624,0.219-2.656,2.172-2.666,2.192l-2.513-1.242
		c0.066-0.135,1.667-3.303,4.804-3.728c2.248-0.29,4.529,0.848,6.811,3.417c0.297,0.334,0.578,0.507,0.833,0.511
		c0.002,0,0.004,0,0.007,0c0.322,0,0.668-0.234,0.866-0.4c0.42-0.876,1.82-3.354,4.379-3.746c2.163-0.334,4.42,0.902,6.693,3.679
		c0.472,0.579,0.772,0.678,0.855,0.684c0.109-0.009,0.287-0.18,0.404-0.323l0.075-0.216c0.065-0.135,1.665-3.303,4.804-3.728
		c2.249-0.293,4.529,0.849,6.811,3.417c0.298,0.334,0.578,0.507,0.832,0.51c0.362-0.022,0.675-0.232,0.875-0.4
		c0.419-0.876,1.82-3.354,4.379-3.747c2.167-0.334,4.42,0.902,6.693,3.679c0.489,0.599,0.803,0.719,0.865,0.719l0.001-0.001
		c0.074-0.012,0.271-0.199,0.371-0.374c0.042-0.088,1.643-3.257,4.781-3.681c2.238-0.3,4.527,0.847,6.811,3.417
		c0.298,0.334,0.578,0.507,0.834,0.511c0.002,0,0.005,0,0.007,0c0.322,0,0.668-0.234,0.867-0.4c0.419-0.876,1.82-3.352,4.378-3.746
		c2.173-0.35,4.422,0.903,6.694,3.679c0.472,0.579,0.811,0.678,0.855,0.684c0.11-0.009,0.287-0.18,0.403-0.323l0.075-0.216
		c0.066-0.135,1.667-3.303,4.806-3.728c2.237-0.292,4.527,0.847,6.811,3.417c0.297,0.334,0.578,0.507,0.833,0.51
		c0.239-0.022,0.674-0.232,0.875-0.4c0.419-0.876,1.82-3.353,4.378-3.747c2.171-0.341,4.42,0.903,6.693,3.679
		c0.474,0.579,0.791,0.716,0.856,0.685c0.151-0.014,0.434-0.334,0.505-0.468c0.058-0.108,1.705-3.201,4.857-3.593
		c2.244-0.272,4.565,0.882,6.854,3.456c0.686,0.773,1.378,0.386,1.705,0.112c0.421-0.875,1.822-3.354,4.382-3.748
		c2.165-0.345,4.419,0.904,6.69,3.679c0.475,0.578,0.753,0.686,0.857,0.684c0.108-0.009,0.285-0.18,0.403-0.323l0.074-0.216
		c0.067-0.135,1.666-3.303,4.806-3.728c2.227-0.292,4.525,0.848,6.81,3.417c0.686,0.767,1.379,0.387,1.709,0.109
		c0.42-0.875,1.819-3.353,4.38-3.747c2.186-0.346,4.419,0.904,6.69,3.679c0.49,0.6,0.804,0.719,0.867,0.719c0,0,0,0,0.002-0.001
		c0.092-0.013,0.309-0.255,0.36-0.356c0.052-0.105,1.649-3.274,4.788-3.698c2.251-0.291,4.53,0.851,6.81,3.417
		c0.302,0.338,0.584,0.511,0.843,0.511c0.437,0,0.918-0.432,0.988-0.511c0.127-0.218,2.393-3.544,5.136-3.676
		c0.854-0.046,2.05,0.193,3.123,1.523l-2.179,1.76c-0.403-0.5-0.692-0.491-0.807-0.484c-0.945,0.043-2.383,1.566-3.059,2.582
		c-0.253,0.307-1.462,1.609-3.202,1.609c-0.75,0-1.869-0.252-2.936-1.451c-1.116-1.257-2.771-2.709-4.34-2.501
		c-1.626,0.219-2.656,2.171-2.664,2.191c-0.106,0.202-0.94,1.708-2.577,1.875c-1.164,0.123-2.284-0.463-3.319-1.729
		c-1.551-1.895-2.99-2.858-4.09-2.687c-1.217,0.182-2.105,1.74-2.347,2.324l-0.251,0.407c-0.133,0.148-1.342,1.451-3.082,1.451
		c-0.751,0-1.869-0.252-2.936-1.451c-1.117-1.258-2.768-2.704-4.341-2.502c-1.298,0.176-2.219,1.456-2.539,1.975l-0.153,0.39
		c-0.098,0.178-1.004,1.756-2.704,1.915c-1.193,0.1-2.276-0.463-3.285-1.698c-1.551-1.895-3.011-2.846-4.09-2.686
		c-1.22,0.181-2.107,1.74-2.349,2.325l-0.252,0.403c-0.132,0.149-1.338,1.451-3.079,1.452c-0.751,0-1.869-0.252-2.936-1.452
		c-1.122-1.26-2.798-2.737-4.403-2.536c-1.688,0.199-2.733,2.118-2.744,2.138c-0.106,0.196-1.014,1.773-2.715,1.933
		c-1.165,0.115-2.274-0.462-3.284-1.7c-1.553-1.899-2.992-2.84-4.098-2.684c-1.438,0.221-2.33,2.296-2.337,2.317l-0.255,0.411
		c-0.133,0.149-1.34,1.452-3.081,1.452c-0.75,0-1.87-0.252-2.936-1.452c-1.117-1.256-2.764-2.701-4.341-2.5
		c-1.297,0.175-2.219,1.456-2.541,1.975l-0.152,0.39c-0.098,0.178-1.003,1.756-2.704,1.915
		C191.099,134.881,191.005,134.886,190.912,134.886z"/>
	<path fill="#1D1D1B" d="M158.472,155.47c-0.233,0-0.464-0.018-0.695-0.053c-2.56-0.394-3.961-2.875-4.38-3.749
		c-0.196-0.163-0.617-0.382-0.875-0.398c-0.255,0.003-0.534,0.175-0.832,0.51c-2.282,2.569-4.571,3.73-6.81,3.417
		c-3.14-0.422-4.739-3.593-4.805-3.728l-0.145-0.298c-0.121-0.13-0.256-0.235-0.334-0.241c-0.021,0.018-0.381,0.105-0.854,0.683
		c-2.273,2.779-4.521,4.01-6.693,3.682c-2.56-0.394-3.962-2.875-4.38-3.749c-0.196-0.163-0.612-0.478-0.875-0.397
		c-0.255,0.003-0.535,0.175-0.834,0.51c-2.281,2.568-4.566,3.71-6.81,3.417c-3.138-0.424-4.737-3.593-4.804-3.728l2.513-1.242
		c0.006,0.013,1.02,1.978,2.677,2.192c1.577,0.21,3.215-1.25,4.329-2.501c1.066-1.198,2.185-1.451,2.936-1.451
		c1.74,0,2.948,1.301,3.079,1.449l0.255,0.412c0.238,0.579,1.127,2.138,2.346,2.318c1.106,0.176,2.541-0.79,4.09-2.686
		c1.011-1.237,2.105-1.814,3.284-1.698c1.7,0.158,2.606,1.735,2.705,1.915l0.17,0.423c0.336,0.538,1.238,1.776,2.535,1.944
		c1.55,0.19,3.216-1.25,4.328-2.504c1.066-1.199,2.186-1.452,2.936-1.452c1.74,0,2.948,1.303,3.081,1.452l0.253,0.411
		c0.239,0.579,1.128,2.137,2.347,2.318c1.108,0.174,2.541-0.79,4.09-2.687c1.011-1.237,2.105-1.814,3.285-1.698
		c1.699,0.158,2.607,1.736,2.705,1.915c0.036,0.073,0.986,1.942,2.567,2.152c1.539,0.204,3.216-1.264,4.345-2.534
		c1.066-1.198,2.185-1.451,2.936-1.451c1.74,0,2.948,1.301,3.08,1.449l0.255,0.412c0.237,0.579,1.126,2.137,2.345,2.318
		c1.066,0.163,2.539-0.791,4.088-2.686c1.014-1.237,2.113-1.809,3.287-1.698c1.7,0.159,2.606,1.737,2.704,1.915l0.17,0.422
		c0.336,0.539,1.239,1.776,2.535,1.944c1.549,0.19,3.216-1.25,4.329-2.504c1.066-1.199,2.186-1.452,2.936-1.452
		c1.739,0,2.948,1.303,3.08,1.452l0.255,0.411c0.238,0.579,1.125,2.137,2.346,2.318c1.072,0.16,2.539-0.792,4.088-2.687
		c1.014-1.237,2.122-1.809,3.286-1.698c1.7,0.158,2.606,1.736,2.706,1.915c0.019,0.036,1.065,1.956,2.753,2.155
		c1.605,0.189,3.281-1.275,4.402-2.539c1.066-1.197,2.185-1.449,2.935-1.449c0.001,0,0.001,0,0.001,0
		c1.741,0,2.947,1.301,3.079,1.451l0.254,0.411c0.239,0.579,1.127,2.137,2.347,2.318c1.075,0.163,2.537-0.791,4.091-2.685
		c1.008-1.237,2.097-1.807,3.284-1.699c1.7,0.159,2.606,1.737,2.704,1.915l0.171,0.422c0.336,0.539,1.239,1.776,2.534,1.944
		c1.562,0.195,3.216-1.251,4.33-2.504c1.066-1.199,2.185-1.452,2.937-1.452c1.739,0,2.948,1.303,3.08,1.451l0.255,0.412
		c0.238,0.579,1.127,2.137,2.343,2.318c1.098,0.16,2.54-0.792,4.092-2.686c1.01-1.237,2.095-1.82,3.285-1.699
		c1.699,0.158,2.605,1.737,2.703,1.916c0.037,0.072,0.985,1.941,2.566,2.151c1.523,0.191,3.214-1.263,4.345-2.534
		c1.066-1.198,2.186-1.451,2.937-1.451c1.74,0,2.949,1.301,3.08,1.449c0.798,1.175,2.235,2.697,3.181,2.742
		c0.119,0.009,0.401,0.016,0.807-0.485l2.179,1.76c-1.074,1.334-2.265,1.581-3.122,1.525c-2.744-0.133-5.01-3.459-5.259-3.838
		c0,0.001-0.003,0.002-0.003,0.002c-0.032,0-0.44-0.362-0.871-0.351c-0.255,0.002-0.536,0.174-0.835,0.51
		c-2.307,2.595-4.615,3.758-6.835,3.445c-3.069-0.425-4.598-3.513-4.66-3.645c-0.096-0.154-0.353-0.398-0.475-0.407
		c-0.092-0.021-0.381,0.104-0.856,0.684c-2.271,2.774-4.504,4.008-6.691,3.681c-2.559-0.394-3.959-2.875-4.378-3.749
		c-0.193-0.162-0.542-0.398-0.867-0.398c-0.003,0-0.007,0-0.01,0c-0.255,0.003-0.533,0.176-0.835,0.511
		c-2.283,2.569-4.581,3.727-6.808,3.417c-3.141-0.423-4.737-3.593-4.806-3.728l-0.145-0.299c-0.121-0.13-0.255-0.235-0.334-0.241
		c-0.068,0.018-0.382,0.106-0.856,0.684c-2.271,2.774-4.525,4.006-6.691,3.681c-2.562-0.394-3.961-2.876-4.38-3.75
		c-0.194-0.164-0.644-0.403-0.873-0.396c-0.255,0.002-0.535,0.174-0.832,0.51c-2.289,2.573-4.599,3.731-6.855,3.455
		c-3.152-0.391-4.799-3.484-4.869-3.615c-0.113-0.191-0.372-0.436-0.495-0.444c-0.048-0.021-0.381,0.104-0.854,0.684
		c-2.271,2.775-4.52,4.013-6.692,3.681c-2.561-0.394-3.962-2.875-4.38-3.749c-0.193-0.162-0.542-0.398-0.865-0.398
		c-0.003,0-0.006,0-0.008,0c-0.256,0.003-0.536,0.175-0.833,0.51c-2.283,2.569-4.583,3.719-6.81,3.417
		c-3.142-0.423-4.741-3.593-4.807-3.728l-0.145-0.298c-0.121-0.132-0.255-0.235-0.333-0.241c-0.003,0-0.005,0-0.006,0
		c-0.082,0-0.391,0.12-0.849,0.684c-2.272,2.775-4.517,4.011-6.694,3.681c-2.56-0.394-3.961-2.875-4.379-3.749
		c-0.196-0.163-0.609-0.478-0.875-0.397c-0.255,0.003-0.535,0.175-0.833,0.51c-2.307,2.594-4.601,3.752-6.836,3.445
		c-3.068-0.425-4.599-3.513-4.662-3.645c-0.095-0.154-0.354-0.398-0.475-0.407c-0.084-0.021-0.382,0.104-0.854,0.684
		C162.441,154.217,160.426,155.47,158.472,155.47z"/>
	<polygon fill="#1D1D1B" points="82.277,158.681 68.462,158.681 68.462,125.167 81.624,125.167 81.624,127.97 71.264,127.97 
		71.264,155.88 82.277,155.88 	"/>
	<polygon fill="#1D1D1B" points="69.863,152.802 30.562,152.802 30.562,129.088 69.863,129.088 69.863,131.891 33.364,131.891 
		33.364,149.999 69.863,149.999 	"/>
	<path fill="#1D1D1B" d="M66.036,131.565H33.829v-15.218h32.207V131.565z M36.631,128.762h26.602v-9.613H36.631V128.762z"/>
	<path fill="#1D1D1B" d="M66.036,336.416H33.829v-15.218h32.207V336.416z M36.631,333.613h26.602V324H36.631V333.613z"/>
	<path fill="#1D1D1B" d="M58.848,324.028l-19.468-0.383l0.332-173.647h19.136V324.028z M42.187,320.897l13.859,0.272V152.802H42.51
		L42.187,320.897z"/>
</g>
</svg>
