<?xml version="1.0" encoding="utf-8"?>
<!-- Generator: Adobe Illustrator 16.0.0, SVG Export Plug-In . SVG Version: 6.00 Build 0)  -->
<!DOCTYPE svg PUBLIC "-//W3C//DTD SVG 1.1//EN" "http://www.w3.org/Graphics/SVG/1.1/DTD/svg11.dtd">
<svg version="1.1" id="Layer_1" xmlns="http://www.w3.org/2000/svg" xmlns:xlink="http://www.w3.org/1999/xlink" x="0px" y="0px"
	 width="423px" height="370px" viewBox="0 0 423 370" enable-background="new 0 0 423 370" xml:space="preserve">
<path fill-rule="evenodd" clip-rule="evenodd" fill="#101010" d="M284.666,90.403c0,0.97,0.007,1.764-0.001,2.559
	c-0.265,28.225-0.603,56.448-0.773,84.674c-0.108,17.95-0.005,35.903,0.099,53.854c0.012,2.183,0.314,4.461,0.998,6.524
	c1.56,4.707,5.367,7.102,9.798,8.737c20.96,7.739,42.352,14.081,63.95,19.742c8.364,2.191,16.77,4.225,25.154,6.332
	c0.412,0.104,0.818,0.229,1.553,0.435c-0.709,0.487-1.204,0.848-1.719,1.179c-39.976,25.693-79.954,51.385-119.932,77.076
	c-2.092,1.345-4.147,2.755-6.302,3.99c-0.642,0.368-1.656,0.533-2.344,0.311c-32.226-10.473-64.461-20.921-96.623-31.589
	c-5.989-1.986-11.366-5.211-14.777-10.999c-1.777-3.015-2.432-6.222-2.602-9.584c-0.178-3.509-0.235-7.026-0.236-10.54
	c-0.013-62.132-0.003-124.264-0.021-186.396c-0.002-4.982,2.09-8.74,6.251-11.37c1.834-1.159,3.847-1.547,6.048-1.354
	c14.646,1.288,29.278,2.84,43.95,3.688c19.375,1.12,38.783,1.685,58.18,2.438c1.146,0.045,2.366-0.196,3.455-0.579
	c8.104-2.854,16.183-5.779,24.271-8.675C283.485,90.699,283.949,90.602,284.666,90.403z"/>
<path fill-rule="evenodd" clip-rule="evenodd" fill="#101010" d="M15.546,55.031c7.448-1.832,14.894-3.67,22.343-5.494
	c38.794-9.5,77.59-18.998,116.384-28.496c6.667-1.632,13.292-3.481,20.021-4.795c2.715-0.53,5.676-0.065,8.494,0.244
	c19.023,2.083,38.039,4.244,57.056,6.385c20.684,2.328,41.364,4.665,62.048,6.989c16.869,1.896,33.74,3.775,50.609,5.667
	c12.518,1.404,25.034,2.817,37.551,4.229c0.195,0.022,0.387,0.076,1.071,0.216c-0.883,0.364-1.333,0.577-1.801,0.738
	C345.382,55.869,301.44,71.023,257.49,86.15c-0.734,0.252-1.599,0.339-2.369,0.241c-20.373-2.618-40.742-5.276-61.114-7.914
	c-21.444-2.776-42.891-5.531-64.335-8.307c-17.906-2.318-35.809-4.658-53.715-6.978c-19.514-2.527-39.029-5.042-58.543-7.564
	c-0.632-0.082-1.26-0.199-1.889-0.299C15.532,55.23,15.539,55.131,15.546,55.031z"/>
<path fill-rule="evenodd" clip-rule="evenodd" fill="#101010" d="M21.964,301.137c4.169,0.43,8.043,0.763,11.899,1.238
	c22.107,2.728,44.206,5.529,66.32,8.199c3.636,0.439,7.347,0.601,11.004,0.442c5.766-0.25,8.894-3.406,9.457-9.126
	c0.216-2.202,0.286-4.427,0.285-6.641c-0.019-63.061-0.06-126.122-0.083-189.183c-0.004-9.278-7.275-18.099-16.355-19.909
	c-18.55-3.698-36.966-8.064-55.432-12.182c-11.712-2.611-23.41-5.291-35.128-7.876c-1.15-0.254-1.483-0.696-1.448-1.822
	c0.078-2.526,0.024-5.056,0.024-7.86c80.896,10.774,161.576,21.52,242.345,32.277c0,2.843,0,5.575,0,8.523
	c-0.633,0-1.254,0.026-1.873-0.004c-25.172-1.203-50.344-2.382-75.512-3.637c-8.425-0.42-16.838-1.069-25.259-1.559
	c-6.215-0.361-12.006,4.124-13.236,10.185c-0.149,0.736-0.204,1.502-0.204,2.254c0.001,65.063,0.012,130.125,0.027,195.188
	c0,1.135,0.038,2.271,0.103,3.405c0.691,11.949,7.901,19.044,18.346,22.746c18.438,6.537,37.124,12.371,55.692,18.543
	c13.592,4.518,27.157,9.117,40.75,13.637c1.02,0.338,1.324,0.824,1.293,1.847c-0.068,2.315-0.021,4.635-0.021,7.179
	c-2.799-0.696-5.408-1.338-8.014-1.993c-46.813-11.77-93.637-23.491-140.432-35.329c-27.667-6.999-55.286-14.191-82.938-21.253
	c-1.292-0.329-1.77-0.813-1.643-2.171C22.078,304.656,21.964,303.034,21.964,301.137z"/>
<path fill-rule="evenodd" clip-rule="evenodd" fill="#101010" d="M119.208,254.388c0,1.035,0,1.611,0,2.188
	c0,14.701,0.003,29.403,0.001,44.104c-0.001,5.04-2.696,7.925-7.684,8.422c-7.291,0.727-14.441-0.479-21.623-1.394
	c-14.579-1.854-29.17-3.618-43.748-5.48c-6.376-0.814-12.733-1.778-19.098-2.682c-0.417-0.06-0.825-0.177-1.313-0.478
	C56.461,283.581,88.037,269.939,119.208,254.388z"/>
<path fill-rule="evenodd" clip-rule="evenodd" fill="#101010" d="M257.839,97.241c0-2.712-0.065-5.197,0.06-7.673
	c0.023-0.458,0.746-1.095,1.274-1.281c13.771-4.836,27.556-9.63,41.342-14.419c30.434-10.572,60.868-21.138,91.304-31.704
	c0.652-0.227,1.314-0.423,2.277-0.731c0,2.605,0.063,5.005-0.07,7.394c-0.02,0.349-0.937,0.755-1.502,0.95
	c-10.982,3.801-21.995,7.515-32.96,11.366c-24.532,8.615-49.049,17.274-73.555,25.963c-8.864,3.143-17.678,6.424-26.517,9.637
	C259.041,96.907,258.574,97.021,257.839,97.241z"/>
<path fill-rule="evenodd" clip-rule="evenodd" fill="#101010" d="M386.205,275.265c0,2.191,0.087,4.12-0.063,6.031
	c-0.036,0.458-0.812,0.931-1.331,1.269c-21.267,13.803-42.54,27.593-63.816,41.381c-20.414,13.229-40.832,26.453-61.248,39.68
	c-0.527,0.341-1.064,0.666-1.896,1.187c0-2.673-0.068-5.025,0.061-7.366c0.024-0.459,0.754-0.971,1.262-1.298
	c17.226-11.091,34.427-22.222,51.709-33.223c24.442-15.559,48.947-31.02,73.427-46.521
	C384.844,276.064,385.396,275.75,386.205,275.265z"/>
</svg>
