<?xml version="1.0" encoding="utf-8"?>
<!-- Generator: Adobe Illustrator 16.0.0, SVG Export Plug-In . SVG Version: 6.00 Build 0)  -->
<!DOCTYPE svg PUBLIC "-//W3C//DTD SVG 1.1//EN" "http://www.w3.org/Graphics/SVG/1.1/DTD/svg11.dtd">
<svg version="1.1" id="Layer_1" xmlns="http://www.w3.org/2000/svg" xmlns:xlink="http://www.w3.org/1999/xlink" x="0px" y="0px"
	 width="158.74px" height="189.92px" viewBox="0 0 158.74 189.92" enable-background="new 0 0 158.74 189.92" xml:space="preserve">
<path fill-rule="evenodd" clip-rule="evenodd" fill="none" stroke="#000000" stroke-miterlimit="10" d="M0.585,171.251
	c0.015-0.026-0.057-0.016-0.084-0.024c-0.25-4.373,5.872-6.109,11.274-7.551c5.141-1.371,10.896-1.662,15.785-3.896
	c4.578-2.091,8.78-5.016,13.39-7.053c7.599-3.371-0.458-9.976,10.345-9.487c1.204,0.055,1.585-0.481,1.524-1.51
	c-0.169-2.849-0.362-5.697-0.59-8.542c-0.025-0.319-0.261-0.77-0.526-0.899c-4.474-2.192-6.64-6.15-7.822-10.661
	c-0.887-3.377-1.357-5.377-1.989-8.939c-0.313,0.016-0.843-1.385-1.436-1.441c-2.041-0.193-3.524-1.309-4.276-3.15
	c-0.586-1.436-1.11-2.996-1.185-4.523c-0.178-3.638-1.141-7.094-1.962-10.595c-0.678-2.885-0.877-5.75,1.08-8.31
	c0.831-1.088,1.673-2.167,2.762-3.575c-0.734-1.997-1.631-4.792-2.783-7.478c-1.329-3.099-1.92-6.343-2.122-9.643
	c-0.303-4.958-0.553-9.932-0.503-14.895c0.045-4.565,0.801-9.07,2.705-13.292c2.218-4.917,6.402-9.656,11.205-9.447
	c1.312,0.057,5.028-3.548,6.16-4.31c3.493-2.351,7.51-3.439,11.587-4.182c9.502-1.73,18.962-1.56,28.284,1.168
	c7.163,2.096,13.417,5.629,17.898,11.812c2.812,3.877,4.31,8.265,4.937,12.968c0.996,7.481,1.681,14.996,1.461,22.544
	c-0.14,4.825-1.277,9.635-1.645,14.497c3.936,0.885,5.928,2.704,5.992,7.104c0.045,3.108-0.512,6.116-1.525,9.016
	c-1.211,3.463-2.598,6.864-3.956,10.273c-0.239,0.602-0.687,1.131-1.091,1.652c-1.636,2.115-2.314,2.563-4.668,2.109
	c-0.337,3.189-1.024,6.416-1.551,9.588c-0.586,3.541-1.723,6.927-4.431,9.508c-0.618,0.588-1.356,1.113-2.132,1.457
	c-0.763,0.338-0.916,0.791-0.861,1.532c0.203,2.81,0.393,5.62,0.525,8.433c0.035,0.739,0.392,0.859,0.988,0.94
	c2.207,0.3,5.203,0.203,6.705,2.086c1.818,2.278-0.795,6.52,2.152,8.39c8.115,5.143,16.916,8.547,26.213,10.952
	c4.896,1.264,21.067,0.677,21.186,8.269c0.006,0.385-38.818-0.102-42.861-0.113c-26.149-0.081-52.298-0.193-78.447-0.258
	C24.714,171.745-0.579,173.323,0.585,171.251z"/>
<path fill-rule="evenodd" clip-rule="evenodd" d="M32.933,69.637c4.23-5.475,36.829-2.488,36.829-2.488s1.493,0.498,2.488,1.493
	c0.996,0.995,3.981,0.498,3.981,0.498l2.489-1.991c0,0,33.096-0.498,35.833,1.493s-2.488,22.894-2.488,22.894
	s-26.28,6.803-32.848-1.493c-4.728-5.972-9.954,0-9.954,0s-2.488,8.958-30.856,0.996c-2.489-0.498-5.475-21.898-5.475-21.898"/>
<path fill-rule="evenodd" clip-rule="evenodd" fill="#FFFFFF" d="M104.922,79.374c-0.145-0.145-0.379-0.145-0.523,0l-5.682,5.681
	c-0.145,0.145-0.145,0.38,0,0.525l0,0c0.145,0.145,0.379,0.145,0.524,0l5.681-5.681C105.066,79.753,105.066,79.518,104.922,79.374
	L104.922,79.374z"/>
<path fill-rule="evenodd" clip-rule="evenodd" fill="#FFFFFF" d="M107.385,80.194c-0.145-0.145-0.379-0.145-0.524,0l-5.681,5.681
	c-0.145,0.145-0.145,0.379,0,0.524l0,0c0.145,0.145,0.38,0.145,0.523,0l5.682-5.681C107.529,80.574,107.529,80.339,107.385,80.194
	L107.385,80.194z"/>
<path fill-rule="evenodd" clip-rule="evenodd" fill="#FFFFFF" d="M63.613,79.374c-0.145-0.145-0.379-0.145-0.524,0l-5.681,5.681
	c-0.145,0.145-0.145,0.38,0,0.525l0,0c0.145,0.145,0.379,0.145,0.524,0l5.681-5.681C63.759,79.753,63.759,79.518,63.613,79.374
	L63.613,79.374z"/>
<path fill-rule="evenodd" clip-rule="evenodd" fill="#FFFFFF" d="M66.077,80.194c-0.145-0.145-0.38-0.145-0.524,0l-5.681,5.681
	c-0.145,0.145-0.145,0.379,0,0.524l0,0c0.144,0.145,0.379,0.145,0.524,0l5.681-5.681C66.221,80.574,66.221,80.339,66.077,80.194
	L66.077,80.194z"/>
<path fill-rule="evenodd" clip-rule="evenodd" fill="none" stroke="#000000" stroke-miterlimit="10" d="M75.236,31.315
	c0,0-10.452,3.484-11.945,13.438c-1.493,9.954-1.991-12.442-1.991-12.442s-4.523,2.817-5.972,5.475
	c-1.493,2.737-0.498-2.986-0.498-2.986l-2.986,4.977l-1.991-2.986c0,0-7.465,3.484-8.461,21.401
	c-0.014,0.249-1.991-11.447-1.991-11.447s-7.465,11.944-4.977,21.898c2.489,9.954-4.479-3.981-4.479-3.981
	s-3.484-32.848,18.912-41.806s47.778-2.986,47.778-2.986s27.049,7.251,19.41,60.718c-0.996,6.968-3.664-26.384-11.447-36.829
	c-9.456-12.691-11.944,0.498-11.944,1.991s-6.47-5.475-4.479-11.447c2.902-8.706-9.455,1.991-9.455,1.991
	S79.715,28.329,75.236,31.315z"/>
<g>
	<path fill-rule="evenodd" clip-rule="evenodd" d="M113.937,79.458l-6.087,36.093c0,0,12.662,5.492,15.15-7.553
		c2.487-13.045,2.729-15.509,2.729-15.509S130.348,78.829,113.937,79.458z"/>
	<g>
		<path fill-rule="evenodd" clip-rule="evenodd" d="M36.629,78.96l6.087,36.093c0,0-12.662,5.491-15.15-7.554
			c-2.488-13.045-2.729-15.509-2.729-15.509S20.217,78.331,36.629,78.96z"/>
		<path fill-rule="evenodd" clip-rule="evenodd" d="M33.43,79.342c0,0-11.873-50.351,23.889-56.737
			c13.935-2.488,31.354-0.995,31.354-0.995s37.078,2.986,28.119,57.981c-0.66,4.051,3.235,2.239,3.235,2.239
			s13.188-48.773-24.387-63.456c-14.595-5.702-41.309-0.249-41.309-0.249s-36.829,4.977-26.377,63.704"/>
	</g>
</g>
</svg>
