<?xml version="1.0" encoding="utf-8"?>
<!-- Generator: Adobe Illustrator 16.0.4, SVG Export Plug-In . SVG Version: 6.00 Build 0)  -->
<!DOCTYPE svg PUBLIC "-//W3C//DTD SVG 1.1//EN" "http://www.w3.org/Graphics/SVG/1.1/DTD/svg11.dtd">
<svg version="1.1" id="Layer_1" xmlns="http://www.w3.org/2000/svg" xmlns:xlink="http://www.w3.org/1999/xlink" x="0px" y="0px"
	 width="423px" height="370px" viewBox="0 0 423 370" enable-background="new 0 0 423 370" xml:space="preserve">
<path d="M64.755,350.823c-16.342,0-18.359-1.109-19.023-2.245c-0.05-0.084-0.091-0.174-0.123-0.262l-0.14-0.043l-0.042-0.732
	c-0.584-10.23,13.268-13.926,24.398-16.893c3.942-1.052,8.111-1.815,12.144-2.552c7.054-1.289,14.348-2.621,20.764-5.553
	c4.594-2.098,9.1-4.655,13.458-7.127c4.705-2.67,9.569-5.431,14.609-7.656c6.599-2.927,7.076-6.937,7.536-10.812
	c0.572-4.819,1.06-9.765,14.609-9.154l0.294,0.006c0.73,0,1.229-0.135,1.479-0.403c0.266-0.28,0.375-0.839,0.328-1.657
	c-0.378-6.376-0.783-12.224-1.236-17.877c-0.031-0.383-0.354-0.931-0.524-1.029c-8.533-4.182-13.917-11.495-16.937-23.011
	c-1.802-6.862-2.788-10.999-4.098-18.32c-0.359-0.293-0.662-0.738-1.005-1.244c-0.291-0.426-0.894-1.312-1.189-1.412
	c-4.579-0.434-8.071-3.008-9.801-7.243c-1.099-2.692-2.384-6.24-2.559-9.823c-0.311-6.343-1.815-12.573-3.27-18.601
	c-0.274-1.134-0.548-2.271-0.815-3.409c-1.34-5.705-2.097-12.338,2.449-18.287c1.197-1.566,2.405-3.125,3.784-4.903l1.653-2.134
	c-0.382-1.053-0.784-2.2-1.21-3.414c-1.26-3.593-2.689-7.667-4.4-11.656c-2.569-5.988-4.05-12.71-4.529-20.553
	c-0.612-10.013-1.162-20.733-1.056-31.282c0.106-10.664,1.99-19.912,5.759-28.271c4.34-9.623,13.408-20.878,24.478-20.409
	c1.624,0,6.437-4.057,9.022-6.235c1.408-1.187,2.52-2.124,3.252-2.617c7.949-5.351,16.935-7.513,24.675-8.923
	c21.025-3.828,41.056-2.997,59.743,2.472c16.938,4.957,29.387,13.18,38.056,25.138c5.646,7.787,9.091,16.83,10.533,27.648
	c2.525,18.965,3.471,33.585,3.069,47.404c-0.165,5.747-1.013,11.557-1.829,17.174c-0.589,4.048-1.199,8.226-1.549,12.357
	c8.723,2.196,12.356,6.793,12.487,15.68c0.093,6.334-1.002,12.812-3.255,19.25c-2.2,6.293-4.715,12.583-7.144,18.664l-1.16,2.905
	c-0.495,1.244-1.319,2.296-2.117,3.313l-0.313,0.402c-2.815,3.639-4.508,5.16-7.703,5.16c-0.588,0-1.234-0.053-1.987-0.163
	c-0.507,4.321-1.297,8.698-2.062,12.939c-0.368,2.042-0.736,4.076-1.072,6.102c-0.957,5.79-2.995,14.218-9.594,20.506
	c-1.465,1.396-3.112,2.521-4.764,3.253c-1.047,0.465-1.28,0.893-1.185,2.178c0.381,5.263,0.809,11.48,1.101,17.694
	c0.037,0.757,0.072,0.833,1.167,0.982c0.828,0.11,1.712,0.196,2.621,0.286c4.338,0.418,9.254,0.896,12.104,4.469
	c1.936,2.423,1.788,5.606,1.646,8.684c-0.17,3.652-0.317,6.806,2.606,8.661c15.589,9.881,33.456,17.345,54.623,22.82
	c2.354,0.605,6.061,1.011,10.351,1.479c14.611,1.594,34.62,3.777,34.823,16.842l0.006,0.439l-0.313,0.325
	c-0.438,0.442-0.602,0.61-16.727,0.61c-17.027,0-44.008-0.267-60.129-0.426c-6.851-0.067-11.9-0.119-13.692-0.123
	c-21.654-0.067-43.306-0.143-64.96-0.221c-33.135-0.119-66.268-0.237-99.403-0.319h-0.655c-7.086,0-16.364,0.264-26.186,0.544
	C84.22,350.516,73.462,350.823,64.755,350.823z M47.792,347.625c1.01,0.43,4.571,1.103,16.962,1.103
	c8.676,0,19.42-0.307,29.811-0.605c9.839-0.278,19.131-0.544,26.247-0.544h0.661c33.135,0.081,66.27,0.2,99.405,0.318
	c21.652,0.078,43.307,0.154,64.96,0.222c1.793,0.004,6.849,0.055,13.705,0.122c16.117,0.16,43.091,0.426,60.108,0.426
	c9.631,0,13.431-0.086,14.882-0.168c-1.173-10.41-19.451-12.403-32.897-13.872c-4.371-0.475-8.146-0.888-10.648-1.532
	c-21.382-5.531-39.444-13.081-55.22-23.078c-3.951-2.507-3.755-6.769-3.579-10.529c0.131-2.813,0.254-5.472-1.188-7.28
	c-2.298-2.879-6.746-3.311-10.671-3.691c-0.935-0.09-1.846-0.178-2.7-0.295c-0.997-0.135-2.854-0.387-2.976-2.958
	c-0.293-6.191-0.72-12.392-1.101-17.642c-0.11-1.519,0.09-3.208,2.427-4.244c1.435-0.636,2.875-1.624,4.168-2.854
	c4.738-4.518,7.507-10.479,8.972-19.333c0.338-2.034,0.706-4.08,1.076-6.13c0.825-4.567,1.678-9.294,2.165-13.897l0.119-1.134
	l1.121,0.215c1.123,0.217,1.984,0.317,2.707,0.317c2.313,0,3.482-1.031,6.046-4.348l0.321-0.412
	c0.706-0.902,1.437-1.833,1.819-2.797l1.162-2.907c2.423-6.061,4.927-12.328,7.112-18.579c2.169-6.203,3.225-12.439,3.137-18.527
	c-0.119-8.114-3.409-12.004-11.736-13.876l-0.885-0.198l0.068-0.902c0.339-4.494,0.998-9.018,1.635-13.392
	c0.81-5.559,1.646-11.308,1.809-16.934c0.398-13.702-0.542-28.218-3.053-47.066c-1.394-10.464-4.715-19.197-10.153-26.694
	c-8.385-11.569-20.471-19.535-36.946-24.357c-18.376-5.377-38.073-6.188-58.778-2.423c-7.528,1.372-16.251,3.466-23.88,8.601
	c-0.639,0.431-1.767,1.381-3.072,2.48c-4.524,3.813-8.159,6.729-10.353,6.729c-0.311-0.011-0.511-0.016-0.709-0.016
	c-9.76,0-17.885,10.338-21.878,19.19c-3.647,8.089-5.471,17.062-5.574,27.43c-0.106,10.483,0.443,21.159,1.052,31.135
	c0.464,7.597,1.892,14.091,4.363,19.854c1.739,4.055,3.181,8.164,4.452,11.789c0.498,1.417,0.962,2.741,1.398,3.93l0.201,0.543
	l-2.363,3.052c-1.376,1.774-2.581,3.329-3.775,4.892c-4.006,5.241-3.365,11.045-2.075,16.536c0.266,1.134,0.539,2.265,0.812,3.397
	c1.478,6.122,3.006,12.448,3.326,18.989c0.16,3.266,1.369,6.597,2.405,9.134c1.441,3.53,4.238,5.588,8.089,5.954
	c1.192,0.113,1.99,1.283,2.692,2.314c0.149,0.219,0.357,0.524,0.5,0.7h0.583l0.165,0.863c1.342,7.561,2.322,11.689,4.149,18.648
	c2.854,10.885,7.887,17.769,15.838,21.662c0.943,0.464,1.608,1.786,1.685,2.743c0.455,5.668,0.859,11.528,1.238,17.916
	c0.086,1.44-0.207,2.494-0.893,3.223c-0.672,0.714-1.655,1.06-3.004,1.06l-0.388-0.01c-11.418-0.516-11.869,2.55-12.435,7.309
	c-0.479,4.043-1.078,9.07-8.769,12.481c-4.944,2.186-9.763,4.919-14.423,7.562c-4.397,2.496-8.943,5.074-13.621,7.21
	c-6.653,3.041-14.077,4.397-21.258,5.709c-3.992,0.729-8.12,1.485-11.98,2.513c-12.456,3.325-22.783,6.699-22.86,14.184l0.347,0.663
	L47.792,347.625z"/>
<g>
	<path d="M114.425,134.628c0.036-0.046,0.092-0.087,0.13-0.133c-0.083-0.573-0.13-0.91-0.13-0.91V134.628z"/>
	<path d="M285.439,132.543c-5.735-4.171-75.079-3.128-75.079-3.128l-5.214,4.171c0,0-6.256,1.042-8.342-1.042
		c-2.086-2.086-5.213-3.128-5.213-3.128s-67.729-6.201-77.035,5.081c0.91,6.293,6.561,44.017,11.34,44.972
		c59.438,16.684,64.651-2.086,64.651-2.086s10.95-12.513,20.856,0c13.76,17.382,68.823,3.128,68.823,3.128
		S291.174,136.714,285.439,132.543z M166.805,168.03c-0.304,0.303-0.795,0.303-1.099,0c-0.303-0.304-0.303-0.796,0-1.1
		l11.903-11.902c0.304-0.304,0.795-0.304,1.098,0c0.305,0.303,0.305,0.795,0,1.099L166.805,168.03z M183.868,157.846l-11.903,11.903
		c-0.303,0.304-0.796,0.304-1.098,0c-0.304-0.304-0.304-0.795,0-1.099l11.902-11.903c0.303-0.304,0.795-0.304,1.099,0
		C184.172,157.051,184.172,157.542,183.868,157.846z M252.257,168.03c-0.304-0.304-0.304-0.796,0-1.1l11.904-11.902
		c0.303-0.304,0.794-0.304,1.097,0c0.303,0.303,0.303,0.795,0,1.099l-11.902,11.903C253.051,168.333,252.56,168.333,252.257,168.03z
		 M270.418,157.846l-11.904,11.903c-0.301,0.304-0.794,0.304-1.097,0s-0.303-0.795,0-1.099l11.902-11.903
		c0.305-0.304,0.796-0.304,1.099,0S270.721,157.542,270.418,157.846z"/>
</g>
<path d="M287.883,160.604c-1.547,0-1.949-1.37-4.77-16.209c-3.562-18.757-9.526-50.152-19.372-63.365
	c-5.375-7.214-10.206-11.027-13.971-11.027c-7.051,0-9.167,13.153-9.167,14.572c0,0.969-0.691,1.476-1.375,1.476
	c-1.757,0-4.464-3.565-5.252-4.658c-1.898-2.635-7.861-11.949-4.8-21.133c1.284-3.851,0.841-5.075,0.589-5.422
	c-0.067-0.096-0.252-0.35-0.943-0.35c-4.094,0-14.223,7.989-17.777,11.066l-2.062,1.784l0.336-2.706
	c0.261-2.099,0.544-7.992-1.252-10.026c-0.93-1.054-2.37-0.772-4.427,0.6l-0.25,0.122c-0.213,0.072-21.329,7.359-24.322,27.317
	c-0.734,4.893-1.28,6.232-2.541,6.236c-0.009,0-0.018,0-0.028,0c-1.1,0-2.897-0.259-3.641-30.54
	c-2.767,1.9-8.445,6.117-10.591,10.051c-0.707,1.296-1.321,2.099-2.199,2.099h-0.001c-0.385,0-0.737-0.167-0.993-0.469
	c-0.185-0.22-0.634-0.754-0.455-3.542l-4.525,7.54l-4.534-6.802c-3.091,2.088-14.611,11.938-16.365,43.485l-0.054,0.983
	l-0.986,0.014c-0.375-0.014-0.587,0.001-0.923-1.104l-0.128-0.008c0.006-0.125,0.013-0.248,0.021-0.372
	c-0.577-2.163-1.489-7.472-3.69-20.491c-3.694,6.8-12.967,26.162-8.868,42.564c1.606,6.421,1.238,7.603,0.722,8.263
	c-0.275,0.353-0.669,0.548-1.11,0.548h-0.001c-1.813,0-5.497-5.528-10.949-16.431l-0.104-0.358
	c-0.074-0.696-6.838-69.83,40.278-88.676c17.281-6.913,37.296-10.417,59.489-10.417c23.493,0,41.071,4.073,41.245,4.113
	c0.626,0.168,14.716,4.113,26.962,22.029c20.303,29.703,19.094,74.232,14.505,106.357
	C289.43,158.937,289.181,160.546,287.883,160.604z M249.771,67.908c4.516,0,9.782,3.994,15.652,11.871
	c10.133,13.599,16.152,45.292,19.749,64.226c0.93,4.89,1.823,9.595,2.509,12.352c4.401-31.597,5.39-74.834-14.208-103.663
	c-11.802-17.36-25.707-21.293-25.847-21.331c-0.141-0.033-17.498-4.05-40.733-4.05c-21.925,0-41.679,3.455-58.712,10.268
	c-44.483,17.794-39.35,82.381-38.99,86.325c2.938,5.856,6.617,12.323,8.422,14.447c-0.069-0.895-0.325-2.545-1.077-5.556
	c-5.262-21.045,9.907-45.654,10.556-46.691l1.461-2.338l0.46,2.719c0.837,4.955,1.918,11.303,2.767,16.21
	c3.644-30.94,17.043-37.554,17.656-37.84l0.815-0.381l3.751,5.629l8.3-13.832l-0.963,5.541c-0.299,1.719-0.546,3.677-0.637,5.1
	c3.369-5.588,12.221-11.141,12.606-11.381l1.56-0.972l0.041,1.838c0.249,11.228,0.897,23.373,1.667,28.4
	c0.126-0.63,0.267-1.436,0.42-2.462c3.055-20.365,23.69-28.26,25.593-28.945c3.01-1.97,5.46-1.969,7.05-0.169
	c1.868,2.118,2.057,6.373,1.954,9.139c3.968-3.249,12.717-9.966,17.229-9.966c1.459,0,2.242,0.663,2.644,1.219
	c0.997,1.382,0.9,3.706-0.301,7.311c-2.005,6.013,0.53,12.31,2.218,15.529c1.858,3.542,4.031,6.032,5.22,7.035
	C239.115,79.522,241.87,67.908,249.771,67.908z"/>
<g>
	<path fill-rule="evenodd" clip-rule="evenodd" d="M284.145,155.205l-12.753,75.623c0,0,26.53,11.507,31.743-15.825
		c5.212-27.332,5.717-32.495,5.717-32.495S318.531,153.886,284.145,155.205z"/>
	<g>
		<path fill-rule="evenodd" clip-rule="evenodd" d="M122.17,154.162l12.753,75.623c0,0-26.53,11.506-31.743-15.826
			c-5.212-27.332-5.717-32.495-5.717-32.495S87.783,152.844,122.17,154.162z"/>
		<path fill-rule="evenodd" clip-rule="evenodd" d="M115.467,154.962c0,0-24.876-105.496,50.053-118.876
			c29.197-5.213,65.694-2.085,65.694-2.085s77.687,6.256,58.916,121.482c-1.383,8.487,6.778,4.692,6.778,4.692
			s27.633-102.191-51.095-132.953c-30.579-11.947-86.551-0.521-86.551-0.521s-77.165,10.427-55.266,133.474"/>
	</g>
</g>
</svg>
