<?xml version="1.0" encoding="utf-8"?>
<!-- Generator: Adobe Illustrator 16.0.4, SVG Export Plug-In . SVG Version: 6.00 Build 0)  -->
<!DOCTYPE svg PUBLIC "-//W3C//DTD SVG 1.1//EN" "http://www.w3.org/Graphics/SVG/1.1/DTD/svg11.dtd">
<svg version="1.1" id="Layer_1" xmlns="http://www.w3.org/2000/svg" xmlns:xlink="http://www.w3.org/1999/xlink" x="0px" y="0px"
	 width="423px" height="225px" viewBox="0 0 423 225" enable-background="new 0 0 423 225" xml:space="preserve">
<g>
	<g>
		<g>
			<path d="M73.468,180.583h-0.793l-0.007-0.794c-0.111-11.709,8.067-14.691,15.973-17.579c1.496-0.544,3.032-1.103,4.509-1.724
				c-1.266-1.773-2.538-3.517-3.799-5.249c-3.301-4.529-6.418-8.808-9.302-13.375c-2.672-4.23-3.403-8.918-2.059-13.202
				c1.347-4.288,4.631-7.725,9.248-9.67c4.304-1.812,8.296-2.775,11.865-2.869c7.128-0.183,14.803,0.062,24.157,0.771
				c4.448,0.339,8.89,3.332,11.883,8.01c2.929,4.574,3.77,9.741,2.253,13.817c-1.186,3.182-2.155,4.775-3.378,6.785
				c-0.741,1.218-1.579,2.595-2.638,4.605l-1.418-0.747c1.083-2.053,1.934-3.454,2.687-4.69c1.226-2.015,2.112-3.472,3.244-6.512
				c1.345-3.607,0.56-8.239-2.099-12.395c-2.683-4.194-6.766-6.979-10.655-7.277c-9.299-0.707-16.922-0.951-23.993-0.767
				c-3.369,0.088-7.166,1.011-11.284,2.745c-4.175,1.76-7.138,4.84-8.341,8.675c-1.201,3.827-0.532,8.041,1.886,11.866
				c2.854,4.523,5.957,8.781,9.241,13.288c1.457,1.999,2.924,4.014,4.385,6.072l0.565,0.798l-0.894,0.397
				c-1.794,0.799-3.685,1.485-5.512,2.154c-7.526,2.746-14.649,5.347-14.915,15.265h186.557c1.727-0.169,54.628-0.55,78.913-0.602
				c5.755-0.014,8.047-2.022,8.178-7.167c0.138-5.362-0.577-10.873-1.27-16.202l-0.347-2.707
				c-1.643-13.086-7.951-25.001-19.853-37.495c-0.704-0.74-1.434-1.497-2.181-2.271c-10.406-10.795-24.659-25.582-15.635-41.765
				c0.429-0.77,1.63-1.937,3.715-3.932c3.356-3.212,8.428-8.067,8.437-10.677c0-0.374-0.114-0.66-0.36-0.901
				c-2.146-0.673-22.331,8.34-30.941,12.207c-3.339,1.5-5.751,2.582-6.727,2.958c-11.721,4.507-22.88,9.995-19.479,23.007
				c1.317,5.036,4.41,9.867,7.208,14.001c1.501,2.216,3.572,4.649,5.769,7.226c6.071,7.129,12.953,15.21,12.33,23.699
				c-0.581,7.948-10.647,15.445-18.023,15.455c-1.553,0-3.106,0.018-4.659,0.033c-3.571,0.038-7.266,0.074-10.898-0.068
				c-10.488-0.423-20.521-4.202-31.572-11.896l-0.495-0.342l0.191-0.57c2.046-6.078,6.005-5.203,9.183-4.503
				c1.065,0.234,2.07,0.455,3.01,0.466l0.682,0.003l0.284,1.826c0.742,4.771,1.15,7.4,2.315,8.198
				c1.031,0.713,3.229,0.311,6.711-0.439c0.894-2.871,0.587-24.409-0.408-26.664c-1.25-0.742-7.5-0.676-8.627-0.073
				c-0.452,0.352-0.27,2.718-0.134,4.442c0.079,1.036,0.163,2.108,0.163,3.131v2.75l-1.477-2.321
				c-4.296-6.756-2.869-12.568-1.422-16.353c1.442-3.779,3.403-7.405,5.296-10.914c0.956-1.774,1.917-3.55,2.813-5.348
				c0.372-0.745,0.466-1.514,0.364-1.696c-1.654-2.997,0.31-4.694,1.739-5.936l0.412-0.36c0.36-0.319,37.136-28.258,44.098-32.28
				c-0.32-1.842-1.319-8.182-0.586-10.99c-0.336,0.145-0.707,0.445-1.25,0.903l-0.509,0.422c-4.032,3.279-7.747,7.091-11.339,10.778
				c-6.629,6.804-13.483,13.839-22.748,18.034c-3.18,1.438-5.77,4.01-8.275,6.497c-1.154,1.145-2.346,2.327-3.579,3.382
				l-1.075,0.919l-0.236-1.395c-1.514-8.908,6.016-13.473,12.657-17.499c0.978-0.593,1.92-1.164,2.809-1.735
				c-13.037-3.093-19.356,5.6-26.03,14.784c-2.57,3.533-5.226,7.187-8.321,10.241c-7.633,7.536-16.178,15.562-26.124,24.537
				c-1.257,1.133-2.461,2.25-3.641,3.341c-6.75,6.25-12.582,11.649-21.933,14.91l-0.529-1.514
				c9.037-3.151,14.754-8.443,21.373-14.573c1.184-1.094,2.394-2.215,3.656-3.354c9.926-8.959,18.455-16.969,26.071-24.488
				c3.002-2.962,5.619-6.561,8.149-10.042c6.982-9.601,14.193-19.528,29.473-14.922l1.583,0.477l-1.355,0.946
				c-1.328,0.93-2.796,1.819-4.35,2.761c-6.079,3.686-12.353,7.488-12.068,14.358c0.778-0.723,1.546-1.483,2.342-2.275
				c2.606-2.586,5.304-5.261,8.746-6.817c8.987-4.07,15.736-10.995,22.259-17.691c3.625-3.72,7.372-7.567,11.477-10.904l0.486-0.407
				c1.19-1.001,2.31-1.949,4.301-0.962c0.003,0.001,0.006,0.003,0.011,0.005l-0.717,1.434c0.094,0.037,0.274-0.009,0.336-0.089
				c-0.812,1.022,0.159,9.473,0.577,11.014v0.001l-0.772,0.213l0.236,0.745c-1.991,0.887-40.353,29.073-44.135,32.431l-0.428,0.373
				c-1.584,1.373-2.367,2.171-1.385,3.95c0.641,1.163-0.233,2.982-0.335,3.186c-0.904,1.814-1.87,3.604-2.836,5.393
				c-1.869,3.463-3.802,7.044-5.21,10.726c-1.631,4.266-1.783,7.963-0.414,11.585c-0.171-2.338-0.207-4.301,0.929-5.153
				c1.696-0.923,8.962-1.083,10.588,0.234c1.744,1.877,1.642,24.139,0.944,27.814c-0.136,0.718-0.32,1.242-0.779,1.465l-0.18,0.062
				c-2.875,0.623-4.873,1.03-6.365,0.902c5.169,1.991,10.252,3.053,15.443,3.261c3.596,0.146,7.268,0.108,10.814,0.068
				c1.559-0.015,3.119-0.032,4.674-0.034c7.199-0.009,15.952-7.45,16.43-13.97c0.575-7.833-6.081-15.648-11.954-22.542
				c-2.223-2.61-4.323-5.078-5.873-7.367c-2.873-4.243-6.052-9.213-7.431-14.493c-4.047-15.488,11.291-21.384,20.453-24.908
				c0.937-0.359,3.454-1.492,6.646-2.923c23.562-10.58,31.203-13.354,32.71-11.895c0.566,0.548,0.852,1.24,0.849,2.056
				c-0.011,3.291-4.955,8.024-8.931,11.829c-1.589,1.521-3.091,2.958-3.424,3.555c-8.444,15.146,4.771,28.856,15.39,39.872
				c0.747,0.776,1.48,1.536,2.188,2.277c12.15,12.755,18.595,24.959,20.282,38.402l0.348,2.699
				c0.699,5.391,1.423,10.962,1.281,16.45c-0.154,6.022-3.167,8.715-9.775,8.729c-25.658,0.053-77.237,0.443-78.84,0.596
				L73.468,180.583z M224.854,140.921c4.276,2.938,8.392,5.273,12.439,7.039c-1.397-1.307-1.794-3.859-2.586-8.947l-0.08-0.509
				c-0.887-0.078-1.785-0.275-2.656-0.468C228.899,137.359,226.449,136.821,224.854,140.921z"/>
		</g>
	</g>
	<path d="M282.074,170.328c-21.479,0-44.363-4.127-58.933-18.512c-6.132-6.056-12.78-11.049-19.229-14.441
		c-7.912-4.165-17.705-6.523-27.582-6.644c-8.339-0.132-15.574,4.209-22.562,8.379l-1.956,1.165
		c-16.839,9.938-36.027,17.161-57.029,21.471l-0.322-1.57c20.829-4.271,39.85-11.432,56.538-21.28l1.949-1.161
		c7.18-4.282,14.599-8.75,23.402-8.605c10.125,0.125,20.178,2.549,28.308,6.828c6.588,3.466,13.369,8.556,19.611,14.719
		c33.384,32.965,111.964,10.823,112.756,10.595c0.927-0.188,8.572-1.634,11.263,0.718c0.703,0.614,1.043,1.444,0.981,2.405
		l-1.599-0.101c0.03-0.469-0.104-0.807-0.437-1.099c-1.585-1.383-6.869-0.961-9.832-0.369
		C336.983,162.946,310.787,170.328,282.074,170.328z"/>
	<path d="M93.987,160.957c0,0,33.645-6.939,37.116-11.746c3.471-4.808,4.539-9.08,4.539-9.08l1.603-6.142
		c0,0-0.265-12.017-13.351-16.557c-3.473,0-6.944,0-6.944,0l-20.292-0.533c0,0-18.959,1.869-18.692,18.424
		C84.908,151.613,93.987,160.957,93.987,160.957z"/>
	<path d="M238.14,119.303c0,0,4.871-2.136,7.162-0.268c2.295,1.869,0.574,27.771,0.574,27.771l-6.59,1.334l-2.292-1.067
		l-2.292-9.346l0.285-18.424H238.14L238.14,119.303z"/>
</g>
</svg>
