<?xml version="1.0" encoding="utf-8"?>
<!-- Generator: Adobe Illustrator 16.0.0, SVG Export Plug-In . SVG Version: 6.00 Build 0)  -->
<!DOCTYPE svg PUBLIC "-//W3C//DTD SVG 1.1//EN" "http://www.w3.org/Graphics/SVG/1.1/DTD/svg11.dtd">
<svg version="1.1" id="Layer_1" xmlns="http://www.w3.org/2000/svg" xmlns:xlink="http://www.w3.org/1999/xlink" x="0px" y="0px"
	 width="423px" height="225px" viewBox="0 0 423 225" enable-background="new 0 0 423 225" xml:space="preserve">
<path fill-rule="evenodd" clip-rule="evenodd" fill="#101010" d="M417.534,116.93c-8.439,3.243-16.888,6.465-25.318,9.734
	c-48.845,18.938-97.677,37.908-146.529,56.826c-29.757,11.525-59.533,23-89.324,34.436c-6.431,2.469-12.971,4.635-19.943,5.031
	c-5.19,0.295-9.949-0.898-14.092-4.121c-2.83-2.201-5.637-4.436-8.353-6.771c-0.531-0.457-0.843-1.449-0.846-2.195
	c-0.034-8.252-0.009-16.504,0.066-24.756c0.011-1.201-0.343-1.982-1.295-2.727c-4.305-3.363-8.57-6.777-12.799-10.236
	c-0.898-0.734-1.631-0.885-2.742-0.463c-6.54,2.484-13.124,4.855-19.666,7.334c-1.195,0.453-2.024,0.404-3.058-0.467
	c-7.051-5.938-14.184-11.779-21.232-17.721c-0.587-0.496-1.052-1.494-1.06-2.264c-0.08-7.625-0.069-15.252-0.032-22.877
	c0.005-1.12-0.276-1.891-1.219-2.588c-2.605-1.93-5.159-3.936-7.659-6c-0.858-0.708-1.608-0.798-2.635-0.494
	c-6.6,1.949-13.227,3.813-19.82,5.786c-1.083,0.325-1.767,0.163-2.564-0.601c-2.751-2.639-5.567-5.212-8.376-7.789
	c-0.399-0.366-0.898-0.623-1.351-0.93c0-10.816,0-21.631,0-32.447c7.734,6.091,15.48,12.165,23.199,18.274
	c31.285,24.761,62.556,49.539,93.865,74.265c0.766,0.605,1.917,0.971,2.903,1.004c5.517,0.188,11.039,0.26,16.559,0.313
	c0.885,0.008,1.823-0.145,2.65-0.455c89.708-33.629,179.41-67.281,269.109-100.935c0.529-0.199,1.043-0.441,1.563-0.662
	C417.534,93.933,417.534,105.432,417.534,116.93z M270.644,168c-5.144-3.773-9.935-7.324-14.791-10.785
	c-0.399-0.283-1.302-0.098-1.87,0.125c-26.9,10.555-53.788,21.145-80.689,31.699c-0.997,0.391-1.386,0.881-1.371,1.977
	c0.062,4.494,0.025,8.992,0.025,13.488c0,0.764,0,1.527,0,2.549C204.934,194,237.606,181.072,270.644,168z M307.587,154.512
	c28.648-11.008,57.013-21.906,85.527-32.863c-0.328-0.304-0.468-0.488-0.65-0.596c-5.594-3.277-11.176-6.574-16.814-9.771
	c-0.554-0.314-1.535-0.193-2.196,0.051c-8.96,3.311-17.898,6.677-26.842,10.029c-12.51,4.691-25.024,9.371-37.516,14.109
	c-0.602,0.228-1.435,0.957-1.444,1.465C307.549,142.674,307.587,148.416,307.587,154.512z M246.223,149.932
	c-10.962,4.123-22.142,8.328-33.32,12.537c-13.147,4.951-26.295,9.9-39.432,14.881c-0.564,0.215-1.424,0.721-1.443,1.125
	c-0.129,2.691-0.067,5.393-0.067,8.387c27.097-10.66,53.879-21.197,80.906-31.83C250.554,153.256,248.503,151.682,246.223,149.932z
	 M307.805,133.202c21.316-7.992,42.572-15.962,64.22-24.079c-1.688-0.99-3.094-1.699-4.368-2.598
	c-1.161-0.819-2.178-0.756-3.471-0.278c-17.218,6.38-34.457,12.7-51.69,19.038c-5.193,1.909-5.191,1.912-4.876,7.475
	C307.622,132.813,307.661,132.864,307.805,133.202z M369.12,104.466c8.754,5.111,17.189,10.036,25.75,15.035
	c0-8.339,0-16.316,0-24.505C386.281,98.155,377.882,101.244,369.12,104.466z M271.929,165.781c0-8.697,0-17.006,0-25.531
	c-7.695,2.898-15.191,5.723-22.991,8.66C256.746,154.641,264.234,160.135,271.929,165.781z M75.027,177.195
	c7.01-2.592,13.735-5.08,20.749-7.674c-7.036-5.627-13.776-11.018-20.749-16.594C75.027,161.227,75.027,169.063,75.027,177.195z
	 M18.597,130.404c6.817-1.97,13.471-3.893,20.464-5.912c-6.957-5.457-13.582-10.653-20.464-16.051
	C18.597,115.941,18.597,123.056,18.597,130.404z"/>
<path fill-rule="evenodd" clip-rule="evenodd" fill="#101010" d="M417.534,80.385c-7.263,2.651-14.537,5.274-21.789,7.958
	c-83.275,30.813-166.546,61.638-249.829,92.433c-1.038,0.385-2.203,0.576-3.311,0.592c-4.381,0.066-8.765,0.053-13.146,0
	c-0.687-0.008-1.508-0.199-2.031-0.609c-6.635-5.186-13.229-10.428-19.828-15.658c-0.171-0.137-0.302-0.322-0.581-0.627
	c0.677-0.264,1.234-0.502,1.805-0.703c79.217-27.81,158.436-55.617,237.654-83.425c15.618-5.482,31.239-10.955,46.84-16.487
	c1.31-0.464,2.298-0.363,3.491,0.322c6.317,3.625,12.682,7.165,19.039,10.718c0.528,0.295,1.122,0.474,1.686,0.707
	C417.534,77.197,417.534,78.791,417.534,80.385z"/>
<path fill-rule="evenodd" clip-rule="evenodd" fill="#101010" d="M52.587,121.463c5.514-1.783,10.756-3.484,16.002-5.175
	c72.717-23.423,145.435-46.846,218.152-70.269c14.565-4.691,29.135-9.371,43.688-14.099c1.231-0.4,2.225-0.331,3.386,0.267
	c7.893,4.061,15.822,8.048,23.737,12.064c0.489,0.248,0.959,0.534,1.706,0.953c-0.834,0.308-1.389,0.53-1.955,0.718
	C281.866,70.917,206.43,95.908,130.993,120.9c-18.089,5.992-36.184,11.972-54.259,18.01c-1.178,0.393-1.959,0.256-2.911-0.506
	c-6.572-5.27-13.19-10.479-19.791-15.711C53.636,122.379,53.262,122.039,52.587,121.463z"/>
<path fill-rule="evenodd" clip-rule="evenodd" fill="#101010" d="M301.963,14.899c-6.936,2.112-13.399,4.082-19.864,6.047
	C217.655,40.54,153.211,60.134,88.767,79.726c-20.955,6.371-41.914,12.729-62.861,19.127c-1.033,0.316-1.762,0.232-2.635-0.449
	C18.653,94.8,13.979,91.268,9.13,87.563c1.388-2.507,2.69-5.015,4.171-7.411c0.313-0.505,1.258-0.682,1.949-0.883
	c40.963-11.936,81.93-23.858,122.896-35.782c42.824-12.464,85.625-25.011,128.501-37.291c5.645-1.617,11.634-1.703,17.329,0.903
	c5.276,2.413,10.657,4.595,15.991,6.882C300.479,14.201,300.98,14.446,301.963,14.899z"/>
<path fill-rule="evenodd" clip-rule="evenodd" fill="#101010" d="M387.607,59.594c-7.553,2.565-14.71,5-21.87,7.426
	c-69.557,23.573-139.112,47.144-208.67,70.716c-19.073,6.463-38.149,12.918-57.208,19.422c-1.237,0.424-2.06,0.248-3.06-0.563
	c-4.725-3.83-9.519-7.576-14.553-11.563c0.779-0.305,1.308-0.539,1.854-0.723c83.89-28.246,167.782-56.487,251.674-84.729
	c9.65-3.249,19.293-6.522,28.96-9.721c0.771-0.255,1.831-0.284,2.544,0.044c6.411,2.945,12.774,5.992,19.15,9.014
	C386.723,59.057,386.994,59.24,387.607,59.594z"/>
<path fill-rule="evenodd" clip-rule="evenodd" fill="#101010" d="M324.829,27.669c-6.264,1.983-12.06,3.818-17.855,5.653
	c-73.709,23.341-147.417,46.682-221.126,70.022c-12.962,4.105-25.925,8.21-38.897,12.286c-0.538,0.168-1.364,0.295-1.726,0.014
	c-5.079-3.926-10.101-7.926-15.362-12.086c0.743-0.277,1.232-0.491,1.738-0.645c91.25-27.852,182.504-55.697,273.746-83.577
	c1.42-0.434,2.563-0.349,3.87,0.338C314.245,22.318,319.326,24.862,324.829,27.669z"/>
</svg>
