<?xml version="1.0" encoding="utf-8"?>
<!-- Generator: Adobe Illustrator 16.0.0, SVG Export Plug-In . SVG Version: 6.00 Build 0)  -->
<!DOCTYPE svg PUBLIC "-//W3C//DTD SVG 1.1//EN" "http://www.w3.org/Graphics/SVG/1.1/DTD/svg11.dtd">
<svg version="1.1" id="Layer_1" xmlns="http://www.w3.org/2000/svg" xmlns:xlink="http://www.w3.org/1999/xlink" x="0px" y="0px"
	 width="172.91px" height="87.87px" viewBox="0 0 172.91 87.87" enable-background="new 0 0 172.91 87.87" xml:space="preserve">
<g>
	<g>
		<g>
			<path fill-rule="evenodd" clip-rule="evenodd" fill="none" stroke="#000000" stroke-miterlimit="10" d="M59.355,56.596
				c6.755-2.355,10.567-6.576,15.792-11.291c5.533-4.994,10.984-10.063,16.29-15.301c7.139-7.042,10.451-19.24,22.987-15.459
				c-4.275,2.989-11.451,5.658-10.354,12.117c2.428-2.078,4.52-4.884,7.52-6.242c8.825-3.995,14.004-12.091,21.167-17.917
				c0.913-0.742,1.377-1.33,2.456-0.791c-1.381-0.69-0.352,6.606-0.136,7.398c-0.094-0.348-25.283,18.161-27.734,20.336
				c-0.995,0.884-2.153,1.653-1.237,3.313c0.201,0.364,0.005,1.077-0.219,1.524c-1.681,3.371-3.704,6.607-5.042,10.106
				c-1.111,2.906-1.474,6.117,0.843,9.76c0-2.053-0.563-4.56,0.245-5.166c0.875-0.472,5.189-0.518,5.995,0.135
				c0.809,0.877,1.01,17.044,0.199,17.436c-5.656,1.226-5.479,0.953-6.559-5.928c-2.549-0.021-5.62-2.313-7.133,2.181
				c5.786,4.027,12.102,7.04,19.442,7.335c3.225,0.131,6.459,0.025,9.689,0.021c4.535-0.006,10.427-4.729,10.753-9.184
				c0.514-6.996-7.713-13.816-11.212-18.986c-1.865-2.756-3.744-5.738-4.568-8.893c-2.311-8.841,5.892-12.427,12.463-14.954
				c2.571-0.989,22.756-10.601,24.038-9.357c2.272,2.202-6.42,8.758-7.271,10.283c-5.839,10.472,4.407,19.927,11.046,26.897
				c6.44,6.762,11.339,14.23,12.526,23.688c0.495,3.945,1.114,7.929,1.013,11.877c-0.094,3.68-1.936,4.954-5.604,4.962
				c-15.357,0.032-48.196,0.273-49.258,0.375c-38.983,0-77.968,0-116.95,0c-0.081-8.575,7.208-9.229,13.051-11.829
				c-2.928-4.13-5.922-7.992-8.521-12.107c-3.292-5.211-1.401-11.162,4.259-13.549c2.266-0.953,4.796-1.689,7.225-1.752
				c5.004-0.129,10.031,0.102,15.027,0.48c5.498,0.418,10.322,7.769,8.393,12.951c-1.163,3.12-1.958,3.694-3.729,7.051"/>
		</g>
	</g>
	<path fill-rule="evenodd" clip-rule="evenodd" fill="none" stroke="#000000" stroke-miterlimit="10" d="M13.747,75.121
		c12.416-2.547,24.514-6.893,35.443-13.344c4.857-2.867,9.725-6.096,15.564-6.025c5.926,0.074,12.201,1.447,17.442,4.205
		c4.396,2.313,8.593,5.615,12.122,9.101c21.288,21.02,70.871,6.737,70.871,6.737s7.187-1.438,7.006,1.438"/>
	<path fill-rule="evenodd" clip-rule="evenodd" d="M13.352,75.12c0,0,21.001-4.333,23.167-7.333s2.833-5.667,2.833-5.667l1-3.833
		c0,0-0.166-7.5-8.333-10.334c-2.167,0-4.334,0-4.334,0L15.019,47.62c0,0-11.834,1.167-11.667,11.5
		C7.685,69.287,13.352,75.12,13.352,75.12z"/>
	<path fill-rule="evenodd" clip-rule="evenodd" d="M103.33,49.12c0,0,3.039-1.333,4.47-0.167c1.432,1.167,0.358,17.334,0.358,17.334
		l-4.113,0.833l-1.431-0.667l-1.43-5.833l0.178-11.5H103.33z"/>
</g>
</svg>
